<svg width="24" height="24" viewBox="0 0 24 24" fill="none" xmlns="http://www.w3.org/2000/svg">
<path fill-rule="evenodd" clip-rule="evenodd" d="M8.40699 5.59827C8.33714 5.66794 8.28173 5.7507 8.24392 5.84182C8.20611 5.93294 8.18665 6.03062 8.18665 6.12927C8.18665 6.22792 8.20611 6.3256 8.24392 6.41672C8.28173 6.50784 8.33714 6.5906 8.40699 6.66027L14.4988 12.7506L8.40699 18.8409C8.26616 18.9817 8.18704 19.1727 8.18704 19.3719C8.18704 19.5711 8.26616 19.7621 8.40699 19.9029C8.54782 20.0437 8.73882 20.1229 8.93799 20.1229C9.13715 20.1229 9.32816 20.0437 9.46899 19.9029L16.0903 13.2816C16.1602 13.2119 16.2156 13.1292 16.2534 13.038C16.2912 12.9469 16.3106 12.8492 16.3106 12.7506C16.3106 12.6519 16.2912 12.5543 16.2534 12.4631C16.2156 12.372 16.1602 12.2893 16.0903 12.2196L9.46899 5.59827C9.39932 5.52843 9.31655 5.47301 9.22544 5.4352C9.13432 5.39739 9.03664 5.37793 8.93799 5.37793C8.83934 5.37793 8.74165 5.39739 8.65054 5.4352C8.55942 5.47301 8.47665 5.52843 8.40699 5.59827Z" fill="#B9B9B9"/>
</svg>
