<svg width="40" height="40" viewBox="0 0 40 40" fill="none" xmlns="http://www.w3.org/2000/svg">
<circle cx="20" cy="20" r="19.5" fill="white" stroke="#4872F2"/>
<path fill-rule="evenodd" clip-rule="evenodd" d="M23.4346 28.2231C23.5122 28.1457 23.5738 28.0537 23.6158 27.9525C23.6578 27.8513 23.6794 27.7427 23.6794 27.6331C23.6794 27.5235 23.6578 27.415 23.6158 27.3137C23.5738 27.2125 23.5122 27.1205 23.4346 27.0431L16.6659 20.2761L23.4346 13.5091C23.5911 13.3526 23.679 13.1404 23.679 12.9191C23.679 12.6978 23.5911 12.4855 23.4346 12.3291C23.2781 12.1726 23.0659 12.0847 22.8446 12.0847C22.6233 12.0847 22.4111 12.1726 22.2546 12.3291L14.8976 19.6861C14.82 19.7635 14.7584 19.8555 14.7164 19.9567C14.6744 20.0579 14.6528 20.1665 14.6528 20.2761C14.6528 20.3857 14.6744 20.4942 14.7164 20.5955C14.7584 20.6967 14.82 20.7887 14.8976 20.8661L22.2546 28.2231C22.332 28.3007 22.424 28.3623 22.5252 28.4043C22.6265 28.4463 22.735 28.4679 22.8446 28.4679C22.9542 28.4679 23.0628 28.4463 23.164 28.4043C23.2653 28.3623 23.3572 28.3007 23.4346 28.2231Z" fill="#4872F2"/>
</svg>
