<svg width="20" height="20" viewBox="0 0 20 20" fill="none" xmlns="http://www.w3.org/2000/svg">
<path d="M16.9 3.85H13.75V2.65C13.75 2.5675 13.6825 2.5 13.6 2.5H12.55C12.4675 2.5 12.4 2.5675 12.4 2.65V3.85H7.6V2.65C7.6 2.5675 7.5325 2.5 7.45 2.5H6.4C6.3175 2.5 6.25 2.5675 6.25 2.65V3.85H3.1C2.76812 3.85 2.5 4.11813 2.5 4.45V16.9C2.5 17.2319 2.76812 17.5 3.1 17.5H16.9C17.2319 17.5 17.5 17.2319 17.5 16.9V4.45C17.5 4.11813 17.2319 3.85 16.9 3.85ZM16.15 16.15H3.85V9.025H16.15V16.15ZM3.85 7.75V5.2H6.25V6.1C6.25 6.1825 6.3175 6.25 6.4 6.25H7.45C7.5325 6.25 7.6 6.1825 7.6 6.1V5.2H12.4V6.1C12.4 6.1825 12.4675 6.25 12.55 6.25H13.6C13.6825 6.25 13.75 6.1825 13.75 6.1V5.2H16.15V7.75H3.85Z" fill="#B9B9B9"/>
</svg>
