<svg width="20" height="20" viewBox="0 0 20 20" fill="none" xmlns="http://www.w3.org/2000/svg">
<path d="M17.9577 11.7861L18.9804 6.16109C19.0131 5.98096 19.0059 5.79582 18.9592 5.61879C18.9126 5.44175 18.8276 5.27713 18.7102 5.13656C18.5929 4.99599 18.4462 4.88291 18.2803 4.80532C18.1145 4.72772 17.9336 4.6875 17.7505 4.6875H4.64609L4.26453 2.58891C4.21228 2.30084 4.06052 2.04026 3.83575 1.85267C3.61097 1.66507 3.32746 1.56238 3.03469 1.5625H1.62445C1.45869 1.5625 1.29972 1.62835 1.18251 1.74556C1.0653 1.86277 0.999451 2.02174 0.999451 2.1875C0.999451 2.35326 1.0653 2.51223 1.18251 2.62944C1.29972 2.74665 1.45869 2.8125 1.62445 2.8125H3.03461L5.12078 14.2861C5.13943 14.3876 5.17058 14.4864 5.21351 14.5802C4.90147 14.8439 4.66951 15.1897 4.54393 15.5784C4.41835 15.9672 4.40416 16.3833 4.50298 16.7797C4.6018 17.1761 4.80967 17.5369 5.10304 17.8212C5.39641 18.1055 5.76354 18.302 6.16284 18.3883C6.56214 18.4746 6.97764 18.4474 7.36225 18.3096C7.74686 18.1719 8.08521 17.9292 8.33895 17.6091C8.59269 17.2889 8.75168 16.9041 8.7979 16.4982C8.84412 16.0923 8.77573 15.6815 8.60047 15.3125H14.0234C13.8203 15.7407 13.7618 16.2233 13.8567 16.6877C13.9516 17.152 14.1948 17.573 14.5496 17.8872C14.9044 18.2014 15.3517 18.3919 15.8241 18.43C16.2965 18.468 16.7685 18.3516 17.169 18.0982C17.5696 17.8449 17.877 17.4682 18.045 17.0251C18.213 16.5819 18.2325 16.0962 18.1005 15.6409C17.9686 15.1857 17.6924 14.7857 17.3135 14.501C16.9345 14.2163 16.4734 14.0624 15.9995 14.0625H6.35062L6.12328 12.8125H16.7278C17.0206 12.8126 17.3041 12.7099 17.5289 12.5223C17.7537 12.3347 17.9054 12.0742 17.9577 11.7861ZM7.56195 16.25C7.56195 16.4354 7.50697 16.6167 7.40395 16.7708C7.30094 16.925 7.15452 17.0452 6.98322 17.1161C6.81191 17.1871 6.62341 17.2057 6.44155 17.1695C6.2597 17.1333 6.09265 17.044 5.96154 16.9129C5.83043 16.7818 5.74114 16.6148 5.70496 16.4329C5.66879 16.251 5.68736 16.0625 5.75831 15.8912C5.82927 15.7199 5.94943 15.5735 6.1036 15.4705C6.25778 15.3675 6.43903 15.3125 6.62445 15.3125C6.87301 15.3128 7.11131 15.4116 7.28707 15.5874C7.46282 15.7631 7.56168 16.0014 7.56195 16.25ZM16.937 16.25C16.937 16.4354 16.882 16.6167 16.779 16.7708C16.6759 16.925 16.5295 17.0452 16.3582 17.1161C16.1869 17.1871 15.9984 17.2057 15.8166 17.1695C15.6347 17.1333 15.4677 17.044 15.3365 16.9129C15.2054 16.7818 15.1161 16.6148 15.08 16.4329C15.0438 16.251 15.0624 16.0625 15.1333 15.8912C15.2043 15.7199 15.3244 15.5735 15.4786 15.4705C15.6328 15.3675 15.814 15.3125 15.9995 15.3125C16.248 15.3128 16.4863 15.4116 16.6621 15.5874C16.8378 15.7631 16.9367 16.0014 16.937 16.25ZM4.87336 5.9375H17.7505L16.7279 11.5625H5.89601L4.87336 5.9375Z" fill="white"/>
</svg>
