<svg width="24" height="24" viewBox="0 0 24 24" fill="none" xmlns="http://www.w3.org/2000/svg">
<path fill-rule="evenodd" clip-rule="evenodd" d="M20.7273 12C20.7273 12 17.4546 6 12 6C6.54546 6 3.27274 12 3.27274 12C3.27274 12 6.54546 18 12 18C17.4546 18 20.7273 12 20.7273 12ZM4.55237 12C5.07985 12.8017 5.68653 13.5483 6.36328 14.2287C7.76728 15.6349 9.68728 16.9091 12 16.9091C14.3127 16.9091 16.2316 15.6349 17.6378 14.2287C18.3146 13.5483 18.9213 12.8017 19.4487 12C18.9213 11.1983 18.3146 10.4517 17.6378 9.77127C16.2316 8.36509 14.3116 7.09091 12 7.09091C9.68728 7.09091 7.76837 8.36509 6.36219 9.77127C5.68543 10.4517 5.07875 11.1983 4.55128 12H4.55237Z" fill="#4872F2"/>
<path fill-rule="evenodd" clip-rule="evenodd" d="M11.9999 9.27273C11.2766 9.27273 10.5829 9.56007 10.0714 10.0715C9.55998 10.583 9.27264 11.2767 9.27264 12C9.27264 12.7233 9.55998 13.417 10.0714 13.9285C10.5829 14.4399 11.2766 14.7273 11.9999 14.7273C12.7232 14.7273 13.4169 14.4399 13.9284 13.9285C14.4398 13.417 14.7272 12.7233 14.7272 12C14.7272 11.2767 14.4398 10.583 13.9284 10.0715C13.4169 9.56007 12.7232 9.27273 11.9999 9.27273ZM8.18173 12C8.18173 10.9874 8.584 10.0162 9.30005 9.30014C10.0161 8.5841 10.9873 8.18182 11.9999 8.18182C13.0126 8.18182 13.9837 8.5841 14.6998 9.30014C15.4158 10.0162 15.8181 10.9874 15.8181 12C15.8181 13.0127 15.4158 13.9838 14.6998 14.6999C13.9837 15.4159 13.0126 15.8182 11.9999 15.8182C10.9873 15.8182 10.0161 15.4159 9.30005 14.6999C8.584 13.9838 8.18173 13.0127 8.18173 12Z" fill="#4872F2"/>
</svg>
