<svg width="20" height="20" viewBox="0 0 20 20" fill="none" xmlns="http://www.w3.org/2000/svg">
<path fill-rule="evenodd" clip-rule="evenodd" d="M3 2.53573C3 2.39364 3.05673 2.25738 3.15771 2.15691C3.25869 2.05644 3.39565 2 3.53846 2H16.4615C16.6043 2 16.7413 2.05644 16.8423 2.15691C16.9433 2.25738 17 2.39364 17 2.53573V4.67864C17 4.81076 16.9509 4.93821 16.8622 5.03651L12.1538 10.2417V15.3932C12.1538 15.5056 12.1181 15.6151 12.052 15.7063C11.986 15.7974 11.8927 15.8656 11.7855 15.9011L8.55477 16.9725C8.47386 16.9994 8.38772 17.0067 8.30342 16.9939C8.21912 16.9811 8.13908 16.9485 8.06988 16.899C8.00069 16.8494 7.94433 16.7841 7.90543 16.7086C7.86654 16.6331 7.84622 16.5495 7.84615 16.4647V10.2417L3.13785 5.03651C3.04912 4.93821 3.00002 4.81076 3 4.67864V2.53573ZM4.07692 3.07146V4.47292L8.78523 9.67807C8.87396 9.77636 8.92305 9.90381 8.92308 10.0359V15.7211L11.0769 15.0075V10.0359C11.0769 9.90381 11.126 9.77636 11.2148 9.67807L15.9231 4.47292V3.07146H4.07692Z" fill="#B9B9B9"/>
</svg>
