<svg width="20" height="20" viewBox="0 0 20 20" fill="none" xmlns="http://www.w3.org/2000/svg">
<path fill-rule="evenodd" clip-rule="evenodd" d="M3.14286 7.75V17.3125C3.14286 17.4617 3.20306 17.6048 3.31022 17.7102C3.41739 17.8157 3.56273 17.875 3.71429 17.875H16.2857C16.4373 17.875 16.5826 17.8157 16.6898 17.7102C16.7969 17.6048 16.8571 17.4617 16.8571 17.3125V7.75H18V17.3125C18 17.7601 17.8194 18.1893 17.4979 18.5057C17.1764 18.8222 16.7404 19 16.2857 19H3.71429C3.25963 19 2.82359 18.8222 2.5021 18.5057C2.18061 18.1893 2 17.7601 2 17.3125V7.75H3.14286ZM12.2857 2.125C11.8311 2.125 11.395 2.30279 11.0735 2.61926C10.752 2.93572 10.5714 3.36495 10.5714 3.8125C10.5714 3.92275 10.6091 3.9925 10.7086 4.06787C10.8263 4.159 11.0194 4.23662 11.2686 4.29288C11.5877 4.35982 11.914 4.38741 12.24 4.375H12.2571L12.2857 4.37388L12.3143 4.37612H12.3303C12.427 4.38046 12.5239 4.38009 12.6206 4.375C12.8149 4.36825 13.0629 4.34575 13.304 4.29288C13.552 4.23888 13.7451 4.16013 13.864 4.069C13.9623 3.99475 14 3.92275 14 3.81362C14.0002 3.59192 13.9559 3.37237 13.8698 3.1675C13.7838 2.96263 13.6575 2.77647 13.4983 2.61966C13.3391 2.46284 13.1501 2.33844 12.942 2.25356C12.7339 2.16869 12.5109 2.125 12.2857 2.125ZM12.2857 5.5H12.2789C12.1547 5.50564 12.0304 5.50564 11.9063 5.5C11.6076 5.48947 11.3104 5.45295 11.0183 5.39088C10.6949 5.32 10.3166 5.194 10.0069 4.95775C9.8257 4.82513 9.67891 4.65228 9.57843 4.45328C9.47794 4.25427 9.4266 4.03472 9.42857 3.8125C9.42857 3.06658 9.72959 2.35121 10.2654 1.82376C10.8012 1.29632 11.528 1 12.2857 1C13.0435 1 13.7702 1.29632 14.306 1.82376C14.8418 2.35121 15.1429 3.06658 15.1429 3.8125C15.1429 4.32325 14.8949 4.70462 14.5646 4.95662C14.256 5.19287 13.8766 5.31887 13.5531 5.38975C13.139 5.47868 12.7151 5.5161 12.2914 5.50112H12.2857V5.5Z" fill="white"/>
<path fill-rule="evenodd" clip-rule="evenodd" d="M8.00003 2.125C7.52264 2.125 7.06481 2.30279 6.72725 2.61926C6.38969 2.93572 6.20005 3.36495 6.20005 3.8125C6.20005 3.92275 6.23965 3.9925 6.34404 4.06787C6.46764 4.159 6.67044 4.23662 6.93204 4.29288C7.26708 4.35982 7.60971 4.38741 7.95203 4.375H7.97003L8.00003 4.37388L8.03003 4.37612H8.04683L8.11043 4.37725C8.43232 4.37999 8.75365 4.35134 9.06922 4.29175C9.32962 4.23775 9.53241 4.159 9.65721 4.06787C9.76041 3.99362 9.80001 3.92162 9.80001 3.8125C9.80001 3.36495 9.61037 2.93572 9.27281 2.61926C8.93525 2.30279 8.47741 2.125 8.00003 2.125ZM8.00003 5.5H7.99283C7.8625 5.50564 7.73196 5.50564 7.60163 5.5C7.28801 5.48947 6.976 5.45295 6.66924 5.39088C6.32964 5.32 5.93245 5.194 5.60725 4.95775C5.41704 4.82513 5.26292 4.65228 5.15741 4.45328C5.0519 4.25427 4.99798 4.03472 5.00006 3.8125C5.00006 3.06658 5.31613 2.35121 5.87873 1.82376C6.44133 1.29632 7.20439 1 8.00003 1C8.79567 1 9.55873 1.29632 10.1213 1.82376C10.6839 2.35121 11 3.06658 11 3.8125C11 4.32325 10.7396 4.70462 10.3928 4.95662C10.0688 5.19287 9.67041 5.31887 9.33082 5.38975C8.89632 5.47857 8.45166 5.51599 8.00723 5.50112H8.00003V5.5ZM9.80001 19V7.75H11V19H9.80001Z" fill="white"/>
<path fill-rule="evenodd" clip-rule="evenodd" d="M17.875 5.33333H2.125V6.66667H17.875V5.33333ZM2.125 4C1.82663 4 1.54048 4.14048 1.3295 4.39052C1.11853 4.64057 1 4.97971 1 5.33333L1 6.66667C1 7.02029 1.11853 7.35943 1.3295 7.60948C1.54048 7.85952 1.82663 8 2.125 8H17.875C18.1734 8 18.4595 7.85952 18.6705 7.60948C18.8815 7.35943 19 7.02029 19 6.66667V5.33333C19 4.97971 18.8815 4.64057 18.6705 4.39052C18.4595 4.14048 18.1734 4 17.875 4H2.125Z" fill="white"/>
</svg>
