<svg width="20" height="20" viewBox="0 0 20 20" fill="none" xmlns="http://www.w3.org/2000/svg">
<path fill-rule="evenodd" clip-rule="evenodd" d="M10.0001 4.45605L9.17849 3.59622C7.24999 1.57789 3.71384 2.27439 2.43735 4.81188C1.83806 6.00537 1.70285 7.72854 2.79715 9.9277C3.85135 12.0452 6.04454 14.5815 10.0001 17.3442C13.9556 14.5815 16.1477 12.0452 17.203 9.9277C18.2973 7.72737 18.1632 6.00537 17.5628 4.81188C16.2863 2.27439 12.7502 1.57672 10.8217 3.59505L10.0001 4.45605ZM10.0001 18.75C-7.56952 6.92937 4.59043 -2.2966 9.79841 2.58355C9.86716 2.64772 9.93476 2.71422 10.0001 2.78305C10.0647 2.71428 10.132 2.64812 10.2018 2.58472C15.4086 -2.29893 27.5697 6.92821 10.0001 18.75Z" fill="white" stroke="white" stroke-width="0.3"/>
</svg>
