<svg width="20" height="20" viewBox="0 0 20 20" fill="none" xmlns="http://www.w3.org/2000/svg">
<path d="M14.5335 11.515H14.5242L15.2646 10.3602C15.9076 9.35737 16.2495 8.19123 16.25 7L14.5335 11.515ZM14.5335 11.515L10.2104 18.2782C10.1105 18.4346 9.88726 18.4316 9.79063 18.2804C8.76797 16.6811 6.98988 13.9 5.46608 11.515H5.47405L4.73705 10.3613C4.11513 9.38765 3.75 8.23676 3.75 7C3.75 6.17924 3.91166 5.36651 4.22575 4.60823C4.53984 3.84994 5.00022 3.16095 5.58058 2.58058C6.16095 2.00022 6.84994 1.53984 7.60823 1.22575C8.36651 0.911661 9.17924 0.75 10 0.75C10.8208 0.75 11.6335 0.911661 12.3918 1.22575C13.1501 1.53984 13.8391 2.00022 14.4194 2.58058C14.9998 3.16095 15.4602 3.84994 15.7743 4.60823C16.0883 5.36644 16.25 6.17908 16.25 6.99976L14.5335 11.515Z" stroke="#B9B9B9" stroke-width="1.5"/>
<path d="M12.523 7.08354C12.523 8.47695 11.3935 9.60654 10 9.60654C8.60663 9.60654 7.47705 8.47695 7.47705 7.08354C7.47705 5.69013 8.60663 4.56055 10 4.56055C11.3935 4.56055 12.523 5.69013 12.523 7.08354Z" stroke="#B9B9B9" stroke-width="1.5"/>
</svg>
