<svg width="10" height="11" viewBox="0 0 10 11" fill="none" xmlns="http://www.w3.org/2000/svg">
<mask id="mask0" mask-type="alpha" maskUnits="userSpaceOnUse" x="0" y="0" width="10" height="11">
<path fill-rule="evenodd" clip-rule="evenodd" d="M0.00976562 0H9.96679V10.6034H0.00976562V0Z" fill="white"/>
</mask>
<g mask="url(#mask0)">
<path fill-rule="evenodd" clip-rule="evenodd" d="M5.48342 5.64419L1.17377 10.3708L6.92233 7.22197L5.48342 5.64419ZM7.31841 3.62841L5.78239 5.31056L7.32549 6.9996L9.42459 5.84568C9.81448 5.62703 9.96679 5.52531 9.96679 5.31745C9.96679 5.10924 9.81448 5.00788 9.42459 4.78923L7.31841 3.62841ZM1.18775 0.257213L5.47652 4.97692L6.90836 3.40604L1.18775 0.257213ZM-0.00084877 0.62552V10.0023C-0.00084877 10.3253 0.122982 10.545 0.339685 10.614L5.17756 5.30348L0.346761 0C0.127227 0.0668684 -0.00084877 0.300023 -0.00084877 0.62552Z" fill="#3C3C3C"/>
</g>
</svg>
