<svg width="10" height="11" viewBox="0 0 10 11" fill="none" xmlns="http://www.w3.org/2000/svg">
<mask id="mask0" mask-type="alpha" maskUnits="userSpaceOnUse" x="0" y="0" width="10" height="11">
<path fill-rule="evenodd" clip-rule="evenodd" d="M0.00195313 0H9.15038V10.8613H0.00195313V0Z" fill="white"/>
</mask>
<g mask="url(#mask0)">
<path fill-rule="evenodd" clip-rule="evenodd" d="M6.86249 0.217321C6.86249 0.760595 6.66401 1.26786 6.26838 1.73738C5.79097 2.29554 5.2135 2.61807 4.58728 2.56717C4.5793 2.50199 4.57466 2.43339 4.57466 2.36131C4.57466 1.83976 4.80172 1.28161 5.2049 0.825238C5.40621 0.594167 5.66222 0.402024 5.97267 0.24878C6.28246 0.0977976 6.57549 0.0142857 6.85109 0C6.85913 0.0726191 6.86249 0.145268 6.86249 0.217321ZM8.95859 8.46565C8.7943 8.84518 8.59984 9.19452 8.37454 9.51571C8.06746 9.95357 7.816 10.2567 7.62222 10.425C7.32181 10.7012 6.99993 10.8427 6.65529 10.8508C6.40785 10.8508 6.10945 10.7804 5.76213 10.6375C5.41365 10.4954 5.09338 10.425 4.80055 10.425C4.49347 10.425 4.1641 10.4954 3.81177 10.6375C3.45895 10.7804 3.17472 10.8548 2.9574 10.8622C2.62686 10.8763 2.29743 10.7307 1.96862 10.425C1.75874 10.2419 1.49621 9.9281 1.18172 9.48354C0.844305 9.00878 0.566894 8.45827 0.349602 7.83065C0.116835 7.15274 0.000167847 6.49628 0.000167847 5.86074C0.000167847 5.13274 0.157489 4.50482 0.472549 3.97866C0.720198 3.55601 1.04963 3.22262 1.46195 2.97789C1.87427 2.73313 2.31978 2.60842 2.79954 2.60042C3.06204 2.60042 3.4063 2.68164 3.83413 2.84122C4.2607 3.00134 4.53463 3.08256 4.65472 3.08256C4.74451 3.08256 5.0488 2.98759 5.56466 2.7983C6.05246 2.62277 6.46419 2.55006 6.80148 2.57869C7.71541 2.65247 8.40204 3.01274 8.85868 3.66182C8.0413 4.15708 7.63695 4.85077 7.64499 5.74063C7.65237 6.43378 7.90383 7.01057 8.39802 7.46854C8.62198 7.68113 8.8721 7.84539 9.15038 7.96208C9.09002 8.13708 9.02633 8.30473 8.95859 8.46565Z" fill="#3C3C3C"/>
</g>
</svg>
