<svg width="18" height="18" viewBox="0 0 18 18" fill="none" xmlns="http://www.w3.org/2000/svg">
<path fill-rule="evenodd" clip-rule="evenodd" d="M3.01275 13.0774C3.12952 13.1967 3.219 13.3408 3.27481 13.4994C3.33062 13.6579 3.35138 13.8271 3.33562 13.9947C3.25656 14.7707 3.10666 15.5375 2.88787 16.2852C4.45725 15.9153 5.41575 15.487 5.85113 15.2625C6.09807 15.1352 6.38245 15.105 6.64987 15.1778C7.41649 15.3858 8.20661 15.4906 9 15.4893C13.4955 15.4893 16.875 12.2746 16.875 8.6178C16.875 4.96217 13.4955 1.74632 9 1.74632C4.5045 1.74632 1.125 4.96217 1.125 8.6178C1.125 10.299 1.81912 11.8588 3.01275 13.0774ZM2.45812 17.5496C2.19158 17.6034 1.92416 17.6526 1.656 17.6973C1.431 17.734 1.26 17.4958 1.34888 17.2827C1.44877 17.0429 1.54032 16.7996 1.62337 16.5532L1.62675 16.5418C1.90575 15.7172 2.133 14.7689 2.21625 13.8859C0.835875 12.4773 0 10.6334 0 8.6178C0 4.19028 4.02975 0.601074 9 0.601074C13.9703 0.601074 18 4.19028 18 8.6178C18 13.0453 13.9703 16.6345 9 16.6345C8.10861 16.6357 7.22091 16.5179 6.35962 16.2841C5.77462 16.5853 4.51575 17.1339 2.45812 17.5496Z" fill="#737373"/>
<path d="M5.625 8.6179C5.625 8.92164 5.50647 9.21294 5.29549 9.42771C5.08452 9.64249 4.79837 9.76315 4.5 9.76315C4.20163 9.76315 3.91548 9.64249 3.7045 9.42771C3.49353 9.21294 3.375 8.92164 3.375 8.6179C3.375 8.31416 3.49353 8.02287 3.7045 7.80809C3.91548 7.59332 4.20163 7.47266 4.5 7.47266C4.79837 7.47266 5.08452 7.59332 5.29549 7.80809C5.50647 8.02287 5.625 8.31416 5.625 8.6179ZM10.125 8.6179C10.125 8.92164 10.0065 9.21294 9.7955 9.42771C9.58452 9.64249 9.29837 9.76315 9 9.76315C8.70163 9.76315 8.41548 9.64249 8.2045 9.42771C7.99353 9.21294 7.875 8.92164 7.875 8.6179C7.875 8.31416 7.99353 8.02287 8.2045 7.80809C8.41548 7.59332 8.70163 7.47266 9 7.47266C9.29837 7.47266 9.58452 7.59332 9.7955 7.80809C10.0065 8.02287 10.125 8.31416 10.125 8.6179ZM14.625 8.6179C14.625 8.92164 14.5065 9.21294 14.2955 9.42771C14.0845 9.64249 13.7984 9.76315 13.5 9.76315C13.2016 9.76315 12.9155 9.64249 12.7045 9.42771C12.4935 9.21294 12.375 8.92164 12.375 8.6179C12.375 8.31416 12.4935 8.02287 12.7045 7.80809C12.9155 7.59332 13.2016 7.47266 13.5 7.47266C13.7984 7.47266 14.0845 7.59332 14.2955 7.80809C14.5065 8.02287 14.625 8.31416 14.625 8.6179Z" fill="#737373"/>
</svg>
