<svg width="20" height="20" viewBox="0 0 20 20" fill="none" xmlns="http://www.w3.org/2000/svg">
<path d="M18 9.90163C18 13.9233 15.7578 17.6737 12.1533 19.6832C10.9891 20.3365 9.49042 19.9458 8.8202 18.8197C8.14742 17.6898 8.54621 16.2489 9.7104 15.5932C11.8111 14.4222 13.1142 12.2422 13.1142 9.90163C13.1142 7.6407 11.941 5.56766 9.96897 4.35071C8.83436 3.65265 8.49861 2.18932 9.22542 1.09059C9.95224 -0.00690467 11.4586 -0.330433 12.5971 0.370119C15.979 2.45933 18 6.02059 18 9.90163Z" fill="#FECD1C"/>
<path d="M-1.08347e-07 14.7835C-4.85713e-08 16.151 1.14846 17.2622 2.56343 17.2622C3.97839 17.2622 5.13199 16.151 5.13199 14.7835C5.13199 13.416 3.97839 12.3023 2.56343 12.3023C1.14846 12.3023 -1.68123e-07 13.416 -1.08347e-07 14.7835Z" fill="#FECD1C"/>
<path d="M-1.0851e-07 5.03565C-4.87341e-08 6.40316 1.14846 7.51807 2.56343 7.51807C3.97839 7.51807 5.13199 6.40316 5.13199 5.03565C5.13199 3.66814 3.97839 2.55571 2.56343 2.55571C1.14846 2.55571 -1.68286e-07 3.66814 -1.0851e-07 5.03565Z" fill="#FECD1C"/>
</svg>
