<svg width="18" height="18" viewBox="0 0 18 18" fill="none" xmlns="http://www.w3.org/2000/svg">
<g clip-path="url(#clip0)">
<path fill-rule="evenodd" clip-rule="evenodd" d="M6.02328 5.75887L8.48028 0.891C8.52747 0.793073 8.6012 0.710362 8.69309 0.652286C8.78498 0.594209 8.89133 0.5631 9.00003 0.5625C9.2059 0.5625 9.41178 0.671625 9.52315 0.891L11.9802 5.75887L17.4904 6.54187C17.6278 6.56347 17.7535 6.63177 17.8463 6.73527C17.9391 6.83877 17.9934 6.97112 18 7.11C18.0077 7.20245 17.9945 7.29544 17.9614 7.38209C17.9283 7.46875 17.8761 7.54685 17.8088 7.61062L13.8454 11.3861L14.7792 16.7074C14.8669 17.2057 14.3742 17.5961 13.9399 17.3734L9.00003 14.8354L4.0624 17.3734C4.01076 17.4002 3.9554 17.4192 3.89815 17.4296C3.51453 17.4971 3.14665 17.1439 3.22315 16.7074L4.1569 11.3861L0.194653 7.61062C0.133258 7.55225 0.0845049 7.48189 0.0514137 7.4039C0.0183225 7.32592 0.00159863 7.24196 0.00227821 7.15725C0.00256698 7.03755 0.0352195 6.92016 0.0967782 6.8175C0.141102 6.74333 0.201514 6.68006 0.273558 6.63235C0.345602 6.58465 0.427438 6.55373 0.513028 6.54187L6.02328 5.75887ZM9.00003 13.5304C9.09003 13.5304 9.18003 13.5506 9.26103 13.5934L13.4078 15.7241L12.627 11.2725C12.6086 11.17 12.6157 11.0646 12.6477 10.9655C12.6797 10.8664 12.7356 10.7768 12.8104 10.7044L16.0797 7.58812L11.5212 6.94012C11.4268 6.92587 11.3372 6.88895 11.2602 6.83252C11.1832 6.77609 11.1211 6.70184 11.079 6.61613L9.00228 2.50087L9.00003 2.50425V13.5293V13.5304Z" fill="#FFE100"/>
</g>
<defs>
<clipPath id="clip0">
<rect width="18" height="18" fill="white"/>
</clipPath>
</defs>
</svg>
