<svg width="20" height="20" viewBox="0 0 20 20" fill="none" xmlns="http://www.w3.org/2000/svg">
<path d="M10.938 2L10.4521 3.0961L6.97752 10.9246L5.95676 9.65948L5.60514 10.3845L2.48321 16.8336L2 17.8333H18.6667L18.3481 16.9122L16.7498 12.2901L16.4398 11.3941L15.338 12.7596L11.394 3.11591L10.9385 2H10.938ZM10.8991 4.8274L12.5187 8.78656L12.1063 9.225L10.8917 7.93544L9.67751 9.225L9.18205 8.69742L10.8991 4.8274ZM10.8922 9.67401L12.1069 10.9636L13.0136 9.99953L14.7184 14.1693L15.0498 14.9835L16.0791 13.7078L17.0487 16.5127H3.88115C4.64299 14.9379 5.40589 13.3631 6.16826 11.7889L7.22738 13.1016L7.56941 12.3317C7.93221 11.5143 8.29555 10.6975 8.65782 9.88002L9.67751 10.9629L10.8922 9.67401Z" fill="#4872F2"/>
</svg>
