<svg width="20" height="20" viewBox="0 0 20 20" fill="none" xmlns="http://www.w3.org/2000/svg">
<path d="M14.5443 7.76351C14.5443 9.00591 14.1374 9.95806 13.3236 10.62C12.5098 11.2818 11.3515 11.6128 9.84865 11.6128H8.61167V16.0643H6.66669V4.1665H10.0928C11.5793 4.1665 12.6915 4.47032 13.4294 5.07796C14.1727 5.6856 14.5443 6.58078 14.5443 7.76351ZM8.61167 9.97705H9.6452C10.6435 9.97705 11.3759 9.80344 11.8425 9.45622C12.309 9.109 12.5423 8.56646 12.5423 7.82861C12.5423 7.14502 12.3335 6.63504 11.9157 6.29867C11.498 5.96229 10.8469 5.79411 9.96259 5.79411H8.61167V9.97705Z" fill="#4872F2"/>
</svg>
