<svg width="24" height="24" viewBox="0 0 24 24" fill="none" xmlns="http://www.w3.org/2000/svg">
<path fill-rule="evenodd" clip-rule="evenodd" d="M0 12C0 5.373 5.373 0 12 0C18.627 0 24 5.373 24 12C24 18.627 18.627 24 12 24C5.373 24 0 18.627 0 12ZM13.658 4.80397C13.2112 4.80458 12.7636 4.80518 12.3146 4.81215L12.315 4.8126C12.3032 6.35933 12.304 7.90644 12.3047 9.45546C12.3052 10.3212 12.3056 11.1876 12.3038 12.0548C12.3019 12.3456 12.3022 12.6361 12.3025 12.9264C12.3033 13.7076 12.304 14.4878 12.2612 15.2703C12.2549 15.4874 12.1463 15.6783 12.0407 15.8637C12.0323 15.8785 12.0239 15.8932 12.0156 15.9079C11.6673 16.4772 11.0267 16.866 10.3583 16.8732C9.35 16.9628 8.4055 16.1352 8.2632 15.1505C8.26213 15.1023 8.26042 15.0537 8.25871 15.005C8.24898 14.7273 8.23905 14.444 8.34445 14.1852C8.49443 13.755 8.78135 13.3861 9.16101 13.1353C9.67995 12.774 10.374 12.72 10.9679 12.9126C10.9679 12.533 10.9743 12.1536 10.9808 11.7742C10.9895 11.2653 10.9982 10.7563 10.9912 10.2471C9.69117 10.0032 8.3027 10.4154 7.31151 11.2808C6.43704 12.0238 5.87366 13.116 5.76592 14.2577C5.7551 14.5553 5.7575 14.8532 5.7731 15.1505C5.897 16.5546 6.74768 17.8628 7.95659 18.5775C8.68607 19.0086 9.54124 19.2426 10.3973 19.1936C11.793 19.1702 13.1518 18.42 13.9347 17.2693C14.4213 16.578 14.6974 15.7432 14.7441 14.9044C14.7562 13.752 14.7555 12.5975 14.7547 11.4417C14.7543 10.8461 14.7539 10.2502 14.7553 9.65396C15.0664 9.85782 15.3842 10.0572 15.7254 10.212C16.5087 10.5846 17.376 10.7646 18.2393 10.793V8.37679C17.3181 8.27373 16.3714 7.96907 15.7021 7.30348C15.0314 6.6541 14.7019 5.7185 14.6547 4.8C14.3227 4.80307 13.9906 4.80352 13.658 4.80397Z" fill="#3C3C3C"/>
</svg>
