<svg width="20" height="20" viewBox="0 0 20 20" fill="none" xmlns="http://www.w3.org/2000/svg">
<path fill-rule="evenodd" clip-rule="evenodd" d="M14.5574 14.1925C14.4992 14.1344 14.453 14.0655 14.4215 13.9895C14.39 13.9136 14.3738 13.8322 14.3738 13.75C14.3738 13.6678 14.39 13.5864 14.4215 13.5104C14.453 13.4345 14.4992 13.3655 14.5574 13.3075L17.8661 9.99999L14.5574 6.69249C14.44 6.57513 14.3741 6.41596 14.3741 6.24999C14.3741 6.08402 14.44 5.92485 14.5574 5.80749C14.6748 5.69013 14.8339 5.6242 14.9999 5.6242C15.1659 5.6242 15.325 5.69013 15.4424 5.80749L19.1924 9.55749C19.2506 9.61555 19.2968 9.68452 19.3283 9.76045C19.3598 9.83638 19.376 9.91778 19.376 9.99999C19.376 10.0822 19.3598 10.1636 19.3283 10.2395C19.2968 10.3155 19.2506 10.3844 19.1924 10.4425L15.4424 14.1925C15.3843 14.2507 15.3154 14.2969 15.2394 14.3284C15.1635 14.3599 15.0821 14.3761 14.9999 14.3761C14.9177 14.3761 14.8363 14.3599 14.7604 14.3284C14.6844 14.2969 14.6155 14.2507 14.5574 14.1925Z" fill="#4872F2"/>
<path fill-rule="evenodd" clip-rule="evenodd" d="M5.625 10C5.625 9.83424 5.69085 9.67527 5.80806 9.55806C5.92527 9.44085 6.08424 9.375 6.25 9.375H17.5C17.6658 9.375 17.8247 9.44085 17.9419 9.55806C18.0592 9.67527 18.125 9.83424 18.125 10C18.125 10.1658 18.0592 10.3247 17.9419 10.4419C17.8247 10.5592 17.6658 10.625 17.5 10.625H6.25C6.08424 10.625 5.92527 10.5592 5.80806 10.4419C5.69085 10.3247 5.625 10.1658 5.625 10Z" fill="#4872F2"/>
<path fill-rule="evenodd" clip-rule="evenodd" d="M2.5 16.875C2.00272 16.875 1.52581 16.6775 1.17417 16.3258C0.822544 15.9742 0.625 15.4973 0.625 15V5C0.625 4.50272 0.822544 4.02581 1.17417 3.67417C1.52581 3.32254 2.00272 3.125 2.5 3.125H11.25C11.7473 3.125 12.2242 3.32254 12.5758 3.67417C12.9275 4.02581 13.125 4.50272 13.125 5V6.875C13.125 7.04076 13.0592 7.19973 12.9419 7.31694C12.8247 7.43415 12.6658 7.5 12.5 7.5C12.3342 7.5 12.1753 7.43415 12.0581 7.31694C11.9408 7.19973 11.875 7.04076 11.875 6.875V5C11.875 4.83424 11.8092 4.67527 11.6919 4.55806C11.5747 4.44085 11.4158 4.375 11.25 4.375H2.5C2.33424 4.375 2.17527 4.44085 2.05806 4.55806C1.94085 4.67527 1.875 4.83424 1.875 5V15C1.875 15.1658 1.94085 15.3247 2.05806 15.4419C2.17527 15.5592 2.33424 15.625 2.5 15.625H11.25C11.4158 15.625 11.5747 15.5592 11.6919 15.4419C11.8092 15.3247 11.875 15.1658 11.875 15V13.125C11.875 12.9592 11.9408 12.8003 12.0581 12.6831C12.1753 12.5658 12.3342 12.5 12.5 12.5C12.6658 12.5 12.8247 12.5658 12.9419 12.6831C13.0592 12.8003 13.125 12.9592 13.125 13.125V15C13.125 15.4973 12.9275 15.9742 12.5758 16.3258C12.2242 16.6775 11.7473 16.875 11.25 16.875H2.5Z" fill="#4872F2"/>
</svg>
