<svg width="20" height="20" viewBox="0 0 20 20" fill="none" xmlns="http://www.w3.org/2000/svg">
<path fill-rule="evenodd" clip-rule="evenodd" d="M4.0175 1.33999C6.01625 0.939988 8.645 0.887487 10.4425 2.68249C10.5005 2.74064 10.5465 2.80965 10.5778 2.88557C10.6091 2.9615 10.6251 3.04286 10.625 3.12499V16.875C10.6252 16.9988 10.5887 17.1198 10.52 17.2228C10.4514 17.3258 10.3537 17.4061 10.2393 17.4535C10.125 17.5009 9.99915 17.5132 9.87776 17.489C9.75638 17.4648 9.64491 17.4051 9.5575 17.3175C8.50375 16.2625 6.91375 15.9937 5.22 16.1675C3.54 16.3425 1.895 16.9387 0.905 17.4337C0.809714 17.4815 0.7038 17.5041 0.597324 17.4994C0.490849 17.4946 0.387349 17.4628 0.296661 17.4068C0.205973 17.3508 0.13111 17.2725 0.079186 17.1795C0.0272624 17.0864 3.57642e-06 16.9816 0 16.875L0 3.12499C3.89167e-06 3.00901 0.0322754 2.89533 0.0932043 2.79665C0.154133 2.69797 0.241316 2.61819 0.345 2.56624L0.625 3.12499L0.345 2.56624L0.3475 2.56499L0.3525 2.56249L0.36875 2.55499C0.459364 2.50986 0.551058 2.46693 0.64375 2.42624C1.72561 1.94175 2.85739 1.57748 4.01875 1.33999H4.0175ZM1.25 3.52499V15.91C2.3075 15.4812 3.68 15.07 5.0925 14.925C6.52125 14.7775 8.07625 14.8962 9.375 15.625V3.39749C8.04625 2.23624 6.08625 2.20249 4.2625 2.56749C3.22731 2.77928 2.2175 3.10024 1.25 3.52499Z" fill="#4872F2"/>
<path fill-rule="evenodd" clip-rule="evenodd" d="M15.9825 1.33999C13.985 0.939988 11.355 0.887487 9.5575 2.68249C9.4995 2.74064 9.45353 2.80965 9.42221 2.88557C9.3909 2.9615 9.37485 3.04286 9.375 3.12499V16.875C9.37478 16.9988 9.41131 17.1198 9.47998 17.2228C9.54864 17.3258 9.64633 17.4061 9.76067 17.4535C9.87501 17.5009 10.0009 17.5132 10.1222 17.489C10.2436 17.4648 10.3551 17.4051 10.4425 17.3175C11.4963 16.2625 13.0863 15.9937 14.78 16.1675C16.46 16.3425 18.105 16.9387 19.095 17.4337C19.1903 17.4815 19.2962 17.5041 19.4027 17.4994C19.5092 17.4946 19.6127 17.4628 19.7033 17.4068C19.794 17.3508 19.8689 17.2725 19.9208 17.1795C19.9727 17.0864 20 16.9816 20 16.875V3.12499C20 3.00901 19.9677 2.89533 19.9068 2.79665C19.8459 2.69797 19.7587 2.61819 19.655 2.56624L19.375 3.12499L19.655 2.56624L19.6525 2.56499L19.6475 2.56249L19.6313 2.55499L19.5725 2.52624C19.2446 2.37312 18.9115 2.23137 18.5738 2.10124C17.7327 1.7758 16.8659 1.52117 15.9825 1.33999ZM18.75 3.52499V15.91C17.6925 15.4812 16.32 15.07 14.9075 14.925C13.4788 14.7775 11.9238 14.8962 10.625 15.625V3.39749C11.9538 2.23624 13.9138 2.20249 15.7375 2.56749C16.7727 2.77926 17.7825 3.10022 18.75 3.52499Z" fill="#4872F2"/>
</svg>
