<svg width="20" height="20" viewBox="0 0 20 20" fill="none" xmlns="http://www.w3.org/2000/svg">
<path d="M16.9964 2.5H3.00394C1.80327 2.5 0.833496 3.49586 0.833496 4.71827V15.5595C0.833496 16.7866 1.80789 17.7778 3.00394 17.7778H16.9964C18.1971 17.7778 19.1668 16.7819 19.1668 15.5595V4.71827C19.1668 3.49114 18.1924 2.5 16.9964 2.5ZM1.79403 4.84099C1.79865 4.15191 2.30201 3.48642 2.98085 3.48642H17.0195C17.6937 3.48642 18.2017 4.15191 18.2017 4.84099V9.20674L12.6509 12.5342C12.1244 12.8598 11.4502 12.7985 10.9884 12.3878L8.2361 9.92414C7.39101 9.16898 6.14416 9.11707 5.24366 9.80143L1.79403 12.3642V4.84099ZM18.2063 15.4415C18.2017 16.1353 17.6983 16.8008 17.0195 16.8008H2.98085C2.30663 16.8008 1.79865 16.1353 1.79865 15.4462V13.5961L5.82552 10.5896C6.37044 10.1884 7.11393 10.2309 7.61267 10.6887L10.365 13.1288C11.1408 13.8132 12.2537 13.9218 13.1404 13.3979L18.2063 10.3395V15.4415Z" fill="#4872F2"/>
<path d="M11.5966 5.37756C10.3949 5.37756 9.42236 6.35013 9.42236 7.55181C9.42236 8.75349 10.3949 9.72606 11.5966 9.72606C12.7983 9.72606 13.7709 8.75349 13.7709 7.55181C13.7709 6.35013 12.7983 5.37756 11.5966 5.37756ZM11.5966 8.74881C10.9373 8.74881 10.3996 8.2111 10.3996 7.55181C10.3996 6.89252 10.9326 6.35481 11.5966 6.35481C12.2559 6.35481 12.7936 6.89252 12.7936 7.55181C12.7936 8.2111 12.2559 8.74881 11.5966 8.74881Z" fill="#4872F2"/>
</svg>
