<svg width="17" height="18" viewBox="0 0 17 18" fill="none" xmlns="http://www.w3.org/2000/svg">
<g clip-path="url(#clip0)">
<path fill-rule="evenodd" clip-rule="evenodd" d="M2.125 6.875V15.9062C2.125 16.0471 2.18097 16.1823 2.2806 16.2819C2.38023 16.3815 2.51535 16.4375 2.65625 16.4375H14.3438C14.4846 16.4375 14.6198 16.3815 14.7194 16.2819C14.819 16.1823 14.875 16.0471 14.875 15.9062V6.875H15.9375V15.9062C15.9375 16.3289 15.7696 16.7343 15.4707 17.0332C15.1718 17.3321 14.7664 17.5 14.3438 17.5H2.65625C2.23356 17.5 1.82818 17.3321 1.5293 17.0332C1.23041 16.7343 1.0625 16.3289 1.0625 15.9062V6.875H2.125ZM10.625 1.5625C10.2023 1.5625 9.79693 1.73041 9.49805 2.0293C9.19916 2.32818 9.03125 2.73356 9.03125 3.15625C9.03125 3.26038 9.06631 3.32625 9.15875 3.39744C9.26819 3.4835 9.44775 3.55681 9.67937 3.60994C9.97603 3.67317 10.2794 3.69922 10.5825 3.6875H10.5984L10.625 3.68644L10.6516 3.68856H10.6664C10.7564 3.69266 10.8464 3.6923 10.9363 3.6875C11.1169 3.68112 11.3475 3.65988 11.5717 3.60994C11.8022 3.55894 11.9818 3.48456 12.0923 3.3985C12.1837 3.32837 12.2188 3.26038 12.2188 3.15731C12.2189 2.94793 12.1778 2.74057 12.0977 2.54708C12.0177 2.3536 11.9003 2.17778 11.7523 2.02967C11.6043 1.88157 11.4286 1.76408 11.2351 1.68392C11.0417 1.60376 10.8344 1.5625 10.625 1.5625ZM10.625 4.75H10.6186C10.5032 4.75533 10.3876 4.75533 10.2723 4.75C9.99456 4.74005 9.7183 4.70557 9.44669 4.64694C9.146 4.58 8.79431 4.461 8.50637 4.23787C8.33796 4.11262 8.20149 3.94938 8.10807 3.76143C8.01465 3.57348 7.96691 3.36613 7.96875 3.15625C7.96875 2.45177 8.2486 1.77614 8.74675 1.278C9.24489 0.779854 9.92052 0.5 10.625 0.5C11.3295 0.5 12.0051 0.779854 12.5033 1.278C13.0014 1.77614 13.2812 2.45177 13.2812 3.15625C13.2812 3.63862 13.0507 3.99881 12.7436 4.23681C12.4568 4.45994 12.104 4.57894 11.8033 4.64587C11.4183 4.72986 11.0242 4.7652 10.6303 4.75106H10.625V4.75Z" fill="#4872F2"/>
<path fill-rule="evenodd" clip-rule="evenodd" d="M6.37505 1.5625C5.95236 1.5625 5.54699 1.73041 5.2481 2.0293C4.94921 2.32818 4.7813 2.73356 4.7813 3.15625C4.7813 3.26038 4.81636 3.32625 4.9088 3.39744C5.01824 3.4835 5.1978 3.55681 5.42943 3.60994C5.72608 3.67317 6.02946 3.69922 6.33255 3.6875H6.34849L6.37505 3.68644L6.40161 3.68856H6.41649L6.4728 3.68963C6.75781 3.69221 7.04232 3.66515 7.32174 3.60888C7.5523 3.55788 7.73186 3.4835 7.84236 3.39744C7.93374 3.32731 7.9688 3.25931 7.9688 3.15625C7.9688 2.73356 7.80089 2.32818 7.502 2.0293C7.20312 1.73041 6.79774 1.5625 6.37505 1.5625ZM6.37505 4.75H6.36868C6.25328 4.75533 6.1377 4.75533 6.0223 4.75C5.74461 4.74005 5.46835 4.70557 5.19674 4.64694C4.89605 4.58 4.54436 4.461 4.25643 4.23787C4.08801 4.11262 3.95154 3.94938 3.85812 3.76143C3.7647 3.57348 3.71697 3.36613 3.7188 3.15625C3.7188 2.45177 3.99866 1.77614 4.4968 1.278C4.99494 0.779854 5.67057 0.5 6.37505 0.5C7.07953 0.5 7.75516 0.779854 8.2533 1.278C8.75145 1.77614 9.0313 2.45177 9.0313 3.15625C9.0313 3.63862 8.80074 3.99881 8.49368 4.23681C8.2068 4.45994 7.85405 4.57894 7.55336 4.64587C7.16865 4.72976 6.77493 4.7651 6.38143 4.75106H6.37505V4.75ZM7.9688 17.5V6.875H9.0313V17.5H7.9688Z" fill="#4872F2"/>
<path fill-rule="evenodd" clip-rule="evenodd" d="M15.9375 4.75H1.0625V5.8125H15.9375V4.75ZM1.0625 3.6875C0.780707 3.6875 0.510456 3.79944 0.311199 3.9987C0.111942 4.19796 0 4.46821 0 4.75L0 5.8125C0 6.09429 0.111942 6.36454 0.311199 6.5638C0.510456 6.76306 0.780707 6.875 1.0625 6.875H15.9375C16.2193 6.875 16.4895 6.76306 16.6888 6.5638C16.8881 6.36454 17 6.09429 17 5.8125V4.75C17 4.46821 16.8881 4.19796 16.6888 3.9987C16.4895 3.79944 16.2193 3.6875 15.9375 3.6875H1.0625Z" fill="#4872F2"/>
</g>
<defs>
<clipPath id="clip0">
<rect width="17" height="17" fill="white" transform="translate(0 0.5)"/>
</clipPath>
</defs>
</svg>
