<svg width="20" height="20" viewBox="0 0 20 20" fill="none" xmlns="http://www.w3.org/2000/svg">
<path fill-rule="evenodd" clip-rule="evenodd" d="M12.0687 10H2.91625C2.58625 10 2.41875 10.085 2.3275 10.1513C2.20384 10.2484 2.10739 10.3759 2.0475 10.5212C1.9443 10.7541 1.88578 11.0043 1.875 11.2587V17.5C1.875 17.9275 1.97 18.1637 2.05 18.2938C2.13 18.4263 2.23875 18.5187 2.37 18.59C2.53895 18.6795 2.72441 18.7335 2.915 18.7487L2.93125 18.75H12.0837C12.4137 18.75 12.5812 18.665 12.6725 18.5987C12.7962 18.5016 12.8926 18.3741 12.9525 18.2288C13.0557 17.9959 13.1142 17.7457 13.125 17.4912V11.25C13.125 10.8225 13.03 10.5862 12.95 10.4562C12.8723 10.3307 12.7622 10.2283 12.6312 10.16C12.4571 10.0677 12.2654 10.0132 12.0687 10ZM12.0837 8.75H2.91625C0.625 8.75 0.625 11.25 0.625 11.25V17.5C0.625 20 2.91625 20 2.91625 20H12.0837C14.375 20 14.375 17.5 14.375 17.5V11.25C14.375 8.75 12.0837 8.75 12.0837 8.75ZM10.625 5C10.625 4.42547 10.7382 3.85656 10.958 3.32576C11.1779 2.79496 11.5002 2.31266 11.9064 1.90641C12.3127 1.50015 12.795 1.17789 13.3258 0.958027C13.8566 0.738163 14.4255 0.625 15 0.625C15.5745 0.625 16.1434 0.738163 16.6742 0.958027C17.205 1.17789 17.6873 1.50015 18.0936 1.90641C18.4998 2.31266 18.8221 2.79496 19.042 3.32576C19.2618 3.85656 19.375 4.42547 19.375 5V8.75H18.125V5C18.125 4.1712 17.7958 3.37634 17.2097 2.79029C16.6237 2.20424 15.8288 1.875 15 1.875C14.1712 1.875 13.3763 2.20424 12.7903 2.79029C12.2042 3.37634 11.875 4.1712 11.875 5V8.75H10.625V5Z" fill="#4872F2"/>
</svg>
