<svg width="20" height="20" viewBox="0 0 20 20" fill="none" xmlns="http://www.w3.org/2000/svg">
<path fill-rule="evenodd" clip-rule="evenodd" d="M5.44252 14.1925C5.50072 14.1344 5.5469 14.0655 5.57841 13.9895C5.60992 13.9136 5.62614 13.8322 5.62614 13.75C5.62614 13.6678 5.60992 13.5864 5.57841 13.5104C5.5469 13.4345 5.50072 13.3655 5.44252 13.3075L2.13377 9.99999L5.44252 6.69249C5.55988 6.57513 5.62581 6.41596 5.62581 6.24999C5.62581 6.08402 5.55988 5.92485 5.44252 5.80749C5.32516 5.69013 5.16599 5.6242 5.00002 5.6242C4.83405 5.6242 4.67488 5.69013 4.55752 5.80749L0.807519 9.55749C0.749315 9.61555 0.703136 9.68452 0.671628 9.76045C0.64012 9.83638 0.623901 9.91778 0.623901 9.99999C0.623901 10.0822 0.64012 10.1636 0.671628 10.2395C0.703136 10.3155 0.749315 10.3844 0.807519 10.4425L4.55752 14.1925C4.61558 14.2507 4.68455 14.2969 4.76048 14.3284C4.83641 14.3599 4.91781 14.3761 5.00002 14.3761C5.08223 14.3761 5.16363 14.3599 5.23956 14.3284C5.31549 14.2969 5.38446 14.2507 5.44252 14.1925Z" fill="#4872F2"/>
<path fill-rule="evenodd" clip-rule="evenodd" d="M14.375 10C14.375 9.83424 14.3092 9.67527 14.1919 9.55806C14.0747 9.44085 13.9158 9.375 13.75 9.375H2.5C2.33424 9.375 2.17527 9.44085 2.05806 9.55806C1.94085 9.67527 1.875 9.83424 1.875 10C1.875 10.1658 1.94085 10.3247 2.05806 10.4419C2.17527 10.5592 2.33424 10.625 2.5 10.625H13.75C13.9158 10.625 14.0747 10.5592 14.1919 10.4419C14.3092 10.3247 14.375 10.1658 14.375 10Z" fill="#4872F2"/>
<path fill-rule="evenodd" clip-rule="evenodd" d="M17.5 16.875C17.9973 16.875 18.4742 16.6775 18.8258 16.3258C19.1775 15.9742 19.375 15.4973 19.375 15V5C19.375 4.50272 19.1775 4.02581 18.8258 3.67417C18.4742 3.32254 17.9973 3.125 17.5 3.125H8.75C8.25272 3.125 7.77581 3.32254 7.42417 3.67417C7.07254 4.02581 6.875 4.50272 6.875 5V6.875C6.875 7.04076 6.94085 7.19973 7.05806 7.31694C7.17527 7.43415 7.33424 7.5 7.5 7.5C7.66576 7.5 7.82473 7.43415 7.94194 7.31694C8.05915 7.19973 8.125 7.04076 8.125 6.875V5C8.125 4.83424 8.19085 4.67527 8.30806 4.55806C8.42527 4.44085 8.58424 4.375 8.75 4.375H17.5C17.6658 4.375 17.8247 4.44085 17.9419 4.55806C18.0592 4.67527 18.125 4.83424 18.125 5V15C18.125 15.1658 18.0592 15.3247 17.9419 15.4419C17.8247 15.5592 17.6658 15.625 17.5 15.625H8.75C8.58424 15.625 8.42527 15.5592 8.30806 15.4419C8.19085 15.3247 8.125 15.1658 8.125 15V13.125C8.125 12.9592 8.05915 12.8003 7.94194 12.6831C7.82473 12.5658 7.66576 12.5 7.5 12.5C7.33424 12.5 7.17527 12.5658 7.05806 12.6831C6.94085 12.8003 6.875 12.9592 6.875 13.125V15C6.875 15.4973 7.07254 15.9742 7.42417 16.3258C7.77581 16.6775 8.25272 16.875 8.75 16.875H17.5Z" fill="#4872F2"/>
</svg>
