<svg width="24" height="24" viewBox="0 0 24 24" fill="none" xmlns="http://www.w3.org/2000/svg">
<path d="M21.1587 2H2.84131C1.26952 2 0 3.30368 0 4.90392V19.0961C0 20.7025 1.27557 22 2.84131 22H21.1587C22.7305 22 24 20.6963 24 19.0961V4.90392C24 3.2975 22.7244 2 21.1587 2ZM1.25743 5.06457C1.26348 4.1625 1.92242 3.29132 2.81108 3.29132H21.1889C22.0715 3.29132 22.7365 4.1625 22.7365 5.06457V10.7797L15.47 15.1356C14.7809 15.5619 13.8982 15.4816 13.2937 14.9441L9.69068 11.7189C8.58438 10.7303 6.95214 10.6623 5.7733 11.5582L1.25743 14.9132V5.06457ZM22.7426 18.9416C22.7365 19.8499 22.0776 20.721 21.1889 20.721H2.81108C1.92846 20.721 1.26348 19.8499 1.26348 18.9478V16.5258L6.53501 12.5901C7.24836 12.0649 8.22166 12.1205 8.87456 12.7198L12.4776 15.9141C13.4932 16.81 14.9501 16.9521 16.1108 16.2663L22.7426 12.2626V18.9416Z" fill="#737373"/>
<path d="M14.09 6.76709C12.5169 6.76709 11.2437 8.04027 11.2437 9.61338C11.2437 11.1865 12.5169 12.4597 14.09 12.4597C15.6631 12.4597 16.9363 11.1865 16.9363 9.61338C16.9363 8.04027 15.6631 6.76709 14.09 6.76709ZM14.09 11.1804C13.2269 11.1804 12.523 10.4764 12.523 9.61338C12.523 8.75031 13.2208 8.04639 14.09 8.04639C14.953 8.04639 15.657 8.75031 15.657 9.61338C15.657 10.4764 14.953 11.1804 14.09 11.1804Z" fill="#737373"/>
</svg>
