<svg width="9" height="14" viewBox="0 0 9 14" fill="none" xmlns="http://www.w3.org/2000/svg">
<path fill-rule="evenodd" clip-rule="evenodd" d="M0.824002 0.924688C0.873753 0.878137 0.932854 0.841204 0.997922 0.816004C1.06299 0.790804 1.13274 0.777832 1.20319 0.777832C1.27364 0.777832 1.34339 0.790804 1.40846 0.816004C1.47353 0.841204 1.53263 0.878137 1.58238 0.924688L8.00931 6.92316C8.05919 6.96959 8.09876 7.02475 8.12576 7.08548C8.15276 7.14621 8.16666 7.21131 8.16666 7.27706C8.16666 7.34282 8.15276 7.40792 8.12576 7.46865C8.09876 7.52938 8.05919 7.58454 8.00931 7.63097L1.58238 13.6294C1.48181 13.7233 1.34541 13.776 1.20319 13.776C1.06097 13.776 0.924569 13.7233 0.824002 13.6294C0.723435 13.5356 0.666937 13.4083 0.666937 13.2755C0.666937 13.1428 0.723435 13.0155 0.824002 12.9216L6.87281 7.27706L0.824002 1.63251C0.774126 1.58607 0.734554 1.53091 0.707554 1.47018C0.680554 1.40945 0.666656 1.34435 0.666656 1.2786C0.666656 1.21285 0.680554 1.14774 0.707554 1.08701C0.734554 1.02628 0.774126 0.971122 0.824002 0.924688Z" fill="#737373"/>
</svg>
