<svg width="24" height="24" viewBox="0 0 24 24" fill="none" xmlns="http://www.w3.org/2000/svg">
<path fill-rule="evenodd" clip-rule="evenodd" d="M4.0005 5.25C3.033 5.25 2.25 6.033 2.25 7.0005V16.9995C2.25 17.967 3.033 18.75 4.0005 18.75H13.9995C14.967 18.75 15.75 17.967 15.75 16.9995V7.0005C15.75 6.033 14.967 5.25 13.9995 5.25H4.0005ZM0.75 7.0005C0.75 5.205 2.205 3.75 4.0005 3.75H13.9995C15.795 3.75 17.25 5.205 17.25 7.0005V16.9995C17.25 18.795 15.795 20.25 13.9995 20.25H4.0005C3.13841 20.25 2.31164 19.9075 1.70205 19.298C1.09246 18.6884 0.75 17.8616 0.75 16.9995V7.0005Z" fill="#737373"/>
<path fill-rule="evenodd" clip-rule="evenodd" d="M16.875 8.47494L21.027 6.06744C21.0983 6.02445 21.1797 6.00088 21.263 5.9991C21.3463 5.99731 21.4286 6.01737 21.5017 6.05727C21.5748 6.09716 21.6362 6.15551 21.6798 6.22651C21.7233 6.29751 21.7476 6.37868 21.75 6.46194V17.5379C21.75 17.8799 21.36 18.1274 21.027 17.9339L16.8765 15.5264L16.1235 16.8239L20.274 19.2314C21.5625 19.9784 23.25 19.0889 23.25 17.5379V6.46194C23.25 4.91244 21.5625 4.02294 20.274 4.76994L16.125 7.17744L16.878 8.47494H16.875Z" fill="#737373"/>
</svg>
