<svg width="24" height="24" viewBox="0 0 24 24" fill="none" xmlns="http://www.w3.org/2000/svg">
<g clip-path="url(#clip0)">
<path d="M9.82325 12.3277L7.88188 12.0353L7.00386 10.2793C6.88475 10.0411 6.64133 9.89062 6.37499 9.89062C6.10864 9.89062 5.86522 10.0411 5.74611 10.2793L4.86866 12.0341L2.88186 12.3275C2.61627 12.3667 2.39619 12.5537 2.31463 12.8094C2.23307 13.0652 2.30427 13.3451 2.49814 13.5308L3.93571 14.9078L3.61489 16.8383C3.57121 17.101 3.67977 17.3659 3.89521 17.5224C4.1098 17.6784 4.39517 17.7008 4.63246 17.5777L6.37499 16.6731L8.11752 17.5776C8.354 17.7004 8.63933 17.6789 8.85482 17.5224C9.07025 17.3658 9.17877 17.101 9.13508 16.8382L8.81324 14.9016L10.2119 13.524C10.4017 13.3371 10.4696 13.059 10.3873 12.8057C10.305 12.5525 10.0866 12.3674 9.82325 12.3277ZM7.56636 14.1559C7.40328 14.3165 7.32861 14.5463 7.36616 14.7721L7.51733 15.6816L6.69899 15.2568C6.49583 15.1514 6.25414 15.1514 6.05108 15.2568L5.23274 15.6816L5.38391 14.7721C5.42202 14.5429 5.34444 14.3098 5.17668 14.149L4.50828 13.5088L5.4365 13.3718C5.66366 13.3382 5.86007 13.196 5.96272 12.9906L6.37499 12.166L6.78735 12.9907C6.88968 13.1953 7.08519 13.3374 7.3115 13.3715L8.22332 13.5088L7.56636 14.1559Z" fill="#737373"/>
<path d="M21.0733 12.3277L19.1319 12.0353L18.2539 10.2793C18.1348 10.0411 17.8913 9.89062 17.625 9.89062C17.3587 9.89062 17.1152 10.0411 16.9961 10.2793L16.1181 12.0353L14.1767 12.3277C13.9134 12.3674 13.695 12.5524 13.6128 12.8057C13.5305 13.059 13.5983 13.3371 13.7881 13.524L15.1868 14.9016L14.865 16.8383C14.8213 17.101 14.9299 17.3658 15.1453 17.5224C15.3599 17.6783 15.6453 17.7008 15.8826 17.5776L17.625 16.6731L19.3675 17.5776C19.6041 17.7004 19.8894 17.6789 20.1048 17.5224C20.3203 17.3658 20.4288 17.101 20.3851 16.8383L20.0632 14.9016L21.462 13.524C21.6517 13.3371 21.7196 13.059 21.6373 12.8057C21.555 12.5525 21.3367 12.3674 21.0733 12.3277ZM18.8164 14.1559C18.6533 14.3165 18.5786 14.5463 18.6162 14.7721L18.7673 15.6816L17.949 15.2568C17.7458 15.1514 17.5042 15.1514 17.3011 15.2568L16.4827 15.6816L16.6339 14.7721C16.6715 14.5463 16.5967 14.3165 16.4337 14.1559L15.7768 13.5088L16.6886 13.3715C16.9148 13.3374 17.1104 13.1953 17.2127 12.9907L17.625 12.166L18.0374 12.9907C18.1397 13.1953 18.3352 13.3374 18.5615 13.3715L19.4733 13.5088L18.8164 14.1559Z" fill="#737373"/>
<path d="M21.8906 5.67188H16.2438L17.3315 4.60036C17.5213 4.41347 17.5891 4.13541 17.5068 3.88209C17.4244 3.62878 17.2061 3.44377 16.9427 3.40416L13.965 2.95617L12.6238 0.378563C12.5027 0.145922 12.2623 0 12 0C11.7377 0 11.4973 0.145922 11.3762 0.378563L10.035 2.95617L7.05731 3.40416C6.79392 3.44377 6.57558 3.62878 6.49322 3.88209C6.41091 4.13536 6.47873 4.41342 6.66848 4.60036L7.75617 5.67188H2.10938C0.946266 5.67188 0 6.61814 0 7.78125V19.0312C0 20.1944 0.946266 21.1406 2.10938 21.1406H9.84905L11.401 23.6651C11.5289 23.8732 11.7557 24 12 24C12.2442 24 12.471 23.8732 12.5989 23.6651L14.151 21.1406H21.8906C23.0537 21.1406 24 20.1944 24 19.0312V7.78125C24 6.61814 23.0537 5.67188 21.8906 5.67188ZM10.5981 4.29352C10.8205 4.26005 11.0134 4.12228 11.1173 3.92278L12 2.22633L12.8827 3.92278C12.9866 4.12228 13.1795 4.26005 13.4019 4.29352L15.3428 4.58555L13.9448 5.96269C13.7818 6.12328 13.7071 6.3532 13.7446 6.57891L14.0668 8.51597L12.3238 7.61166C12.2222 7.55897 12.1111 7.53267 12 7.53267C11.8888 7.53267 11.7777 7.55902 11.6761 7.61166L9.93314 8.51597L10.2553 6.57891C10.2928 6.35316 10.2181 6.12328 10.0551 5.96269L8.65716 4.58555L10.5981 4.29352ZM22.5938 19.0312C22.5938 19.419 22.2783 19.7344 21.8906 19.7344H13.7578C13.5135 19.7344 13.2868 19.8612 13.1588 20.0693L12 21.9543L10.8412 20.0693C10.7132 19.8612 10.4865 19.7344 10.2422 19.7344H2.10938C1.72167 19.7344 1.40625 19.419 1.40625 19.0312V7.78125C1.40625 7.39355 1.72167 7.07812 2.10938 7.07812H8.74673L8.31534 9.67228C8.27166 9.93497 8.38017 10.1998 8.59556 10.3564C8.811 10.5129 9.09638 10.5344 9.33281 10.4117L12 9.02794L14.6672 10.4117C14.9035 10.5344 15.189 10.5129 15.4044 10.3564C15.6198 10.1998 15.7283 9.93497 15.6847 9.67228L15.2533 7.07812H21.8906C22.2783 7.07812 22.5938 7.39355 22.5938 7.78125V19.0312Z" fill="#737373"/>
</g>
<defs>
<clipPath id="clip0">
<rect width="24" height="24" fill="white"/>
</clipPath>
</defs>
</svg>
