<svg width="24" height="24" viewBox="0 0 24 24" fill="none" xmlns="http://www.w3.org/2000/svg">
<path d="M23.3811 7.55283C22.5587 6.73036 21.2205 6.73041 20.3978 7.55302C20.1447 7.80628 18.5292 9.42314 18.2824 9.67017V4.09809C18.2824 3.53466 18.063 3.00497 17.6645 2.60658L15.6758 0.617813C15.2775 0.219375 14.7477 0 14.1843 0H2.1105C0.947395 0 0.00112915 0.946266 0.00112915 2.10938V21.8906C0.00112915 23.0537 0.947395 24 2.1105 24H16.173C17.3361 24 18.2824 23.0537 18.2824 21.8906V15.639L23.3811 10.536C24.2055 9.71161 24.2056 8.37727 23.3811 7.55283ZM14.0637 1.40625C14.1965 1.40625 14.4525 1.38323 14.6815 1.61217L16.6702 3.60094C16.8933 3.82411 16.8762 4.06866 16.8762 4.21875H14.0637V1.40625ZM16.8761 21.8906C16.8761 22.2783 16.5608 22.5938 16.173 22.5938H2.1105C1.7228 22.5938 1.40738 22.2783 1.40738 21.8906V2.10938C1.40738 1.72167 1.7228 1.40625 2.1105 1.40625H12.6574V4.92188C12.6574 5.31019 12.9722 5.625 13.3605 5.625H16.8761V11.0776C16.8761 11.0776 14.8017 13.1538 14.8016 13.1539L13.8077 14.1478C13.7306 14.225 13.6724 14.3191 13.6379 14.4226L12.6435 17.4058C12.5592 17.6584 12.625 17.937 12.8133 18.1253C13.0019 18.3139 13.2806 18.3793 13.5329 18.2952L16.516 17.3008C16.6195 17.2663 16.7137 17.2081 16.7908 17.1309L16.8761 17.0456V21.8906ZM15.2993 14.645L16.2936 15.6394L15.9138 16.0192L14.4223 16.5164L14.9194 15.0248L15.2993 14.645ZM17.2878 14.6448L16.2934 13.6504C16.8229 13.1205 19.1746 10.7668 19.6733 10.2676L20.6677 11.262L17.2878 14.6448ZM22.3865 9.54178L21.6617 10.2672L20.6673 9.27286L21.3924 8.54719C21.6667 8.27302 22.1127 8.27306 22.3868 8.54719C22.6609 8.82141 22.6623 9.26592 22.3865 9.54178Z" fill="#737373"/>
<path d="M13.3602 7.03125H3.51645C3.12814 7.03125 2.81332 7.34606 2.81332 7.73438C2.81332 8.12269 3.12814 8.4375 3.51645 8.4375H13.3602C13.7485 8.4375 14.0633 8.12269 14.0633 7.73438C14.0633 7.34606 13.7485 7.03125 13.3602 7.03125Z" fill="#737373"/>
<path d="M10.5477 9.84375H3.51645C3.12814 9.84375 2.81332 10.1586 2.81332 10.5469C2.81332 10.9352 3.12814 11.25 3.51645 11.25H10.5477C10.936 11.25 11.2508 10.9352 11.2508 10.5469C11.2508 10.1586 10.936 9.84375 10.5477 9.84375Z" fill="#737373"/>
<path d="M10.5477 12.6562H3.51645C3.12814 12.6562 2.81332 12.9711 2.81332 13.3594C2.81332 13.7477 3.12814 14.0625 3.51645 14.0625H10.5477C10.936 14.0625 11.2508 13.7477 11.2508 13.3594C11.2508 12.9711 10.936 12.6562 10.5477 12.6562Z" fill="#737373"/>
<path d="M10.5477 15.4688H3.51645C3.12814 15.4688 2.81332 15.7836 2.81332 16.1719C2.81332 16.5602 3.12814 16.875 3.51645 16.875H10.5477C10.936 16.875 11.2508 16.5602 11.2508 16.1719C11.2508 15.7836 10.936 15.4688 10.5477 15.4688Z" fill="#737373"/>
<path d="M13.3602 19.7812H9.14148C8.75317 19.7812 8.43835 20.0961 8.43835 20.4844C8.43835 20.8727 8.75317 21.1875 9.14148 21.1875H13.3602C13.7485 21.1875 14.0634 20.8727 14.0634 20.4844C14.0634 20.0961 13.7485 19.7812 13.3602 19.7812Z" fill="#737373"/>
</svg>
