<svg width="24" height="24" viewBox="0 0 24 24" fill="none" xmlns="http://www.w3.org/2000/svg">
<path d="M6.07031 0.00309375C4.1467 0.0681562 2.60156 1.65225 2.60156 3.59147V20.5312H2.60466C2.66972 22.4549 4.25386 24 6.19303 24H21.3984V0L6.07031 0.00309375ZM4.00781 20.4085C4.00781 19.2035 4.98811 18.2233 6.19303 18.2233H19.9922V19.7054H7.40625V21.1117H19.9922V22.5938H6.19303C4.98811 22.5938 4.00781 21.6135 4.00781 20.4085ZM10.0106 4.84031L8.74359 4.29769L7.47656 4.84031V1.40625H10.0106V4.84031ZM6.07031 1.40991V16.8202C5.29598 16.8464 4.58334 17.1184 4.00781 17.5612V3.59147C4.00781 2.42775 4.92225 1.4738 6.07031 1.40991ZM19.9922 16.817H7.47656V6.37012L8.74359 5.8275L11.4168 6.97237V1.40625H19.9922V16.817Z" fill="#737373"/>
<path d="M9.38733 14.9062H18.0815V10.4531H9.38733V14.9062ZM10.7936 11.8594H16.6752V13.5H10.7936V11.8594Z" fill="#737373"/>
</svg>
