<svg width="20" height="20" viewBox="0 0 20 20" fill="none" xmlns="http://www.w3.org/2000/svg">
<path fill-rule="evenodd" clip-rule="evenodd" d="M18.3333 20C18.3333 20 20 20 20 18.3333C20 16.6667 18.3333 11.6667 9.99997 11.6667C1.66664 11.6667 -3.05176e-05 16.6667 -3.05176e-05 18.3333C-3.05176e-05 20 1.66664 20 1.66664 20H18.3333ZM1.69524 18.5C1.68658 18.4992 1.67179 18.4975 1.65282 18.4944C1.59755 18.4852 1.54555 18.4697 1.50939 18.4526C1.50475 18.4292 1.49997 18.3909 1.49997 18.3333C1.49997 17.8851 1.76745 16.6038 2.93563 15.4357C4.05985 14.3114 6.14964 13.1667 9.99997 13.1667C13.8503 13.1667 15.9401 14.3114 17.0643 15.4357C18.2325 16.6038 18.5 17.8851 18.5 18.3333C18.5 18.3909 18.4952 18.4292 18.4906 18.4526C18.4544 18.4697 18.4024 18.4852 18.3471 18.4944C18.3281 18.4975 18.3134 18.4992 18.3047 18.5H1.69524ZM18.4819 18.4826C18.4818 18.4825 18.4825 18.4804 18.4844 18.4766C18.483 18.4808 18.482 18.4827 18.4819 18.4826ZM1.51804 18.4826C1.51791 18.4827 1.51694 18.4808 1.51551 18.4766C1.51745 18.4804 1.51817 18.4825 1.51804 18.4826ZM9.99997 8.5C10.9282 8.5 11.8185 8.13125 12.4748 7.47487C13.1312 6.8185 13.5 5.92826 13.5 5C13.5 4.07174 13.1312 3.1815 12.4748 2.52513C11.8185 1.86875 10.9282 1.5 9.99997 1.5C9.07171 1.5 8.18147 1.86875 7.5251 2.52513C6.86872 3.1815 6.49997 4.07174 6.49997 5C6.49997 5.92826 6.86872 6.8185 7.5251 7.47487C8.18147 8.13125 9.07171 8.5 9.99997 8.5ZM13.5355 8.53553C12.5978 9.47322 11.3261 10 9.99997 10C8.67389 10 7.40212 9.47322 6.46444 8.53553C5.52675 7.59785 4.99997 6.32608 4.99997 5C4.99997 3.67392 5.52675 2.40215 6.46444 1.46447C7.40212 0.526784 8.67389 0 9.99997 0C11.3261 0 12.5978 0.526784 13.5355 1.46447C14.4732 2.40215 15 3.67392 15 5C15 6.32608 14.4732 7.59785 13.5355 8.53553Z" fill="#3C3C3C"/>
</svg>
