<svg width="12" height="15" viewBox="0 0 12 15" fill="none" xmlns="http://www.w3.org/2000/svg">
<path fill-rule="evenodd" clip-rule="evenodd" d="M7.43591 0.489084C7.48529 0.538337 7.52446 0.596847 7.55119 0.661263C7.57792 0.725679 7.59168 0.794736 7.59168 0.864478C7.59168 0.934219 7.57792 1.00328 7.55119 1.06769C7.52446 1.13211 7.48529 1.19062 7.43591 1.23987L1.44764 7.22708L7.43591 13.2143C7.53547 13.3138 7.5914 13.4489 7.5914 13.5897C7.5914 13.7305 7.53547 13.8655 7.43591 13.9651C7.33635 14.0646 7.20131 14.1206 7.06051 14.1206C6.91971 14.1206 6.78468 14.0646 6.68512 13.9651L0.322519 7.60247C0.273142 7.55322 0.233967 7.49471 0.207237 7.43029C0.180507 7.36588 0.166748 7.29682 0.166748 7.22708C0.166748 7.15734 0.180507 7.08828 0.207237 7.02386C0.233967 6.95945 0.273142 6.90094 0.322519 6.85169L6.68512 0.489084C6.73437 0.439707 6.79288 0.400531 6.8573 0.373802C6.92172 0.347072 6.99077 0.333313 7.06051 0.333313C7.13026 0.333313 7.19931 0.347072 7.26373 0.373802C7.32815 0.400531 7.38666 0.439707 7.43591 0.489084Z" fill="#4872F2"/>
<path fill-rule="evenodd" clip-rule="evenodd" d="M11.6776 0.489084C11.727 0.538337 11.7662 0.596847 11.7929 0.661263C11.8196 0.725679 11.8334 0.794736 11.8334 0.864478C11.8334 0.934219 11.8196 1.00328 11.7929 1.06769C11.7662 1.13211 11.727 1.19062 11.6776 1.23987L5.68934 7.22708L11.6776 13.2143C11.7269 13.2636 11.766 13.3221 11.7927 13.3865C11.8194 13.4509 11.8331 13.52 11.8331 13.5897C11.8331 13.6594 11.8194 13.7284 11.7927 13.7928C11.766 13.8573 11.7269 13.9158 11.6776 13.9651C11.6283 14.0144 11.5698 14.0535 11.5054 14.0802C11.441 14.1068 11.3719 14.1206 11.3022 14.1206C11.2325 14.1206 11.1635 14.1068 11.0991 14.0802C11.0346 14.0535 10.9761 14.0144 10.9268 13.9651L4.56422 7.60247C4.51484 7.55322 4.47567 7.49471 4.44894 7.43029C4.42221 7.36588 4.40845 7.29682 4.40845 7.22708C4.40845 7.15734 4.42221 7.08828 4.44894 7.02386C4.47567 6.95945 4.51484 6.90094 4.56422 6.85169L10.9268 0.489084C10.9761 0.439707 11.0346 0.400531 11.099 0.373802C11.1634 0.347072 11.2325 0.333313 11.3022 0.333313C11.372 0.333313 11.441 0.347072 11.5054 0.373802C11.5698 0.400531 11.6284 0.439707 11.6776 0.489084Z" fill="#4872F2"/>
</svg>
