<svg width="90" height="90" viewBox="0 0 90 90" fill="none" xmlns="http://www.w3.org/2000/svg">
<path d="M11.0893 0.806325C10.1841 1.40983 8.97708 1.5607 8.22271 2.31508C7.61921 2.7677 7.61921 3.67295 8.22271 4.12558C8.82621 4.42733 9.58058 4.12558 10.1841 3.9747C10.6367 3.82383 10.7876 3.52208 10.7876 3.06945C11.2402 2.7677 11.6928 2.46595 11.9946 2.01333C12.5981 1.40983 11.8437 0.202825 11.0893 0.806325Z" fill="#737373"/>
<path d="M5.05431 9.70781C4.14906 10.4622 3.24381 11.3674 2.48943 12.2727C1.73505 13.1779 0.829803 14.3849 0.829803 15.4411C0.829803 16.0446 1.58418 16.3463 1.88593 15.8937C2.64031 15.1393 2.79118 13.9323 3.39468 13.0271C3.99818 11.9709 4.75256 11.2166 5.65781 10.3113C5.95956 9.85869 5.35606 9.40606 5.05431 9.70781Z" fill="#737373"/>
<path d="M1.43331 23.2866C1.13156 22.0796 0.980689 20.7218 0.980689 19.3639C0.980689 18.9113 0.226313 18.9113 0.226313 19.3639C0.226313 21.1744 -0.678938 24.7954 1.13156 26.0024C1.43331 26.3041 1.88594 25.8515 1.88594 25.5498C1.88594 24.7954 1.58419 24.041 1.43331 23.2866Z" fill="#737373"/>
<path d="M9.88233 29.0199C7.46832 29.3216 5.35607 29.7742 3.09294 28.5672C2.79119 28.4164 2.64032 28.7181 2.94207 28.869C5.2052 30.5286 7.77007 31.283 10.335 29.9251C10.9385 29.6234 10.335 28.869 9.88233 29.0199Z" fill="#737373"/>
<path d="M20.7453 21.1746C19.5383 21.6272 18.6331 22.5325 17.577 23.2868C16.37 24.1921 15.3138 25.0973 14.2577 26.1535C13.956 26.4552 14.4086 27.0587 14.8612 26.757C15.7665 25.8517 16.8226 25.2482 17.8787 24.4938C18.9348 23.7395 20.2927 23.136 21.198 22.2307C21.6506 21.7781 21.3488 20.8728 20.7453 21.1746Z" fill="#737373"/>
<path d="M30.854 10.3113C28.1382 11.3674 25.5733 13.9323 23.612 16.0445C23.3102 16.4972 23.7628 16.9498 24.2155 16.648C25.4225 15.5919 26.7803 14.5358 28.1382 13.6305C29.1943 12.8762 30.4013 12.2727 31.3066 11.3674C31.7592 10.7639 31.3066 10.1604 30.854 10.3113Z" fill="#737373"/>
<path d="M44.2819 4.72909C41.5661 4.57822 38.8504 5.63434 36.4363 6.53959C35.9837 6.69047 36.1346 7.29397 36.5872 7.29397C39.1521 6.53959 41.717 6.23784 44.2819 6.08697C45.0362 5.93609 45.0362 4.72909 44.2819 4.72909Z" fill="#737373"/>
<path d="M54.3905 9.7081C53.6361 8.80285 52.58 7.8976 51.6747 7.14322C50.9204 6.53972 50.0151 7.44497 50.6186 8.19935C51.3732 8.95372 52.1274 9.85897 52.8818 10.7642C53.6364 11.6695 54.3905 13.0274 55.4466 13.7817C55.8993 14.0835 56.5028 13.6309 56.3519 13.0274C56.3519 11.8203 55.2958 10.6133 54.3905 9.7081Z" fill="#737373"/>
<path d="M57.2571 17.8552C57.2571 17.2517 56.2013 17.2517 56.2013 17.8552C56.0504 19.364 55.7486 20.7218 55.4466 22.2306C55.1449 23.5885 54.3905 24.9464 54.3905 26.4551C54.3905 27.2095 55.4466 27.5112 55.7486 26.7569C57.1065 24.192 57.408 20.571 57.2571 17.8552Z" fill="#737373"/>
<path d="M50.7695 33.0936C50.0149 34.1497 49.2607 35.2059 48.5061 36.262C47.9029 37.3181 46.8467 38.3742 46.6956 39.5812C46.6956 40.1847 47.2991 40.3356 47.7517 40.1847C48.8079 39.7321 49.2605 38.3742 49.7131 37.469C50.4675 36.262 51.071 34.9041 51.8254 33.6971C52.1274 32.9427 51.2221 32.4901 50.7695 33.0936Z" fill="#737373"/>
<path d="M43.2257 44.1076C41.8678 45.3146 40.8117 46.5216 39.9065 47.8795C39.0012 49.2374 37.7942 51.1987 38.096 52.8584C38.2468 53.6127 39.0012 53.7636 39.4538 53.1601C40.2082 52.104 40.3591 50.5952 40.8117 49.3882C41.4152 47.5777 42.4713 45.9181 43.6783 44.4094C43.9801 44.2585 43.5275 43.8059 43.2257 44.1076Z" fill="#737373"/>
<path d="M34.6259 58.8932C33.268 60.1002 32.2119 61.4581 31.3066 63.1177C30.4013 64.7774 29.3452 66.8899 29.647 68.7004C29.7978 69.3039 30.7031 69.3039 30.854 68.8512C31.7592 67.4931 31.7592 65.6826 32.3627 64.1739C32.9662 62.5145 34.0224 60.8546 35.2294 59.3458C35.5311 59.0441 35.0785 58.4406 34.6259 58.8932Z" fill="#737373"/>
<path d="M34.475 81.9769C33.4188 81.3737 32.5136 80.9211 31.7592 80.0158C31.0048 78.8088 30.7031 76.9983 30.7031 75.6404C30.7031 75.1876 29.9487 75.1876 29.9487 75.6404C29.647 78.5071 30.2505 83.4857 34.1732 83.3351C34.7767 83.1842 35.0785 82.2789 34.475 81.9769Z" fill="#737373"/>
<path d="M50.4677 87.2578C48.8084 87.1069 47.1485 87.4084 45.4891 87.4084C43.3766 87.2578 41.4152 86.654 39.7556 85.447C39.4538 85.2964 39.303 85.749 39.4538 85.8996C42.6222 88.3136 46.9979 90.4259 50.9206 88.7663C51.6747 88.3137 51.2221 87.2578 50.4677 87.2578Z" fill="#737373"/>
<path d="M63.2921 76.9984C62.236 77.6019 61.3308 78.5071 60.1238 79.2615C59.0676 79.865 57.8604 80.1668 56.6536 80.3176C55.899 80.4685 55.899 81.5247 56.6536 81.5247C59.3694 81.6755 62.8395 80.7703 64.3483 78.2054C64.952 77.451 64.0465 76.6964 63.2921 76.9984Z" fill="#737373"/>
<path d="M69.478 67.9455C67.5166 69.9069 65.4046 72.0191 64.0465 74.4331C63.5939 75.1877 64.65 75.6401 65.1026 75.0366C66.7623 72.9244 69.478 71.4156 70.6853 68.8507C70.8359 68.0966 70.0815 67.3422 69.478 67.9455Z" fill="#737373"/>
<path d="M80.7939 68.0968C80.3413 67.1916 79.1343 66.5881 78.229 66.1355C77.1729 65.6829 75.9659 65.5322 74.7589 65.5322C74.0045 65.5322 74.0045 66.5881 74.7589 66.5881C75.815 66.5881 76.7203 66.8901 77.6255 67.3427C78.3801 67.7953 78.9836 68.5497 79.7378 69.0021C80.3413 69.4545 81.0954 68.7003 80.7939 68.0968Z" fill="#737373"/>
<path d="M89.8462 73.9809C87.7339 70.5108 86.376 66.5881 84.5655 62.967C83.6603 61.3074 81.2463 62.8162 82.0007 64.4758C83.3585 67.4931 84.5655 70.6617 86.376 73.5283C85.0182 73.6792 83.6603 73.8301 82.1515 73.9809C81.548 74.1318 80.4919 74.1318 80.0393 74.7356L79.8887 74.8862C79.8887 74.8862 79.7378 74.8862 79.7378 75.0371C79.436 75.3388 79.7378 75.9423 80.0395 75.9423C80.1904 76.0932 80.3415 76.0932 80.643 76.0932C81.3977 76.2438 82.1518 76.0932 83.057 76.0932C85.0184 75.9423 86.8289 75.7912 88.7903 75.9423C89.6953 76.0932 90.2988 74.8862 89.8462 73.9809Z" fill="#737373"/>
</svg>
