<svg width="12" height="15" viewBox="0 0 12 15" fill="none" xmlns="http://www.w3.org/2000/svg">
<path fill-rule="evenodd" clip-rule="evenodd" d="M7.43615 0.489145C7.48553 0.538398 7.5247 0.596908 7.55143 0.661324C7.57816 0.72574 7.59192 0.794797 7.59192 0.864539C7.59192 0.934281 7.57816 1.00334 7.55143 1.06775C7.5247 1.13217 7.48553 1.19068 7.43615 1.23993L1.44788 7.22714L7.43615 13.2143C7.53571 13.3139 7.59165 13.4489 7.59165 13.5897C7.59165 13.7305 7.53571 13.8656 7.43615 13.9651C7.33659 14.0647 7.20156 14.1206 7.06076 14.1206C6.91996 14.1206 6.78493 14.0647 6.68537 13.9651L0.322763 7.60253C0.273386 7.55328 0.234211 7.49477 0.207481 7.43035C0.180751 7.36594 0.166992 7.29688 0.166992 7.22714C0.166992 7.1574 0.180751 7.08834 0.207481 7.02393C0.234211 6.95951 0.273386 6.901 0.322763 6.85175L6.68537 0.489145C6.73462 0.439768 6.79313 0.400593 6.85754 0.373863C6.92196 0.347133 6.99102 0.333374 7.06076 0.333374C7.1305 0.333374 7.19956 0.347133 7.26397 0.373863C7.32839 0.400593 7.3869 0.439768 7.43615 0.489145Z" fill="#4872F2"/>
<path fill-rule="evenodd" clip-rule="evenodd" d="M11.6783 0.489145C11.7277 0.538398 11.7669 0.596908 11.7936 0.661324C11.8204 0.72574 11.8341 0.794797 11.8341 0.864539C11.8341 0.934281 11.8204 1.00334 11.7936 1.06775C11.7669 1.13217 11.7277 1.19068 11.6783 1.23993L5.69007 7.22714L11.6783 13.2143C11.7276 13.2636 11.7667 13.3222 11.7934 13.3866C11.8201 13.451 11.8338 13.52 11.8338 13.5897C11.8338 13.6595 11.8201 13.7285 11.7934 13.7929C11.7667 13.8573 11.7276 13.9158 11.6783 13.9651C11.629 14.0144 11.5705 14.0535 11.5061 14.0802C11.4417 14.1069 11.3727 14.1206 11.3029 14.1206C11.2332 14.1206 11.1642 14.1069 11.0998 14.0802C11.0354 14.0535 10.9769 14.0144 10.9276 13.9651L4.56495 7.60253C4.51557 7.55328 4.4764 7.49477 4.44967 7.43035C4.42294 7.36594 4.40918 7.29688 4.40918 7.22714C4.40918 7.1574 4.42294 7.08834 4.44967 7.02393C4.4764 6.95951 4.51557 6.901 4.56495 6.85175L10.9276 0.489145C10.9768 0.439768 11.0353 0.400593 11.0997 0.373863C11.1641 0.347133 11.2332 0.333374 11.3029 0.333374C11.3727 0.333374 11.4417 0.347133 11.5062 0.373863C11.5706 0.400593 11.6291 0.439768 11.6783 0.489145Z" fill="#4872F2"/>
</svg>
