<svg width="27" height="28" viewBox="0 0 27 28" fill="none" xmlns="http://www.w3.org/2000/svg">
<path fill-rule="evenodd" clip-rule="evenodd" d="M15.4346 22.223C15.5122 22.1455 15.5738 22.0536 15.6158 21.9523C15.6578 21.8511 15.6794 21.7426 15.6794 21.633C15.6794 21.5233 15.6578 21.4148 15.6158 21.3136C15.5738 21.2123 15.5122 21.1204 15.4346 21.043L8.66593 14.2759L15.4346 7.50891C15.5911 7.35243 15.679 7.1402 15.679 6.91891C15.679 6.69762 15.5911 6.48539 15.4346 6.32891C15.2781 6.17243 15.0659 6.08452 14.8446 6.08452C14.6233 6.08452 14.4111 6.17243 14.2546 6.32891L6.8976 13.6859C6.81999 13.7633 6.75842 13.8553 6.71641 13.9565C6.6744 14.0578 6.65277 14.1663 6.65277 14.2759C6.65277 14.3855 6.6744 14.4941 6.71641 14.5953C6.75842 14.6966 6.81999 14.7885 6.8976 14.8659L14.2546 22.223C14.332 22.3006 14.424 22.3621 14.5252 22.4041C14.6265 22.4461 14.735 22.4678 14.8446 22.4678C14.9542 22.4678 15.0628 22.4461 15.164 22.4041C15.2653 22.3621 15.3572 22.3006 15.4346 22.223Z" fill="#B9B9B9"/>
</svg>
