<svg width="24" height="24" viewBox="0 0 24 24" fill="none" xmlns="http://www.w3.org/2000/svg">
<path fill-rule="evenodd" clip-rule="evenodd" d="M9.75 12C9.75 11.8011 9.67098 11.6103 9.53033 11.4697C9.38968 11.329 9.19891 11.25 9 11.25H2.25C2.05109 11.25 1.86032 11.329 1.71967 11.4697C1.57902 11.6103 1.5 11.8011 1.5 12C1.5 12.1989 1.57902 12.3897 1.71967 12.5303C1.86032 12.671 2.05109 12.75 2.25 12.75H9C9.19891 12.75 9.38968 12.671 9.53033 12.5303C9.67098 12.3897 9.75 12.1989 9.75 12Z" fill="#737373"/>
<path fill-rule="evenodd" clip-rule="evenodd" d="M5.78088 8.46888C5.71121 8.39903 5.62844 8.34362 5.53733 8.30581C5.44621 8.268 5.34853 8.24854 5.24988 8.24854C5.15122 8.24854 5.05354 8.268 4.96243 8.30581C4.87131 8.34362 4.78854 8.39903 4.71888 8.46888L1.71888 11.4689C1.64903 11.5385 1.59362 11.6213 1.55581 11.7124C1.518 11.8035 1.49854 11.9012 1.49854 11.9999C1.49854 12.0985 1.518 12.1962 1.55581 12.2873C1.59362 12.3784 1.64903 12.4612 1.71888 12.5309L4.71888 15.5309C4.78861 15.6006 4.87139 15.6559 4.9625 15.6937C5.05361 15.7314 5.15126 15.7508 5.24988 15.7508C5.34849 15.7508 5.44614 15.7314 5.53725 15.6937C5.62836 15.6559 5.71114 15.6006 5.78088 15.5309C5.85061 15.4611 5.90592 15.3784 5.94366 15.2873C5.9814 15.1961 6.00082 15.0985 6.00082 14.9999C6.00082 14.9013 5.9814 14.8036 5.94366 14.7125C5.90592 14.6214 5.85061 14.5386 5.78088 14.4689L3.31038 11.9999L5.78088 9.53088C5.85072 9.46121 5.90614 9.37844 5.94394 9.28733C5.98175 9.19621 6.00122 9.09853 6.00122 8.99988C6.00122 8.90122 5.98175 8.80354 5.94394 8.71242C5.90614 8.62131 5.85072 8.53854 5.78088 8.46888ZM14.2499 11.9999C14.2499 11.801 14.3289 11.6102 14.4695 11.4695C14.6102 11.3289 14.801 11.2499 14.9999 11.2499H21.7499C21.9488 11.2499 22.1396 11.3289 22.2802 11.4695C22.4209 11.6102 22.4999 11.801 22.4999 11.9999C22.4999 12.1988 22.4209 12.3896 22.2802 12.5302C22.1396 12.6709 21.9488 12.7499 21.7499 12.7499H14.9999C14.801 12.7499 14.6102 12.6709 14.4695 12.5302C14.3289 12.3896 14.2499 12.1988 14.2499 11.9999Z" fill="#737373"/>
<path fill-rule="evenodd" clip-rule="evenodd" d="M18.219 8.46888C18.2887 8.39903 18.3714 8.34362 18.4626 8.30581C18.5537 8.268 18.6513 8.24854 18.75 8.24854C18.8487 8.24854 18.9463 8.268 19.0375 8.30581C19.1286 8.34362 19.2113 8.39903 19.281 8.46888L22.281 11.4689C22.3508 11.5385 22.4063 11.6213 22.4441 11.7124C22.4819 11.8035 22.5013 11.9012 22.5013 11.9999C22.5013 12.0985 22.4819 12.1962 22.4441 12.2873C22.4063 12.3784 22.3508 12.4612 22.281 12.5309L19.281 15.5309C19.2113 15.6006 19.1285 15.6559 19.0374 15.6937C18.9463 15.7314 18.8486 15.7508 18.75 15.7508C18.6514 15.7508 18.5537 15.7314 18.4626 15.6937C18.3715 15.6559 18.2887 15.6006 18.219 15.5309C18.1493 15.4611 18.094 15.3784 18.0562 15.2873C18.0185 15.1961 17.9991 15.0985 17.9991 14.9999C17.9991 14.9013 18.0185 14.8036 18.0562 14.7125C18.094 14.6214 18.1493 14.5386 18.219 14.4689L20.6895 11.9999L18.219 9.53088C18.1492 9.46121 18.0937 9.37844 18.0559 9.28733C18.0181 9.19621 17.9987 9.09853 17.9987 8.99988C17.9987 8.90122 18.0181 8.80354 18.0559 8.71243C18.0937 8.62131 18.1492 8.53854 18.219 8.46888ZM12 14.2499C11.8011 14.2499 11.6103 14.3289 11.4697 14.4695C11.329 14.6102 11.25 14.801 11.25 14.9999V21.7499C11.25 21.9488 11.329 22.1396 11.4697 22.2802C11.6103 22.4209 11.8011 22.4999 12 22.4999C12.1989 22.4999 12.3897 22.4209 12.5303 22.2802C12.671 22.1396 12.75 21.9488 12.75 21.7499V14.9999C12.75 14.801 12.671 14.6102 12.5303 14.4695C12.3897 14.3289 12.1989 14.2499 12 14.2499Z" fill="#737373"/>
<path fill-rule="evenodd" clip-rule="evenodd" d="M8.46888 18.219C8.39903 18.2887 8.34362 18.3714 8.30581 18.4626C8.268 18.5537 8.24854 18.6513 8.24854 18.75C8.24854 18.8487 8.268 18.9463 8.30581 19.0374C8.34362 19.1286 8.39903 19.2113 8.46888 19.281L11.4689 22.281C11.5385 22.3508 11.6213 22.4063 11.7124 22.4441C11.8035 22.4819 11.9012 22.5013 11.9999 22.5013C12.0985 22.5013 12.1962 22.4819 12.2873 22.4441C12.3784 22.4063 12.4612 22.3508 12.5309 22.281L15.5309 19.281C15.6006 19.2113 15.6559 19.1285 15.6937 19.0374C15.7314 18.9463 15.7508 18.8486 15.7508 18.75C15.7508 18.6514 15.7314 18.5537 15.6937 18.4626C15.6559 18.3715 15.6006 18.2887 15.5309 18.219C15.4611 18.1493 15.3784 18.094 15.2873 18.0562C15.1961 18.0185 15.0985 17.9991 14.9999 17.9991C14.9013 17.9991 14.8036 18.0185 14.7125 18.0562C14.6214 18.094 14.5386 18.1493 14.4689 18.219L11.9999 20.6895L9.53088 18.219C9.46121 18.1492 9.37844 18.0937 9.28733 18.0559C9.19621 18.0181 9.09853 17.9987 8.99988 17.9987C8.90122 17.9987 8.80354 18.0181 8.71242 18.0559C8.62131 18.0937 8.53854 18.1492 8.46888 18.219ZM11.9999 9.75C11.801 9.75 11.6102 9.67098 11.4695 9.53033C11.3289 9.38968 11.2499 9.19891 11.2499 9V2.25C11.2499 2.05109 11.3289 1.86032 11.4695 1.71967C11.6102 1.57902 11.801 1.5 11.9999 1.5C12.1988 1.5 12.3896 1.57902 12.5302 1.71967C12.6709 1.86032 12.7499 2.05109 12.7499 2.25V9C12.7499 9.19891 12.6709 9.38968 12.5302 9.53033C12.3896 9.67098 12.1988 9.75 11.9999 9.75Z" fill="#737373"/>
<path fill-rule="evenodd" clip-rule="evenodd" d="M8.46888 5.78088C8.39903 5.71121 8.34362 5.62844 8.30581 5.53733C8.268 5.44621 8.24854 5.34853 8.24854 5.24988C8.24854 5.15122 8.268 5.05354 8.30581 4.96242C8.34362 4.87131 8.39903 4.78854 8.46888 4.71888L11.4689 1.71888C11.5385 1.64903 11.6213 1.59362 11.7124 1.55581C11.8035 1.518 11.9012 1.49854 11.9999 1.49854C12.0985 1.49854 12.1962 1.518 12.2873 1.55581C12.3784 1.59362 12.4612 1.64903 12.5309 1.71888L15.5309 4.71888C15.6006 4.78861 15.6559 4.87139 15.6937 4.9625C15.7314 5.05361 15.7508 5.15126 15.7508 5.24988C15.7508 5.34849 15.7314 5.44614 15.6937 5.53725C15.6559 5.62836 15.6006 5.71114 15.5309 5.78088C15.4611 5.85061 15.3784 5.90592 15.2873 5.94366C15.1961 5.9814 15.0985 6.00082 14.9999 6.00082C14.9013 6.00082 14.8036 5.9814 14.7125 5.94366C14.6214 5.90592 14.5386 5.85061 14.4689 5.78088L11.9999 3.31038L9.53088 5.78088C9.46121 5.85072 9.37844 5.90613 9.28733 5.94394C9.19621 5.98175 9.09853 6.00122 8.99988 6.00122C8.90122 6.00122 8.80354 5.98175 8.71242 5.94394C8.62131 5.90613 8.53854 5.85072 8.46888 5.78088Z" fill="#737373"/>
</svg>
