<svg width="16" height="9" viewBox="0 0 16 9" fill="none" xmlns="http://www.w3.org/2000/svg">
<path fill-rule="evenodd" clip-rule="evenodd" d="M15.4019 0.406986C15.3322 0.337141 15.2495 0.281726 15.1584 0.243917C15.0672 0.206107 14.9696 0.186645 14.8709 0.186645C14.7723 0.186645 14.6746 0.206107 14.5835 0.243917C14.4923 0.281726 14.4096 0.337141 14.3399 0.406986L8.24959 6.49881L2.15927 0.406985C2.01844 0.266155 1.82744 0.187037 1.62827 0.187037C1.42911 0.187037 1.2381 0.266155 1.09727 0.406985C0.956444 0.547815 0.877327 0.738821 0.877327 0.937985C0.877327 1.13715 0.956444 1.32815 1.09727 1.46899L7.71859 8.09031C7.78826 8.16015 7.87103 8.21557 7.96214 8.25338C8.05326 8.29118 8.15094 8.31065 8.24959 8.31065C8.34824 8.31065 8.44593 8.29118 8.53704 8.25338C8.62816 8.21557 8.71092 8.16015 8.78059 8.09031L15.4019 1.46899C15.4718 1.39932 15.5272 1.31655 15.565 1.22544C15.6028 1.13432 15.6223 1.03664 15.6223 0.937986C15.6223 0.839335 15.6028 0.741653 15.565 0.650535C15.5272 0.559418 15.4718 0.476654 15.4019 0.406986Z" fill="#737373"/>
</svg>
