<svg width="7" height="11" viewBox="0 0 7 11" fill="none" xmlns="http://www.w3.org/2000/svg">
<path fill-rule="evenodd" clip-rule="evenodd" d="M0.938764 0.396893C0.8922 0.443339 0.855257 0.498515 0.830051 0.55926C0.804844 0.620005 0.79187 0.685126 0.79187 0.750894C0.79187 0.816661 0.804844 0.881782 0.830051 0.942527C0.855257 1.00327 0.8922 1.05845 0.938764 1.10489L4.99998 5.16511L0.938764 9.22532C0.844877 9.31921 0.792132 9.44654 0.792132 9.57932C0.792132 9.7121 0.844877 9.83943 0.938764 9.93332C1.03265 10.0272 1.15999 10.08 1.29276 10.08C1.42554 10.08 1.55288 10.0272 1.64676 9.93332L6.06098 5.51911C6.10754 5.47266 6.14448 5.41748 6.16969 5.35674C6.1949 5.29599 6.20787 5.23087 6.20787 5.16511C6.20787 5.09934 6.1949 5.03422 6.16969 4.97347C6.14448 4.91273 6.10754 4.85755 6.06098 4.81111L1.64676 0.396893C1.60032 0.35033 1.54514 0.313387 1.4844 0.288181C1.42365 0.262974 1.35853 0.25 1.29276 0.25C1.227 0.25 1.16188 0.262974 1.10113 0.288181C1.04038 0.313387 0.985209 0.35033 0.938764 0.396893Z" fill="#4872F2"/>
</svg>
