<svg width="394" height="168" viewBox="0 0 394 168" fill="none" xmlns="http://www.w3.org/2000/svg">
<path d="M12.0389 87.9483C9.85 87.9483 9.85 97.041 6.56667 97.041C5.67052 97.041 1.6453 97.041 0.00349879 97.4672C0.00307317 106.915 0.00349879 160.541 0 168H394V97.4672C390.72 96.4727 389.625 94.4837 387.433 94.4837C384.15 94.4837 384.15 90.7898 381.961 90.7898C378.678 90.7898 378.678 89.3691 375.394 89.3691C372.111 89.3691 372.111 94.3416 368.828 94.3416C365.544 94.3416 365.544 77.1508 362.261 77.1508C360.072 77.1508 360.072 80.9868 356.789 80.9868C353.506 80.9868 353.506 80.7026 350.222 80.7026C346.939 80.7026 346.939 64.3643 343.656 64.3643C340.372 64.3643 340.372 51.5778 338.183 51.5778C334.9 51.5778 334.9 81.8392 331.617 81.8392C328.333 81.8392 328.333 47.5998 325.05 47.5998C321.767 47.5998 321.767 73.8832 318.483 73.8832C316.294 73.8832 316.294 42.4852 313.011 42.4852C309.728 42.4852 309.728 33.9608 306.444 33.9608C303.161 33.9608 303.161 59.2497 299.878 59.2497C296.594 59.2497 296.594 41.0644 294.406 41.0644C291.122 41.0644 291.122 43.3376 287.839 43.3376C284.556 43.3376 284.556 78.5716 281.272 78.5716C277.989 78.5716 277.989 49.4467 274.706 49.4467C272.517 49.4467 272.517 50.8674 269.233 50.8674C265.95 50.8674 265.95 82.1234 262.667 82.1234C259.383 82.1234 259.383 6.82497 256.1 6.82497C252.817 6.82497 252.817 18.9011 250.628 18.9011C247.344 18.9011 247.344 48.4522 244.061 48.4522C240.778 48.4522 240.778 18.1908 237.494 18.1908C234.211 18.1908 234.211 64.9326 230.928 64.9326C228.739 64.9326 228.739 79.7081 225.456 79.7081C222.172 79.7081 222.172 94.9099 218.889 94.9099C215.606 94.9099 215.606 64.9326 212.322 64.9326C209.039 64.9326 209.039 1 206.85 1C203.567 1 203.567 91.0739 200.283 91.0739C197 91.0739 197 65.3588 193.717 65.3588C190.433 65.3588 190.433 51.2936 187.15 51.2936C184.961 51.2936 184.961 44.3321 181.678 44.3321C178.394 44.3321 178.394 27.1413 175.111 27.1413C171.828 27.1413 171.828 21.0322 168.544 21.0322C165.261 21.0322 165.261 23.5895 163.072 23.5895C159.789 23.5895 159.789 84.1124 156.506 84.1124C153.222 84.1124 153.222 97.3251 149.939 97.3251C146.656 97.3251 146.656 84.3965 143.372 84.3965C141.183 84.3965 141.183 56.1241 137.9 56.1241C134.617 56.1241 134.617 75.588 131.333 75.588C128.05 75.588 128.05 85.6752 124.767 85.6752C121.483 85.6752 121.483 48.5943 119.294 48.5943C116.011 48.5943 116.011 72.0362 112.728 72.0362C109.444 72.0362 109.444 86.6697 106.161 86.6697C102.878 86.6697 102.878 45.1845 99.5944 45.1845C97.4055 45.1845 97.4056 23.0212 94.1222 23.0212C90.8389 23.0212 90.8389 32.8242 87.5556 32.8242C84.2722 32.8242 84.2722 86.8118 80.9889 86.8118C77.7056 86.8118 77.7056 37.6547 75.5167 37.6547C72.2333 37.6547 72.2333 79.9923 68.95 79.9923C65.6667 79.9923 65.6667 60.8125 62.3833 60.8125C59.1 60.8125 59.1 52.1461 55.8167 52.1461C53.6278 52.1461 53.6278 71.0417 50.3445 71.0417C47.0611 71.0417 47.0611 57.5448 43.7778 57.5448C40.4945 57.5448 40.4945 97.041 37.2111 97.041C33.9278 97.041 33.9278 87.238 31.7389 87.238C28.4555 87.238 28.4555 76.8667 25.1722 76.8667C21.8889 76.8667 21.8889 87.8063 18.6055 87.8063C15.3222 87.8063 15.3222 87.9483 12.0389 87.9483Z" fill="#4872F2" fill-opacity="0.33"/>
<path d="M12.0389 87.9483C9.85 87.9483 9.85 97.041 6.56667 97.041C5.67052 97.041 1.6453 97.041 0.00349879 97.4672C0.00307317 106.915 0.00349879 160.541 0 168H394V97.4672C390.72 96.4727 389.625 94.4837 387.433 94.4837C384.15 94.4837 384.15 90.7898 381.961 90.7898C378.678 90.7898 378.678 89.3691 375.394 89.3691C372.111 89.3691 372.111 94.3416 368.828 94.3416C365.544 94.3416 365.544 77.1508 362.261 77.1508C360.072 77.1508 360.072 80.9868 356.789 80.9868C353.506 80.9868 353.506 80.7026 350.222 80.7026C346.939 80.7026 346.939 64.3643 343.656 64.3643C340.372 64.3643 340.372 51.5778 338.183 51.5778C334.9 51.5778 334.9 81.8392 331.617 81.8392C328.333 81.8392 328.333 47.5998 325.05 47.5998C321.767 47.5998 321.767 73.8832 318.483 73.8832C316.294 73.8832 316.294 42.4852 313.011 42.4852C309.728 42.4852 309.728 33.9608 306.444 33.9608C303.161 33.9608 303.161 59.2497 299.878 59.2497C296.594 59.2497 296.594 41.0644 294.406 41.0644C291.122 41.0644 291.122 43.3376 287.839 43.3376C284.556 43.3376 284.556 78.5716 281.272 78.5716C277.989 78.5716 277.989 49.4467 274.706 49.4467C272.517 49.4467 272.517 50.8674 269.233 50.8674C265.95 50.8674 265.95 82.1234 262.667 82.1234C259.383 82.1234 259.383 6.82497 256.1 6.82497C252.817 6.82497 252.817 18.9011 250.628 18.9011C247.344 18.9011 247.344 48.4522 244.061 48.4522C240.778 48.4522 240.778 18.1908 237.494 18.1908C234.211 18.1908 234.211 64.9326 230.928 64.9326C228.739 64.9326 228.739 79.7081 225.456 79.7081C222.172 79.7081 222.172 94.9099 218.889 94.9099C215.606 94.9099 215.606 64.9326 212.322 64.9326C209.039 64.9326 209.039 1 206.85 1C203.567 1 203.567 91.0739 200.283 91.0739C197 91.0739 197 65.3588 193.717 65.3588C190.433 65.3588 190.433 51.2936 187.15 51.2936C184.961 51.2936 184.961 44.3321 181.678 44.3321C178.394 44.3321 178.394 27.1413 175.111 27.1413C171.828 27.1413 171.828 21.0322 168.544 21.0322C165.261 21.0322 165.261 23.5895 163.072 23.5895C159.789 23.5895 159.789 84.1124 156.506 84.1124C153.222 84.1124 153.222 97.3251 149.939 97.3251C146.656 97.3251 146.656 84.3965 143.372 84.3965C141.183 84.3965 141.183 56.1241 137.9 56.1241C134.617 56.1241 134.617 75.588 131.333 75.588C128.05 75.588 128.05 85.6752 124.767 85.6752C121.483 85.6752 121.483 48.5943 119.294 48.5943C116.011 48.5943 116.011 72.0362 112.728 72.0362C109.444 72.0362 109.444 86.6697 106.161 86.6697C102.878 86.6697 102.878 45.1845 99.5944 45.1845C97.4055 45.1845 97.4056 23.0212 94.1222 23.0212C90.8389 23.0212 90.8389 32.8242 87.5556 32.8242C84.2722 32.8242 84.2722 86.8118 80.9889 86.8118C77.7056 86.8118 77.7056 37.6547 75.5167 37.6547C72.2333 37.6547 72.2333 79.9923 68.95 79.9923C65.6667 79.9923 65.6667 60.8125 62.3833 60.8125C59.1 60.8125 59.1 52.1461 55.8167 52.1461C53.6278 52.1461 53.6278 71.0417 50.3445 71.0417C47.0611 71.0417 47.0611 57.5448 43.7778 57.5448C40.4945 57.5448 40.4945 97.041 37.2111 97.041C33.9278 97.041 33.9278 87.238 31.7389 87.238C28.4555 87.238 28.4555 76.8667 25.1722 76.8667C21.8889 76.8667 21.8889 87.8063 18.6055 87.8063C15.3222 87.8063 15.3222 87.9483 12.0389 87.9483Z" fill="url(#paint0_linear)"/>
<path d="M0 97C3.28333 97 3.28333 96.5758 6.56667 96.5758C9.85 96.5758 9.85 87.5272 12.0389 87.5272C15.3222 87.5272 15.3222 87.3859 18.6056 87.3859C21.8889 87.3859 21.8889 76.4993 25.1722 76.4993C28.4556 76.4993 28.4556 86.8203 31.7389 86.8203C33.9278 86.8203 33.9278 96.5758 37.2111 96.5758C40.4944 96.5758 40.4944 57.271 43.7778 57.271C47.0611 57.271 47.0611 70.7025 50.3444 70.7025C53.6278 70.7025 53.6278 51.8984 55.8167 51.8984C59.1 51.8984 59.1 60.5228 62.3833 60.5228C65.6667 60.5228 65.6667 79.6097 68.95 79.6097C72.2333 79.6097 72.2333 37.4772 75.5167 37.4772C77.7056 37.4772 77.7056 86.3962 80.9889 86.3962C84.2722 86.3962 84.2722 32.6701 87.5556 32.6701C90.8389 32.6701 90.8389 22.9146 94.1222 22.9146C97.4056 22.9146 97.4056 44.9705 99.5944 44.9705C102.878 44.9705 102.878 86.2548 106.161 86.2548C109.444 86.2548 109.444 71.6922 112.728 71.6922C116.011 71.6922 116.011 48.3638 119.294 48.3638C121.483 48.3638 121.483 85.2651 124.767 85.2651C128.05 85.2651 128.05 75.2268 131.333 75.2268C134.617 75.2268 134.617 55.8571 137.9 55.8571C141.183 55.8571 141.183 83.9926 143.372 83.9926C146.656 83.9926 146.656 96.8586 149.939 96.8586C153.222 96.8586 153.222 83.7099 156.506 83.7099C159.789 83.7099 159.789 23.4801 163.072 23.4801C165.261 23.4801 165.261 20.9352 168.544 20.9352C171.828 20.9352 171.828 27.0147 175.111 27.0147C178.394 27.0147 178.394 44.1222 181.678 44.1222C184.961 44.1222 184.961 51.0501 187.15 51.0501C190.433 51.0501 190.433 65.0471 193.717 65.0471C197 65.0471 197 90.6377 200.283 90.6377C203.567 90.6377 203.567 1 206.85 1C209.039 1 209.039 64.623 212.322 64.623C215.606 64.623 215.606 94.4551 218.889 94.4551C222.172 94.4551 222.172 79.3269 225.456 79.3269C228.739 79.3269 228.739 64.623 230.928 64.623C234.211 64.623 234.211 18.1075 237.494 18.1075C240.778 18.1075 240.778 48.2224 244.061 48.2224C247.344 48.2224 247.344 18.8144 250.628 18.8144C252.817 18.8144 252.817 6.79676 256.1 6.79676C259.383 6.79676 259.383 81.7305 262.667 81.7305C265.95 81.7305 265.95 50.6259 269.233 50.6259C272.517 50.6259 272.517 49.2121 274.706 49.2121C277.989 49.2121 277.989 78.1959 281.272 78.1959C284.556 78.1959 284.556 43.1325 287.839 43.1325C291.122 43.1325 291.122 40.8704 294.406 40.8704C296.594 40.8704 296.594 58.9676 299.878 58.9676C303.161 58.9676 303.161 33.8012 306.444 33.8012C309.728 33.8012 309.728 42.2842 313.011 42.2842C316.294 42.2842 316.294 73.5302 318.483 73.5302C321.767 73.5302 321.767 47.3741 325.05 47.3741C328.333 47.3741 328.333 81.4477 331.617 81.4477C334.9 81.4477 334.9 51.3328 338.183 51.3328C340.372 51.3328 340.372 64.0574 343.656 64.0574C346.939 64.0574 346.939 80.3166 350.222 80.3166C353.506 80.3166 353.506 80.5994 356.789 80.5994C360.072 80.5994 360.072 76.782 362.261 76.782C365.544 76.782 365.544 93.8895 368.828 93.8895C372.111 93.8895 372.111 88.9411 375.394 88.9411C378.678 88.9411 378.678 90.3549 381.961 90.3549C384.15 90.3549 384.15 94.0309 387.433 94.0309C390.717 94.0309 390.717 97 394 97" stroke="#007AFF"/>
<defs>
<linearGradient id="paint0_linear" x1="197.003" y1="1" x2="197.003" y2="168" gradientUnits="userSpaceOnUse">
<stop stop-color="white" stop-opacity="0"/>
<stop offset="1" stop-color="white"/>
</linearGradient>
</defs>
</svg>
