<svg width="20" height="20" viewBox="0 0 20 20" fill="none" xmlns="http://www.w3.org/2000/svg">
<path fill-rule="evenodd" clip-rule="evenodd" d="M4.05946 13.8269C4.17532 13.9432 4.2641 14.0836 4.31947 14.2382C4.37484 14.3927 4.39545 14.5576 4.37981 14.721C4.30136 15.4773 4.15263 16.2247 3.93555 16.9534C5.49269 16.5929 6.44371 16.1754 6.87569 15.9567C7.12071 15.8326 7.40287 15.8032 7.66821 15.8741C8.42884 16.0768 9.2128 16.1789 10 16.1777C14.4604 16.1777 17.8136 13.0444 17.8136 9.48032C17.8136 5.91733 14.4604 2.78297 10 2.78297C5.53957 2.78297 2.18643 5.91733 2.18643 9.48032C2.18643 11.1189 2.87514 12.6392 4.05946 13.8269ZM3.50916 18.1858C3.24469 18.2382 2.97936 18.2862 2.71329 18.3298C2.49004 18.3655 2.32038 18.1333 2.40856 17.9257C2.50767 17.6919 2.59851 17.4548 2.68092 17.2146L2.68427 17.2035C2.96109 16.3998 3.18657 15.4756 3.26917 14.615C1.89956 13.242 1.07021 11.4449 1.07021 9.48032C1.07021 5.165 5.06852 1.66675 10 1.66675C14.9315 1.66675 18.9298 5.165 18.9298 9.48032C18.9298 13.7956 14.9315 17.2939 10 17.2939C9.11556 17.2951 8.23479 17.1803 7.38022 16.9523C6.79979 17.2459 5.55073 17.7806 3.50916 18.1858Z" fill="#737373"/>
<path d="M6.65135 9.48024C6.65135 9.77628 6.53375 10.0602 6.32441 10.2695C6.11508 10.4789 5.83117 10.5965 5.53512 10.5965C5.23908 10.5965 4.95517 10.4789 4.74583 10.2695C4.5365 10.0602 4.4189 9.77628 4.4189 9.48024C4.4189 9.1842 4.5365 8.90028 4.74583 8.69095C4.95517 8.48162 5.23908 8.36401 5.53512 8.36401C5.83117 8.36401 6.11508 8.48162 6.32441 8.69095C6.53375 8.90028 6.65135 9.1842 6.65135 9.48024ZM11.1162 9.48024C11.1162 9.77628 10.9986 10.0602 10.7893 10.2695C10.58 10.4789 10.2961 10.5965 10 10.5965C9.70398 10.5965 9.42007 10.4789 9.21073 10.2695C9.0014 10.0602 8.8838 9.77628 8.8838 9.48024C8.8838 9.1842 9.0014 8.90028 9.21073 8.69095C9.42007 8.48162 9.70398 8.36401 10 8.36401C10.2961 8.36401 10.58 8.48162 10.7893 8.69095C10.9986 8.90028 11.1162 9.1842 11.1162 9.48024ZM15.5811 9.48024C15.5811 9.77628 15.4635 10.0602 15.2542 10.2695C15.0449 10.4789 14.761 10.5965 14.4649 10.5965C14.1689 10.5965 13.885 10.4789 13.6756 10.2695C13.4663 10.0602 13.3487 9.77628 13.3487 9.48024C13.3487 9.1842 13.4663 8.90028 13.6756 8.69095C13.885 8.48162 14.1689 8.36401 14.4649 8.36401C14.761 8.36401 15.0449 8.48162 15.2542 8.69095C15.4635 8.90028 15.5811 9.1842 15.5811 9.48024Z" fill="#737373"/>
</svg>
