<svg width="39" height="36" viewBox="0 0 39 36" fill="none" xmlns="http://www.w3.org/2000/svg">
<path d="M35.9531 21.4093C35.9531 24.7415 33.9538 24.9795 33.573 24.9795H4.30911L10.6046 18.684L8.92659 16.9941L0.596088 25.3246C0.134637 25.7888 0.134637 26.5384 0.596088 27.0026L8.92659 35.3331L10.6046 33.6551L4.30911 27.3597H33.573C35.2153 27.3597 38.3332 26.1696 38.3332 21.4093V17.8391H35.9531V21.4093Z" fill="white"/>
<path d="M2.63405 14.2687C2.63405 10.9365 4.63337 10.6985 5.01419 10.6985H34.278L27.9826 16.994L29.6606 18.672L37.9911 10.3415C38.4525 9.8773 38.4525 9.12771 37.9911 8.66351L29.6606 0.333008L27.9707 2.02291L34.278 8.31839H5.01419C3.37189 8.31839 0.253906 9.50846 0.253906 14.2687V17.839H2.63405V14.2687Z" fill="white"/>
</svg>
