<svg width="14" height="17" viewBox="0 0 14 17" fill="none" xmlns="http://www.w3.org/2000/svg">
<path fill-rule="evenodd" clip-rule="evenodd" d="M0.186925 0.186925C0.246028 0.127673 0.31624 0.0806622 0.39354 0.0485865C0.470839 0.0165108 0.553707 0 0.637398 0C0.721088 0 0.803956 0.0165108 0.881256 0.0485865C0.958555 0.0806622 1.02877 0.127673 1.08787 0.186925L8.72299 7.82205C8.78225 7.88115 8.82926 7.95136 8.86133 8.02866C8.89341 8.10596 8.90992 8.18883 8.90992 8.27252C8.90992 8.35621 8.89341 8.43908 8.86133 8.51638C8.82926 8.59368 8.78225 8.66389 8.72299 8.72299L1.08787 16.3581C0.968397 16.4776 0.806358 16.5447 0.637398 16.5447C0.468438 16.5447 0.306398 16.4776 0.186925 16.3581C0.0674526 16.2386 0.000333732 16.0766 0.000333732 15.9076C0.000333732 15.7387 0.0674526 15.5766 0.186925 15.4572L7.37285 8.27252L0.186925 1.08787C0.127673 1.02877 0.0806622 0.958555 0.0485865 0.881255C0.0165108 0.803956 0 0.721088 0 0.637398C0 0.553707 0.0165108 0.470839 0.0485865 0.39354C0.0806622 0.316241 0.127673 0.246029 0.186925 0.186925Z" fill="#B9B9B9"/>
<path fill-rule="evenodd" clip-rule="evenodd" d="M5.27677 0.186925C5.33587 0.127673 5.40608 0.0806622 5.48338 0.0485865C5.56068 0.0165108 5.64355 0 5.72724 0C5.81093 0 5.8938 0.0165108 5.9711 0.0485865C6.0484 0.0806622 6.11861 0.127673 6.17771 0.186925L13.8128 7.82205C13.8721 7.88115 13.9191 7.95136 13.9512 8.02866C13.9833 8.10596 13.9998 8.18883 13.9998 8.27252C13.9998 8.35621 13.9833 8.43908 13.9512 8.51638C13.9191 8.59368 13.8721 8.66389 13.8128 8.72299L6.17771 16.3581C6.05824 16.4776 5.8962 16.5447 5.72724 16.5447C5.55828 16.5447 5.39624 16.4776 5.27677 16.3581C5.1573 16.2386 5.09018 16.0766 5.09018 15.9076C5.09018 15.7387 5.1573 15.5766 5.27677 15.4572L12.4627 8.27252L5.27677 1.08787C5.21752 1.02877 5.17051 0.958555 5.13843 0.881255C5.10635 0.803956 5.08984 0.721088 5.08984 0.637398C5.08984 0.553707 5.10635 0.470839 5.13843 0.39354C5.17051 0.316241 5.21752 0.246029 5.27677 0.186925Z" fill="#B9B9B9"/>
</svg>
