<svg width="40" height="40" viewBox="0 0 40 40" fill="none" xmlns="http://www.w3.org/2000/svg">
<path fill-rule="evenodd" clip-rule="evenodd" d="M20 40C31.0457 40 40 31.0457 40 20C40 8.9543 31.0457 0 20 0C8.9543 0 0 8.9543 0 20C0 31.0457 8.9543 40 20 40ZM9.40229 17.4129C8.86529 17.5919 8.87029 17.8729 9.39229 18.0469L17.4463 20.7319L25.4463 14.7319L19.4463 22.7319L23.0403 30.8199C23.2643 31.3219 23.5693 31.3039 23.7193 30.7749L29.1733 11.6889C29.3213 11.1709 29.0183 10.8749 28.4893 11.0509L9.40229 17.4129Z" fill="#4872F2"/>
</svg>
