<svg width="60" height="60" viewBox="0 0 60 60" fill="none" xmlns="http://www.w3.org/2000/svg">
<path d="M15 3.75H33.75V7.5H15C14.0054 7.5 13.0516 7.89509 12.3483 8.59835C11.6451 9.30161 11.25 10.2554 11.25 11.25V48.75C11.25 49.7446 11.6451 50.6984 12.3483 51.4016C13.0516 52.1049 14.0054 52.5 15 52.5H45C45.9946 52.5 46.9484 52.1049 47.6516 51.4016C48.3549 50.6984 48.75 49.7446 48.75 48.75V22.5H52.5V48.75C52.5 50.7391 51.7098 52.6468 50.3033 54.0533C48.8968 55.4598 46.9891 56.25 45 56.25H15C13.0109 56.25 11.1032 55.4598 9.6967 54.0533C8.29018 52.6468 7.5 50.7391 7.5 48.75V11.25C7.5 9.26088 8.29018 7.35322 9.6967 5.9467C11.1032 4.54018 13.0109 3.75 15 3.75Z" fill="#DCDCDC"/>
<path d="M33.75 16.875V3.75L52.5 22.5H39.375C37.8832 22.5 36.4524 21.9074 35.3975 20.8525C34.3426 19.7976 33.75 18.3668 33.75 16.875Z" fill="#DCDCDC"/>
<path fill-rule="evenodd" clip-rule="evenodd" d="M21.1725 34.2969C21.3467 34.1223 21.5536 33.9838 21.7814 33.8893C22.0092 33.7947 22.2534 33.7461 22.5 33.7461C22.7466 33.7461 22.9908 33.7947 23.2186 33.8893C23.4464 33.9838 23.6533 34.1223 23.8275 34.2969L30 40.4732L36.1725 34.2969C36.5246 33.9449 37.0021 33.7471 37.5 33.7471C37.9979 33.7471 38.4754 33.9449 38.8275 34.2969C39.1796 34.649 39.3774 35.1265 39.3774 35.6244C39.3774 36.1224 39.1796 36.5999 38.8275 36.9519L31.3275 44.452C31.1533 44.6266 30.9464 44.7651 30.7186 44.8596C30.4908 44.9541 30.2466 45.0028 30 45.0028C29.7534 45.0028 29.5092 44.9541 29.2814 44.8596C29.0536 44.7651 28.8467 44.6266 28.6725 44.452L21.1725 36.9519C20.9979 36.7778 20.8593 36.5709 20.7648 36.3431C20.6703 36.1153 20.6216 35.8711 20.6216 35.6244C20.6216 35.3778 20.6703 35.1336 20.7648 34.9058C20.8593 34.678 20.9979 34.4711 21.1725 34.2969Z" fill="#DCDCDC"/>
<path fill-rule="evenodd" clip-rule="evenodd" d="M30 22.5C30.4973 22.5 30.9742 22.6975 31.3258 23.0492C31.6775 23.4008 31.875 23.8777 31.875 24.375V39.375C31.875 39.8723 31.6775 40.3492 31.3258 40.7008C30.9742 41.0525 30.4973 41.25 30 41.25C29.5027 41.25 29.0258 41.0525 28.6742 40.7008C28.3225 40.3492 28.125 39.8723 28.125 39.375V24.375C28.125 23.8777 28.3225 23.4008 28.6742 23.0492C29.0258 22.6975 29.5027 22.5 30 22.5Z" fill="#DCDCDC"/>
</svg>
