<svg width="24" height="24" viewBox="0 0 24 24" fill="none" xmlns="http://www.w3.org/2000/svg">
<g clip-path="url(#clip0)">
<path fill-rule="evenodd" clip-rule="evenodd" d="M13.2668 2.44997C12.8978 1.19747 11.1248 1.19747 10.7558 2.44997L10.6148 2.92847C10.4962 3.33039 10.2892 3.70069 10.009 4.01225C9.72872 4.32381 9.38235 4.56874 8.99519 4.72909C8.60804 4.88945 8.18992 4.96117 7.77146 4.939C7.353 4.91683 6.9448 4.80133 6.57676 4.60097L6.13876 4.36097C4.99276 3.73847 3.73876 4.99097 4.36276 6.13847L4.60126 6.57647C4.80162 6.94451 4.91712 7.35271 4.93929 7.77117C4.96146 8.18963 4.88974 8.60775 4.72938 8.9949C4.56903 9.38206 4.3241 9.72843 4.01254 10.0087C3.70098 10.2889 3.33068 10.4959 2.92876 10.6145L2.45026 10.7555C1.19776 11.1245 1.19776 12.8975 2.45026 13.2665L2.92876 13.4075C3.33089 13.526 3.70139 13.733 4.01311 14.0134C4.32483 14.2937 4.56985 14.6402 4.73023 15.0276C4.8906 15.4149 4.96226 15.8333 4.93994 16.2519C4.91763 16.6705 4.8019 17.0789 4.60126 17.447L4.36126 17.8835C3.73876 19.0295 4.99126 20.2835 6.13876 19.6595L6.57676 19.421C6.9449 19.2206 7.3532 19.1052 7.77174 19.0831C8.19028 19.061 8.60846 19.1329 8.99564 19.2934C9.38281 19.4539 9.72916 19.699 10.0093 20.0107C10.2895 20.3225 10.4963 20.6929 10.6148 21.095L10.7558 21.572C11.1248 22.8245 12.8978 22.8245 13.2668 21.572L13.4078 21.0935C13.5263 20.6913 13.7333 20.3208 14.0136 20.0091C14.294 19.6974 14.6405 19.4524 15.0279 19.292C15.4152 19.1316 15.8335 19.06 16.2522 19.0823C16.6708 19.1046 17.0792 19.2203 17.4473 19.421L17.8838 19.661C19.0298 20.2835 20.2838 19.031 19.6598 17.8835L19.4213 17.447C19.2206 17.0788 19.105 16.6703 19.0827 16.2516C19.0605 15.8329 19.1323 15.4145 19.2928 15.0271C19.4534 14.6398 19.6986 14.2933 20.0105 14.013C20.3223 13.7327 20.693 13.5258 21.0953 13.4075L21.5723 13.2665C22.8248 12.8975 22.8248 11.1245 21.5723 10.7555L21.0938 10.6145C20.6918 10.4959 20.3215 10.2889 20.01 10.0087C19.6984 9.72843 19.4535 9.38206 19.2931 8.9949C19.1328 8.60775 19.0611 8.18963 19.0832 7.77117C19.1054 7.35271 19.2209 6.94451 19.4213 6.57647L19.6613 6.13847C20.2838 4.99247 19.0313 3.73847 17.8838 4.36247L17.4473 4.60097C17.0791 4.8019 16.6706 4.91785 16.2518 4.94031C15.833 4.96277 15.4145 4.89118 15.0269 4.73078C14.6394 4.57039 14.2927 4.32526 14.0122 4.01339C13.7318 3.70151 13.5247 3.33081 13.4063 2.92847L13.2653 2.44997H13.2668ZM9.31726 2.02547C10.1078 -0.659531 13.9148 -0.659531 14.7053 2.02547L14.8463 2.50397C14.9015 2.6914 14.9979 2.8641 15.1285 3.00941C15.2592 3.15472 15.4206 3.26895 15.6011 3.34375C15.7817 3.41854 15.9766 3.45199 16.1717 3.44165C16.3668 3.4313 16.5572 3.37743 16.7288 3.28397L17.1668 3.04397C19.6268 1.70597 22.3178 4.39547 20.9768 6.85547L20.7383 7.29347C20.6448 7.46506 20.5909 7.65539 20.5806 7.8505C20.5702 8.04562 20.6037 8.24057 20.6785 8.42108C20.7533 8.60159 20.8675 8.76307 21.0128 8.89369C21.1581 9.02432 21.3308 9.12076 21.5183 9.17597L21.9968 9.31697C24.6818 10.1075 24.6818 13.9145 21.9968 14.705L21.5183 14.846C21.3308 14.9012 21.1581 14.9976 21.0128 15.1282C20.8675 15.2589 20.7533 15.4203 20.6785 15.6009C20.6037 15.7814 20.5702 15.9763 20.5806 16.1714C20.5909 16.3666 20.6448 16.5569 20.7383 16.7285L20.9783 17.1665C22.3178 19.6265 19.6253 22.3175 17.1668 20.9765L16.7288 20.738C16.5572 20.6445 16.3668 20.5906 16.1717 20.5803C15.9766 20.57 15.7817 20.6034 15.6011 20.6782C15.4206 20.753 15.2592 20.8672 15.1285 21.0125C14.9979 21.1578 14.9015 21.3305 14.8463 21.518L14.7053 21.9965C13.9148 24.6815 10.1078 24.6815 9.31726 21.9965L9.17626 21.518C9.12105 21.3305 9.02461 21.1578 8.89398 21.0125C8.76336 20.8672 8.60188 20.753 8.42137 20.6782C8.24086 20.6034 8.04591 20.57 7.85079 20.5803C7.65568 20.5906 7.46535 20.6445 7.29376 20.738L6.85576 20.978C4.39576 22.3175 1.70626 19.625 3.04576 17.1665L3.28426 16.7285C3.37772 16.5569 3.43159 16.3666 3.44194 16.1714C3.45228 15.9763 3.41883 15.7814 3.34404 15.6009C3.26924 15.4203 3.15501 15.2589 3.0097 15.1282C2.86439 14.9976 2.69169 14.9012 2.50426 14.846L2.02576 14.705C-0.659241 13.9145 -0.659241 10.1075 2.02576 9.31697L2.50426 9.17597C2.69169 9.12076 2.86439 9.02432 3.0097 8.89369C3.15501 8.76307 3.26924 8.60159 3.34404 8.42108C3.41883 8.24057 3.45228 8.04562 3.44194 7.8505C3.43159 7.65539 3.37772 7.46506 3.28426 7.29347L3.04426 6.85547C1.70626 4.39547 4.39726 1.70597 6.85576 3.04547L7.29376 3.28397C7.46535 3.37743 7.65568 3.4313 7.85079 3.44165C8.04591 3.45199 8.24086 3.41854 8.42137 3.34375C8.60188 3.26895 8.76336 3.15472 8.89398 3.00941C9.02461 2.8641 9.12105 2.6914 9.17626 2.50397L9.31726 2.02547Z" fill="#737373"/>
<path fill-rule="evenodd" clip-rule="evenodd" d="M12 8.63086C11.1065 8.63086 10.2496 8.98581 9.61775 9.61762C8.98594 10.2494 8.631 11.1063 8.631 11.9999C8.631 12.8934 8.98594 13.7503 9.61775 14.3821C10.2496 15.0139 11.1065 15.3689 12 15.3689C12.8935 15.3689 13.7504 15.0139 14.3822 14.3821C15.014 13.7503 15.369 12.8934 15.369 11.9999C15.369 11.1063 15.014 10.2494 14.3822 9.61762C13.7504 8.98581 12.8935 8.63086 12 8.63086ZM7.131 11.9999C7.131 11.3605 7.25694 10.7273 7.50163 10.1366C7.74632 9.54584 8.10497 9.00909 8.55709 8.55696C9.00922 8.10483 9.54598 7.74618 10.1367 7.50149C10.7274 7.2568 11.3606 7.13086 12 7.13086C12.6394 7.13086 13.2725 7.2568 13.8633 7.50149C14.454 7.74618 14.9908 8.10483 15.4429 8.55696C15.895 9.00909 16.2537 9.54584 16.4984 10.1366C16.7431 10.7273 16.869 11.3605 16.869 11.9999C16.869 13.2912 16.356 14.5296 15.4429 15.4428C14.5298 16.3559 13.2913 16.8689 12 16.8689C10.7087 16.8689 9.47021 16.3559 8.55709 15.4428C7.64398 14.5296 7.131 13.2912 7.131 11.9999Z" fill="#737373"/>
</g>
<defs>
<clipPath id="clip0">
<rect width="24" height="24" fill="white"/>
</clipPath>
</defs>
</svg>
