<svg width="16" height="16" viewBox="0 0 16 16" fill="none" xmlns="http://www.w3.org/2000/svg">
<path d="M8 0C3.58887 0 0 3.58887 0 8C0 12.4111 3.58887 16 8 16C12.4111 16 16 12.4111 16 8C16 3.58887 12.4111 0 8 0ZM8 15C4.14015 15 1.00001 11.8599 1.00001 8.00003C1.00001 4.14018 4.14015 1.00001 8 1.00001C11.8599 1.00001 15 4.14015 15 8C15 11.8599 11.8599 15 8 15Z" fill="#4872F2"/>
<path d="M7.5 12H8.50001V13H7.5V12Z" fill="#4872F2"/>
<path d="M8 3C6.34571 3 5 4.34568 5 6V7.00001H6.00001V6C6.00001 4.89696 6.89699 4.00001 8 4.00001C9.10304 4.00001 9.99999 4.89699 9.99999 6C9.99999 6.75049 9.60009 7.45702 8.95652 7.84325L7.74264 8.57127C7.59226 8.66161 7.49997 8.82419 7.49997 8.99997V11H8.49998V9.28317L9.47116 8.70066C10.414 8.13426 11 7.09959 11 5.99997C11 4.34569 9.65429 3 8 3Z" fill="#4872F2"/>
</svg>
