<svg width="20" height="20" viewBox="0 0 20 20" fill="none" xmlns="http://www.w3.org/2000/svg">
<g clip-path="url(#clip0)">
<path d="M15.0444 11.4938H15.0342L15.8644 10.3125C16.5699 9.30868 16.9405 8.14884 16.941 6.97009L15.0444 11.4938ZM15.0444 11.4938L10.2045 18.4011C10.1045 18.5438 9.89456 18.5431 9.79551 18.4018C8.69558 16.8326 6.67936 13.9558 4.95499 11.4938H4.96374L4.13732 10.3136C3.45465 9.33865 3.05888 8.19404 3.05888 6.97009C3.05888 6.15729 3.23426 5.35053 3.57722 4.59522C3.92029 3.83967 4.42527 3.14845 5.067 2.56304C5.70887 1.9775 6.47452 1.50979 7.3218 1.18963C8.16913 0.86946 9.07935 0.703979 9.99994 0.703979C10.9205 0.703979 11.8308 0.86946 12.6781 1.18963C13.5254 1.50979 14.291 1.9775 14.9329 2.56304C15.5746 3.14845 16.0796 3.83967 16.4227 4.59522C16.7656 5.35045 16.941 6.15711 16.941 6.96983L15.0444 11.4938Z" stroke="#737373" stroke-width="1.5"/>
<path d="M12.523 7.08336C12.523 8.47677 11.3934 9.60636 10 9.60636C8.60659 9.60636 7.47701 8.47677 7.47701 7.08336C7.47701 5.68995 8.60659 4.56036 10 4.56036C11.3934 4.56036 12.523 5.68995 12.523 7.08336Z" stroke="#737373" stroke-width="1.5"/>
</g>
<defs>
<clipPath id="clip0">
<rect width="20" height="20" fill="white"/>
</clipPath>
</defs>
</svg>
