<svg width="86" height="46" viewBox="0 0 86 46" fill="none" xmlns="http://www.w3.org/2000/svg">
<path d="M41.8663 15.8842C41.0473 16.7263 41.0473 18.092 41.8663 18.9346C42.6858 19.7768 44.0144 19.7768 44.8337 18.9346L59.6674 3.68242C60.486 2.83978 60.486 1.47415 59.6674 0.631979C58.8482 -0.21066 57.5197 -0.21066 56.7 0.631979L41.8663 15.8842Z" fill="#FECD1C"/>
<path d="M41.8663 2.66683C41.0473 3.50923 41.0473 4.87509 41.8663 5.71726C42.6858 6.55967 44.0144 6.55967 44.8337 5.71726L46.8107 3.68395C47.6304 2.84154 47.6304 1.47592 46.8107 0.633514C45.9922 -0.208893 44.6637 -0.208893 43.8445 0.633514L41.8663 2.66683Z" fill="#FECD1C"/>
<path d="M59.1756 24.5262C58.3561 25.3686 58.3561 26.7335 59.1756 27.5762C59.9942 28.4183 61.3228 28.4183 62.1421 27.5762L85.385 3.68381C86.2043 2.8414 86.2043 1.47671 85.385 0.634071C84.566 -0.208102 83.2376 -0.208102 82.4184 0.634071L59.1756 24.5262Z" fill="#FECD1C"/>
<path d="M51.7569 18.9346C50.9376 19.7768 50.9376 21.1424 51.7569 21.9841C52.5766 22.8265 53.905 22.8265 54.7243 21.9841L72.5272 3.68381C73.3467 2.8414 73.3467 1.47671 72.5272 0.634072C71.708 -0.208102 70.3793 -0.208102 69.5598 0.634072L51.7569 18.9346Z" fill="#FECD1C"/>
<path d="M64.6154 35.2015C63.796 34.3589 63.796 32.9933 64.6154 32.1516L82.4183 13.8513C83.2376 13.0089 84.566 13.0089 85.385 13.8513C86.2043 14.6928 86.2043 16.0589 85.385 16.901L67.5828 35.2015C66.7633 36.0435 65.4347 36.0435 64.6154 35.2015Z" fill="#FECD1C"/>
<path d="M80.4399 45.3682C79.6204 44.5268 79.6204 43.1609 80.4399 42.3187L82.4183 40.2852C83.2376 39.443 84.566 39.443 85.385 40.2852C86.2049 41.1278 86.2049 42.4925 85.385 43.3349L83.4066 45.3682C82.5876 46.2106 81.2592 46.2106 80.4399 45.3682Z" fill="#FECD1C"/>
<path d="M67.5828 45.3681C66.7633 44.5266 66.7633 43.1607 67.5828 42.3186L82.4183 27.068C83.2376 26.2254 84.566 26.2254 85.385 27.068C86.2049 27.9102 86.2049 29.2758 85.385 30.1184L70.5493 45.3681C69.7296 46.2105 68.4011 46.2105 67.5828 45.3681Z" fill="#FECD1C"/>
<path d="M58.4849 45.9999C60.3357 46.0041 61.7913 44.4161 61.488 42.5384C60.0566 33.6763 53.2399 26.6688 44.62 25.1976C42.7923 24.8856 41.2484 26.3822 41.2518 28.2848V42.5263C41.2557 44.4289 42.7797 45.9967 44.6309 45.9999H58.4849Z" fill="#FECD1C"/>
<path fill-rule="evenodd" clip-rule="evenodd" d="M20.2453 18.4285C20.6232 18.4285 20.9151 18.7786 20.8146 19.1565C20.6601 19.7392 20.424 20.2864 20.1083 20.7561L20.7316 21.4133C20.9479 21.6425 20.9475 22.0089 20.7305 22.2371C20.5078 22.4712 20.1439 22.4712 19.9216 22.2371L19.3287 21.6129L19.1836 21.7493C18.5332 22.3167 17.7457 22.6236 16.9122 22.6236C15.3259 22.6236 14.2075 21.7846 14.2075 20.2127C14.2075 19.0546 14.9265 18.3934 15.6113 17.9327L15.7623 17.8332L15.6113 17.6489C15.1205 17.0452 14.8468 16.6439 14.8468 15.9353C14.8468 14.8362 15.6457 14.0322 16.878 14.0322C18.0996 14.0322 19.0352 14.7411 19.0352 15.9113C19.0352 16.8209 18.4302 17.353 17.5171 18.0151L19.252 19.8707C19.4084 19.6013 19.5254 19.2872 19.6107 18.9599C19.6892 18.6572 19.9427 18.4285 20.2453 18.4285ZM18.5217 20.7682L16.5471 18.653L16.2162 18.8773C15.7258 19.2204 15.4862 19.6452 15.4862 20.1773C15.4862 21.0278 16.0909 21.4773 16.9583 21.4773C17.5746 21.4773 18.0996 21.2403 18.5217 20.7682ZM17.2093 16.9747C17.6087 16.6558 17.8479 16.384 17.8479 15.9464C17.8479 15.4262 17.4261 15.1082 16.9122 15.1082C16.3991 15.1082 16.0338 15.4032 16.0338 15.9585C16.0338 16.4313 16.3416 16.7744 16.6157 17.0452L16.8325 17.2585L17.2093 16.9747Z" fill="#E84245"/>
<path fill-rule="evenodd" clip-rule="evenodd" d="M0.278564 2.00448C0.278564 0.896856 1.15167 0.000244141 2.22891 0.000244141H7.80021C8.72356 0.000244141 9.47197 0.768669 9.47197 1.71763C9.47197 2.66658 8.72356 3.43594 7.80021 3.43594H4.45738C3.99594 3.43594 3.62162 3.82073 3.62162 4.29533V6.29979C3.62162 6.77439 3.99594 7.15802 4.45738 7.15802H7.41616C8.18584 7.15802 8.80956 7.80035 8.80956 8.59041C8.80956 9.3814 8.18584 10.0226 7.41616 10.0226H4.45738C3.99594 10.0226 3.62162 10.4074 3.62162 10.8817V14.8918C3.62162 15.8408 2.87321 16.6101 1.95009 16.6101C1.02697 16.6101 0.278564 15.8408 0.278564 14.8918V2.00448Z" fill="#E84245"/>
<path fill-rule="evenodd" clip-rule="evenodd" d="M13.0934 0.000244141C14.0165 0.000244141 14.7649 0.768669 14.7649 1.71763V6.29979C14.7649 7.56515 15.6003 8.8775 16.9932 8.8775C18.3866 8.8775 19.2217 7.56515 19.2217 6.29979V1.71763C19.2217 0.768669 19.9703 0.000244141 20.8934 0.000244141C21.8165 0.000244141 22.5649 0.768669 22.5649 1.71763V6.29979C22.5649 9.46306 20.0708 11.7409 16.9932 11.7409C13.9163 11.7409 11.4217 9.46306 11.4217 6.29979V1.71763C11.4217 0.768669 12.1703 0.000244141 13.0934 0.000244141Z" fill="#E84245"/>
<path fill-rule="evenodd" clip-rule="evenodd" d="M24.515 1.71763C24.515 0.768669 25.2634 0.000244141 26.1865 0.000244141H26.2252C26.8277 0.000244141 27.3842 0.333624 27.6804 0.872894L32.315 9.30673C32.315 9.30673 32.3153 5.0128 32.3153 1.71763C32.3153 0.768669 33.0634 0.000244141 33.987 0.000244141C34.9101 0.000244141 35.6583 0.768669 35.6583 1.71763V14.8918C35.6583 15.8408 34.9101 16.6101 33.987 16.6101H33.9479C33.3452 16.6101 32.7889 16.2758 32.4925 15.7366L27.8578 7.30226C27.8578 7.30226 27.8583 11.4717 27.8583 14.8918C27.8583 15.8408 27.1097 16.6101 26.1865 16.6101C25.2634 16.6101 24.515 15.8408 24.515 14.8918V1.71763Z" fill="#E84245"/>
<path fill-rule="evenodd" clip-rule="evenodd" d="M24.515 21.7647C24.515 20.8157 25.2634 20.0464 26.1865 20.0464H26.2252C26.8277 20.0464 27.3842 20.3807 27.6804 20.92L32.315 29.354C32.315 29.354 32.3153 25.0596 32.3153 21.7647C32.3153 20.8157 33.0634 20.0464 33.987 20.0464C34.9101 20.0464 35.6583 20.8157 35.6583 21.7647V34.9377C35.6583 35.8867 34.9101 36.6563 33.987 36.6563H33.9479C33.3452 36.6563 32.7889 36.3229 32.4925 35.7836L27.8578 27.3493C27.8578 27.3493 27.8583 31.5188 27.8583 34.9389C27.8583 35.8874 27.1097 36.6563 26.1865 36.6563C25.2634 36.6563 24.515 35.8867 24.515 34.9377V21.7647Z" fill="#E84245"/>
<path fill-rule="evenodd" clip-rule="evenodd" d="M13.0943 24.9153C14.0174 24.9153 14.7652 25.6837 14.7652 26.6327V31.2151C14.7652 32.4804 15.6009 33.7925 16.9941 33.7925C18.3868 33.7925 19.2226 32.4804 19.2226 31.2151V26.6327C19.2226 25.6837 19.9712 24.9153 20.8943 24.9153C21.8175 24.9153 22.5659 25.6837 22.5659 26.6327V31.2151C22.5659 34.3783 20.0712 36.6562 16.9941 36.6562C13.917 36.6562 11.4226 34.3783 11.4226 31.2151V26.6327C11.4226 25.6837 12.1712 24.9153 13.0943 24.9153Z" fill="#E84245"/>
<path d="M10.0289 31.9483C10.0289 33.4069 9.52721 34.5562 8.5242 35.3963C7.52776 36.2361 6.13866 36.6563 4.3567 36.6563C3.05451 36.6563 1.87181 36.4527 0.807701 36.0449C0.301898 35.8506 0 35.333 0 34.7786C0 33.7124 1.07022 33.0142 2.05467 33.3492C2.25699 33.4181 2.44913 33.4786 2.63063 33.5288C3.35347 33.7275 3.89367 33.7701 4.49022 33.7701C5.20604 33.7701 5.75303 33.6266 6.13188 33.3397C6.51774 33.0522 6.71078 32.6248 6.71078 32.0574C6.71078 31.741 6.62659 31.4611 6.45799 31.2173C6.28961 30.9672 6.04045 30.7276 5.71094 30.4993C5.38845 30.2709 4.84417 29.9633 3.84116 29.462C2.90084 28.9983 2.19611 28.5523 1.72584 28.1252C1.2558 27.6971 0.880347 27.2004 0.599722 26.6328C0.319324 26.0654 0.179011 25.4028 0.179011 24.6437C0.179011 23.2143 0.638421 22.0911 1.55747 21.2736C2.48375 20.4551 3.76037 20.0464 5.38799 20.0464C6.188 20.0464 6.94886 20.1457 7.67146 20.3451C8.00233 20.4351 8.33998 20.5417 8.68352 20.665C9.40364 20.9242 9.72727 21.7624 9.44008 22.4885C9.14452 23.2371 8.31441 23.5819 7.56962 23.3244C7.3114 23.2352 7.07536 23.1631 6.86105 23.108C6.32831 22.9679 5.95151 22.9098 5.43235 22.9098C4.81498 22.9098 4.34108 23.0615 4.01158 23.3637C3.68207 23.6659 3.51731 24.059 3.51731 24.5457C3.51731 24.8482 3.58385 25.1132 3.71715 25.3416C3.85067 25.5631 4.06046 25.7801 4.34832 25.9933C4.64298 26.2001 5.18454 26.5632 6.27219 27.1083C7.71016 27.8302 8.69597 28.5558 9.22893 29.2847C9.76234 30.0071 10.0289 30.8951 10.0289 31.9483Z" fill="#E84245"/>
<path d="M1.39837 39.531H34.2598C35.0324 39.531 35.6584 40.1745 35.6584 40.9687V44.5626C35.6584 45.3562 35.0324 45.9997 34.2598 45.9997H1.39837C0.626201 45.9997 0 45.3562 0 44.5626V40.9687C0 40.1745 0.626201 39.531 1.39837 39.531Z" fill="#E84245"/>
<path d="M3.79455 44.5058C3.79455 44.7035 3.63749 44.8648 3.44445 44.8648H1.74803C1.55476 44.8648 1.39838 44.7035 1.39838 44.5058V41.0345C1.39838 40.8356 1.55476 40.6753 1.74803 40.6753H3.44445C3.63749 40.6753 3.79455 40.8356 3.79455 41.0345V41.2246C3.79455 41.4225 3.63749 41.5835 3.44445 41.5835H2.80919C2.63222 41.5835 2.48874 41.731 2.48874 41.9127C2.48874 42.0949 2.63222 42.2424 2.80919 42.2424H3.34781C3.54086 42.2424 3.69769 42.4036 3.69769 42.6025V42.7917C3.69769 42.9901 3.54086 43.1513 3.34781 43.1513H2.83794C2.64535 43.1513 2.48874 43.3116 2.48874 43.5103V43.5824C2.48874 43.7813 2.64535 43.9416 2.83794 43.9416H3.44445C3.63749 43.9416 3.79455 44.1029 3.79455 44.3015V44.5058Z" fill="#FEFEFE"/>
<path d="M6.89816 44.8648C6.74178 44.8648 6.60441 44.7575 6.56163 44.603L5.81096 41.8576C5.80938 41.8513 5.80372 41.8474 5.79806 41.8474C5.78969 41.8474 5.78403 41.8546 5.78449 41.8625C5.82228 42.3689 5.84129 42.7633 5.84129 43.0448V44.5058C5.84129 44.7035 5.68468 44.8648 5.49164 44.8648H5.22505C5.03155 44.8648 4.8754 44.7035 4.8754 44.5058V41.0345C4.8754 40.8356 5.03155 40.6753 5.22505 40.6753H6.06488C6.22013 40.6753 6.35705 40.7804 6.40028 40.9345L7.16611 43.6385C7.16747 43.645 7.17358 43.6499 7.18014 43.6499C7.1867 43.6499 7.19214 43.645 7.19417 43.6385L7.94416 40.9361C7.98694 40.7821 8.12408 40.6753 8.28024 40.6753H9.12143C9.31447 40.6753 9.47108 40.8356 9.47108 41.0345V44.5058C9.47108 44.7035 9.31447 44.8648 9.12143 44.8648H8.81863C8.62558 44.8648 8.4692 44.7035 8.4692 44.5058V43.0278C8.4692 42.9324 8.46988 42.8266 8.47169 42.7095C8.47554 42.5944 8.48799 42.3136 8.50994 41.8683C8.51017 41.8602 8.50383 41.8529 8.49614 41.8529C8.4898 41.8529 8.48437 41.8571 8.48301 41.8634L7.74275 44.6009C7.70065 44.7568 7.5626 44.8648 7.40577 44.8648H6.89816Z" fill="#FEFEFE"/>
<path d="M17.3738 44.5058C17.3738 44.7035 17.2177 44.8648 17.0247 44.8648H16.6334C16.4405 44.8648 16.2839 44.7035 16.2839 44.5058V41.9602C16.2839 41.7624 16.1276 41.6012 15.9345 41.6012H15.6485C15.455 41.6012 15.2986 41.4402 15.2986 41.2415V41.0345C15.2986 40.8356 15.455 40.6753 15.6485 40.6753H18.0071C18.2003 40.6753 18.3569 40.8356 18.3569 41.0345V41.2415C18.3569 41.4402 18.2003 41.6012 18.0071 41.6012H17.724C17.5309 41.6012 17.3738 41.7624 17.3738 41.9602V44.5058Z" fill="#FEFEFE"/>
<path d="M19.6578 44.8648C19.4647 44.8648 19.3081 44.7035 19.3081 44.5058V41.0345C19.3081 40.8356 19.4647 40.6753 19.6578 40.6753H20.0545C20.2476 40.6753 20.4037 40.8356 20.4037 41.0345V44.5058C20.4037 44.7035 20.2476 44.8648 20.0545 44.8648H19.6578Z" fill="#FEFEFE"/>
<path d="M22.6523 42.7642C22.6523 43.5745 22.9243 43.9793 23.4668 43.9793C23.7429 43.9793 23.947 43.8806 24.0797 43.684C24.2141 43.4872 24.2811 43.1811 24.2811 42.7642C24.2811 42.3459 24.2127 42.0371 24.0769 41.8385C23.9425 41.6379 23.7413 41.5379 23.4722 41.5379C22.9257 41.5379 22.6523 41.9466 22.6523 42.7642ZM25.4291 42.7642C25.4291 43.4686 25.2626 44.0048 24.9299 44.3717C24.5963 44.7391 24.1093 44.9219 23.4668 44.9219C22.8338 44.9219 22.3479 44.7374 22.0096 44.3685C21.6726 44.0002 21.5042 43.4637 21.5042 42.7586C21.5042 42.0611 21.6722 41.529 22.0066 41.1629C22.3432 40.7941 22.8322 40.6099 23.4722 40.6099C24.1145 40.6099 24.6011 40.7916 24.9326 41.1566C25.2637 41.5221 25.4291 42.0569 25.4291 42.7642Z" fill="#FEFEFE"/>
<path d="M30.3747 44.5058C30.3747 44.7035 30.2181 44.8648 30.0248 44.8648H29.1585C29.0275 44.8648 28.9073 44.7896 28.8471 44.6693L27.475 41.9218C27.4727 41.9165 27.4677 41.9127 27.4621 41.9127C27.4535 41.9127 27.4465 41.9211 27.4476 41.9292C27.4816 42.3859 27.4983 42.7344 27.4983 42.9766V44.5058C27.4983 44.7035 27.3421 44.8648 27.1491 44.8648H26.8821C26.689 44.8648 26.5324 44.7035 26.5324 44.5058V41.0345C26.5324 40.8356 26.689 40.6753 26.8821 40.6753H27.7445C27.8744 40.6753 27.9941 40.75 28.0546 40.8696L29.4222 43.5808C29.4242 43.5841 29.4271 43.5866 29.4312 43.5866C29.4371 43.5866 29.4412 43.5815 29.4409 43.5761C29.4156 43.1585 29.4032 42.8235 29.4032 42.5695V41.0345C29.4032 40.8356 29.5595 40.6753 29.7528 40.6753H30.0248C30.2181 40.6753 30.3747 40.8356 30.3747 41.0345V44.5058Z" fill="#FEFEFE"/>
<path d="M34.2598 43.5919C34.2598 43.8515 34.1966 44.0833 34.0692 44.2859C33.9427 44.4862 33.7594 44.6428 33.5202 44.7556C33.2812 44.8661 33.0006 44.9217 32.6785 44.9217C32.4099 44.9217 32.1847 44.9024 32.0019 44.8645C31.8828 44.8382 31.7604 44.7998 31.6348 44.7491C31.5099 44.6979 31.4338 44.5702 31.4338 44.4327V44.241C31.4338 43.9711 31.7145 43.7938 31.9643 43.8748C32.0032 43.8876 32.0426 43.899 32.0824 43.9099C32.3067 43.9711 32.5129 44.0021 32.7005 44.0021C32.8623 44.0021 32.9809 43.9732 33.0567 43.9155C33.1321 43.8574 33.1696 43.781 33.1696 43.6896C33.1696 43.6319 33.154 43.5831 33.1228 43.5405C33.0931 43.4963 33.0445 43.4523 32.9766 43.409C32.9105 43.3651 32.7317 43.2753 32.4411 43.1399C32.1779 43.0156 31.9802 42.8944 31.8475 42.7781C31.7172 42.662 31.6194 42.528 31.5551 42.3777C31.4927 42.2261 31.461 42.0476 31.461 41.8413C31.461 41.456 31.5963 41.1547 31.867 40.9388C32.1372 40.7225 32.5093 40.615 32.982 40.615C33.3002 40.615 33.6232 40.6727 33.9504 40.7892C34.1267 40.8516 34.2061 41.0559 34.1382 41.2348L34.0615 41.4341C33.9882 41.6275 33.7728 41.7131 33.5824 41.6458C33.3473 41.5626 33.1361 41.5207 32.949 41.5207C32.8073 41.5207 32.7043 41.5458 32.6396 41.5977C32.5753 41.6491 32.543 41.7131 32.543 41.7901C32.543 41.8717 32.5839 41.9455 32.6647 42.0106C32.7473 42.0753 32.97 42.193 33.3328 42.3656C33.6804 42.528 33.9214 42.7027 34.0556 42.8898C34.1919 43.075 34.2598 43.3097 34.2598 43.5919Z" fill="#FEFEFE"/>
<path d="M12.5727 44.9473C11.8413 44.9473 11.1592 44.5418 10.7937 43.8899C10.6749 43.6794 10.7459 43.4084 10.9507 43.2872C11.1562 43.1655 11.4183 43.2376 11.5375 43.4482C11.7505 43.8281 12.147 44.0637 12.5727 44.0637C12.9839 44.0637 13.3609 43.8516 13.5823 43.4949C13.7092 43.2897 13.9754 43.229 14.1752 43.3604C14.3748 43.4919 14.4336 43.7643 14.3062 43.9702C13.9263 44.5818 13.2785 44.9473 12.5727 44.9473Z" fill="#FECD1C"/>
<path d="M11.6848 41.3303C11.4361 41.3303 11.234 41.538 11.234 41.7939C11.234 42.0498 11.4361 42.2584 11.6848 42.2584C11.9336 42.2584 12.1361 42.0498 12.1361 41.7939C12.1361 41.538 11.9336 41.3303 11.6848 41.3303Z" fill="#FECD1C"/>
<path d="M13.4577 41.3303C13.209 41.3303 13.0063 41.538 13.0063 41.7939C13.0063 42.0498 13.209 42.2584 13.4577 42.2584C13.7065 42.2584 13.9088 42.0498 13.9088 41.7939C13.9088 41.538 13.7065 41.3303 13.4577 41.3303Z" fill="#FECD1C"/>
</svg>
