<svg width="40" height="50" viewBox="0 0 40 50" fill="none" xmlns="http://www.w3.org/2000/svg">
<path d="M28.0225 0H2.10996C1.38853 0 0.803711 0.584821 0.803711 1.71964V49.1071C0.803711 49.4152 1.38853 50 2.10996 50H37.8903C38.6117 50 39.1966 49.4152 39.1966 49.1071V11.5875C39.1966 10.9661 39.1135 10.7661 38.9671 10.6187L28.5778 0.229464C28.4305 0.0830357 28.2305 0 28.0225 0Z" fill="#E9E9E0"/>
<path d="M28.4824 0.134827V10.7143H39.0619L28.4824 0.134827Z" fill="#D9D7CA"/>
<path d="M12.423 29.7536C12.1123 29.7536 11.8141 29.6527 11.5596 29.4625C10.6301 28.7652 10.5051 27.9893 10.5641 27.4607C10.7266 26.0071 12.5239 24.4857 15.9078 22.9357C17.2507 19.9928 18.5283 16.367 19.2899 13.3375C18.3989 11.3982 17.5328 8.88213 18.1641 7.40624C18.3855 6.88928 18.6614 6.49285 19.1766 6.32142C19.3801 6.25356 19.8944 6.16785 20.0837 6.16785C20.5337 6.16785 20.9292 6.74731 21.2096 7.10445C21.473 7.44017 22.0703 8.15178 20.8766 13.1777C22.0801 15.6634 23.7855 18.1955 25.4194 19.9295C26.59 19.7178 27.5971 19.6098 28.4176 19.6098C29.8158 19.6098 30.6632 19.9357 31.0087 20.6071C31.2944 21.1625 31.1775 21.8116 30.6605 22.5357C30.1632 23.2312 29.4775 23.5991 28.6783 23.5991C27.5926 23.5991 26.3283 22.9134 24.9185 21.5589C22.3855 22.0884 19.4274 23.033 17.0364 24.0786C16.2899 25.6625 15.5748 26.9384 14.9087 27.8741C13.9935 29.1554 13.2042 29.7536 12.423 29.7536ZM14.7998 25.1768C12.8917 26.2491 12.1141 27.1304 12.0578 27.6268C12.0489 27.7089 12.0248 27.925 12.4426 28.2446C12.5757 28.2027 13.3524 27.8482 14.7998 25.1768ZM26.9757 21.2107C27.7033 21.7705 27.881 22.0536 28.3569 22.0536C28.5658 22.0536 29.1614 22.0446 29.4373 21.6598C29.5703 21.4732 29.6221 21.3536 29.6426 21.2893C29.5328 21.2312 29.3873 21.1134 28.5935 21.1134C28.1426 21.1143 27.5757 21.1339 26.9757 21.2107ZM20.306 15.3339C19.6676 17.5428 18.8248 19.9277 17.9185 22.0875C19.7846 21.3634 21.8132 20.7312 23.7185 20.2839C22.5132 18.8839 21.3087 17.1357 20.306 15.3339ZM19.7641 7.77856C19.6766 7.80803 18.5766 9.34731 19.8498 10.65C20.6971 8.7616 19.8024 7.76606 19.7641 7.77856Z" fill="#CC4B4C"/>
<path d="M37.8903 50H2.10996C1.38853 50 0.803711 49.4152 0.803711 48.6937V34.8214H39.1966V48.6937C39.1966 49.4152 38.6117 50 37.8903 50Z" fill="#CC4B4C"/>
<path d="M10.5228 47.3214H9.05762V38.325H11.6451C12.0273 38.325 12.4058 38.3857 12.7799 38.508C13.154 38.6304 13.4898 38.8134 13.7871 39.0572C14.0844 39.3009 14.3246 39.5964 14.5076 39.942C14.6907 40.2875 14.7826 40.6759 14.7826 41.108C14.7826 41.5643 14.7049 41.9768 14.5505 42.3473C14.396 42.7179 14.1799 43.0295 13.9032 43.2813C13.6264 43.533 13.2924 43.7286 12.9023 43.867C12.5121 44.0054 12.0799 44.0741 11.6085 44.0741H10.5219V47.3214H10.5228ZM10.5228 39.4357V43H11.8657C12.0442 43 12.221 42.9697 12.3969 42.908C12.5719 42.8473 12.7326 42.7473 12.879 42.6089C13.0255 42.4705 13.1433 42.2777 13.2326 42.0295C13.3219 41.7813 13.3665 41.4741 13.3665 41.108C13.3665 40.9616 13.346 40.792 13.3058 40.6018C13.2648 40.4107 13.1817 40.2277 13.0558 40.0527C12.929 39.8777 12.7523 39.7313 12.5246 39.6134C12.2969 39.4955 11.9951 39.4366 11.621 39.4366H10.5228V39.4357Z" fill="white"/>
<path d="M23.7673 42.5732C23.7673 43.3134 23.6878 43.9464 23.5289 44.4714C23.37 44.9964 23.1691 45.4357 22.9244 45.7902C22.6798 46.1447 22.4057 46.4232 22.1003 46.6268C21.795 46.8304 21.5003 46.9822 21.2155 47.0848C20.9307 47.1866 20.67 47.2518 20.4343 47.2804C20.1986 47.3072 20.0236 47.3214 19.9093 47.3214H16.5039V38.325H19.2137C19.9709 38.325 20.6361 38.4455 21.2093 38.6848C21.7825 38.9241 22.2593 39.2447 22.6378 39.6429C23.0164 40.0411 23.2986 40.4955 23.4861 41.0036C23.6736 41.5125 23.7673 42.0357 23.7673 42.5732ZM19.4218 46.2473C20.4146 46.2473 21.1307 45.9304 21.57 45.2955C22.0093 44.6607 22.2289 43.7411 22.2289 42.5366C22.2289 42.1625 22.1843 41.792 22.095 41.4259C22.0048 41.0598 21.8325 40.7286 21.5762 40.4313C21.32 40.1339 20.9718 39.8938 20.5325 39.7107C20.0932 39.5277 19.5236 39.4357 18.8236 39.4357H17.9691V46.2473H19.4218Z" fill="white"/>
<path d="M27.3809 39.4357V42.2679H31.1407V43.2688H27.3809V47.3214H25.8916V38.325H31.5184V39.4357H27.3809Z" fill="white"/>
</svg>
