<svg width="22" height="19" viewBox="0 0 22 19" fill="none" xmlns="http://www.w3.org/2000/svg">
<path d="M19.3955 0H2.60453C1.16373 0 0 1.19504 0 2.66193V15.6714C0 17.144 1.16927 18.3333 2.60453 18.3333H19.3955C20.8363 18.3333 22 17.1383 22 15.6714V2.66193C22 1.18937 20.8307 0 19.3955 0ZM1.15264 2.80919C1.15819 1.98229 1.76222 1.18371 2.57683 1.18371H19.4232C20.2322 1.18371 20.8418 1.98229 20.8418 2.80919V8.04809L14.1809 12.041C13.5491 12.4318 12.74 12.3582 12.1859 11.8654L8.88312 8.90897C7.86902 8.00278 6.3728 7.94048 5.29219 8.76171L1.15264 11.8371V2.80919ZM20.8474 15.5298C20.8418 16.3624 20.2378 17.161 19.4232 17.161H2.57683C1.76776 17.161 1.15819 16.3624 1.15819 15.5355V13.3153L5.99043 9.70755C6.64433 9.22614 7.53652 9.27711 8.13501 9.82649L11.4378 12.7546C12.3688 13.5758 13.7043 13.7061 14.7683 13.0774L20.8474 9.40737V15.5298Z" fill="#737373"/>
</svg>
