<svg width="40" height="40" viewBox="0 0 40 40" fill="none" xmlns="http://www.w3.org/2000/svg">
<circle cx="20" cy="20" r="19.5" stroke="#B9B9B9"/>
<path fill-rule="evenodd" clip-rule="evenodd" d="M23.4348 28.2239C23.5124 28.1465 23.574 28.0546 23.616 27.9533C23.658 27.8521 23.6796 27.7435 23.6796 27.6339C23.6796 27.5243 23.658 27.4158 23.616 27.3145C23.574 27.2133 23.5124 27.1213 23.4348 27.0439L16.6661 20.2769L23.4348 13.5099C23.5913 13.3534 23.6792 13.1412 23.6792 12.9199C23.6792 12.6986 23.5913 12.4864 23.4348 12.3299C23.2783 12.1734 23.0661 12.0855 22.8448 12.0855C22.6235 12.0855 22.4113 12.1734 22.2548 12.3299L14.8977 19.6869C14.8201 19.7643 14.7586 19.8563 14.7166 19.9575C14.6745 20.0588 14.6529 20.1673 14.6529 20.2769C14.6529 20.3865 14.6745 20.4951 14.7166 20.5963C14.7586 20.6975 14.8201 20.7895 14.8977 20.8669L22.2548 28.2239C22.3322 28.3015 22.4241 28.3631 22.5254 28.4051C22.6266 28.4471 22.7352 28.4688 22.8448 28.4688C22.9544 28.4688 23.0629 28.4471 23.1642 28.4051C23.2654 28.3631 23.3574 28.3015 23.4348 28.2239Z" fill="#B9B9B9"/>
</svg>
