<svg width="24" height="24" viewBox="0 0 24 24" fill="none" xmlns="http://www.w3.org/2000/svg">
<g clip-path="url(#clip0)">
<path fill-rule="evenodd" clip-rule="evenodd" d="M19.2449 10.0589C18.9558 8.97914 18.4289 7.97766 17.7029 7.12772C16.9769 6.27778 16.07 5.60087 15.0487 5.14651C14.0274 4.69215 12.9175 4.47183 11.8 4.50165C10.6826 4.53148 9.58602 4.8107 8.5904 5.3189C8.50255 5.36362 8.40675 5.39059 8.30847 5.39828C8.21019 5.40597 8.11136 5.39423 8.01762 5.36373C7.92388 5.33322 7.83706 5.28455 7.76213 5.2205C7.6872 5.15644 7.62562 5.07826 7.5809 4.9904C7.53619 4.90255 7.50922 4.80675 7.50152 4.70847C7.49383 4.61019 7.50558 4.51136 7.53608 4.41762C7.56658 4.32388 7.61525 4.23706 7.67931 4.16213C7.74336 4.0872 7.82155 4.02562 7.9094 3.9809C9.80401 3.01416 11.9798 2.74967 14.0508 3.23435C16.1219 3.71903 17.9543 4.92155 19.2232 6.62863C20.4921 8.33571 21.1153 10.437 20.9824 12.5599C20.8495 14.6827 19.9691 16.6899 18.4972 18.2254C17.0254 19.7609 15.0573 20.7255 12.9419 20.9481C10.8266 21.1708 8.70082 20.637 6.94157 19.4415C5.18231 18.246 3.90332 16.4661 3.33142 14.4174C2.75953 12.3687 2.9317 10.1837 3.8174 8.2499C3.85847 8.16028 3.9168 8.07962 3.98904 8.01253C4.06128 7.94544 4.14603 7.89324 4.23845 7.8589C4.33087 7.82457 4.42914 7.80877 4.52767 7.81242C4.62619 7.81607 4.72303 7.83908 4.81265 7.88015C4.90228 7.92122 4.98294 7.97955 5.05003 8.05179C5.11712 8.12403 5.16932 8.20878 5.20365 8.3012C5.23799 8.39362 5.25378 8.49189 5.25014 8.59041C5.24649 8.68894 5.22347 8.78578 5.1824 8.8754C4.68094 9.96958 4.45019 11.1684 4.50963 12.3705C4.56908 13.5727 4.91697 14.7429 5.52394 15.7822C6.1309 16.8216 6.9791 17.6996 7.99688 18.3421C9.01466 18.9846 10.1721 19.3728 11.3715 19.4737C12.5709 19.5746 13.7769 19.3854 14.8878 18.9221C15.9986 18.4587 16.9817 17.7348 17.7538 16.8115C18.5259 15.8882 19.0645 14.7926 19.3241 13.6173C19.5836 12.442 19.5564 11.2215 19.2449 10.0589Z" fill="#4872F2"/>
<path fill-rule="evenodd" clip-rule="evenodd" d="M11.7809 0.21912C11.7112 0.149275 11.6284 0.0938608 11.5373 0.0560512C11.4462 0.0182415 11.3485 -0.0012207 11.2499 -0.0012207C11.1512 -0.0012207 11.0535 0.0182415 10.9624 0.0560512C10.8713 0.0938608 10.7885 0.149275 10.7189 0.21912L6.96888 3.96912C6.89903 4.03879 6.84362 4.12155 6.80581 4.21267C6.768 4.30379 6.74854 4.40147 6.74854 4.50012C6.74854 4.59877 6.768 4.69645 6.80581 4.78757C6.84362 4.87869 6.89903 4.96145 6.96888 5.03112L10.7189 8.78112C10.8597 8.92195 11.0507 9.00107 11.2499 9.00107C11.449 9.00107 11.64 8.92195 11.7809 8.78112C11.9217 8.64029 12.0008 8.44928 12.0008 8.25012C12.0008 8.05096 11.9217 7.85995 11.7809 7.71912L8.56038 4.50012L11.7809 1.28112C11.8507 1.21145 11.9061 1.12869 11.9439 1.03757C11.9818 0.946453 12.0012 0.848771 12.0012 0.75012C12.0012 0.651469 11.9818 0.553787 11.9439 0.46267C11.9061 0.371552 11.8507 0.288788 11.7809 0.21912Z" fill="#4872F2"/>
</g>
<defs>
<clipPath id="clip0">
<rect width="24" height="24" fill="white"/>
</clipPath>
</defs>
</svg>
