<svg width="13" height="14" viewBox="0 0 13 14" fill="none" xmlns="http://www.w3.org/2000/svg">
<path d="M0.886357 11.7725H2.95458V13.6819C2.95458 13.7748 2.98217 13.8508 3.0377 13.9103C3.09308 13.9701 3.16387 14 3.25011 14H4.79194C4.87195 14 4.94119 13.9701 4.99968 13.9103C5.05817 13.8508 5.08732 13.7747 5.08732 13.6819V11.7725H9.74995C9.83601 11.7725 9.90683 11.743 9.96233 11.6832C10.0179 11.6234 10.0455 11.5473 10.0455 11.4544V10.1816C10.0455 10.0893 10.0179 10.0127 9.96233 9.95322C9.90698 9.89339 9.83601 9.86348 9.74995 9.86348H5.08717V8.69013H8.22637C9.45737 8.69013 10.4621 8.28618 11.2409 7.47713C12.0195 6.66893 12.409 5.62492 12.409 4.34507C12.409 3.06606 12.0195 2.02203 11.2409 1.213C10.4622 0.404774 9.45734 0 8.22637 0H3.24996C3.1637 0 3.09305 0.0298867 3.03755 0.0893581C2.98217 0.149159 2.95442 0.225728 2.95442 0.318105V6.57252H0.886357C0.800119 6.57252 0.729452 6.60394 0.673949 6.6669C0.618598 6.72988 0.59082 6.80445 0.59082 6.89059V8.37197C0.59082 8.46487 0.618419 8.54097 0.673949 8.60075C0.729478 8.66058 0.799966 8.69011 0.886357 8.69011H2.95458V9.86345H0.886357C0.800119 9.86345 0.729452 9.89337 0.673949 9.9532C0.618598 10.0126 0.59082 10.0891 0.59082 10.1816V11.4544C0.59082 11.5473 0.618419 11.6234 0.673949 11.6831C0.729452 11.743 0.800094 11.7725 0.886357 11.7725ZM5.08717 2.11811H8.04171C8.6941 2.11811 9.22029 2.32353 9.62051 2.73451C10.0205 3.14551 10.2206 3.68262 10.2206 4.34523C10.2206 5.00817 10.0205 5.54545 9.62051 5.95596C9.22029 6.36729 8.69407 6.57271 8.04171 6.57271H5.08717V2.11811Z" fill="#737373"/>
</svg>
