<svg width="20" height="20" viewBox="0 0 20 20" fill="none" xmlns="http://www.w3.org/2000/svg">
<mask id="path-1-inside-1" fill="white">
<path d="M10 1C5.0374 1 1 5.0374 1 10C1 14.9626 5.0374 19 10 19C14.9626 19 19 14.9626 19 10C19 5.0374 14.9626 1 10 1ZM10 18.1818C5.48846 18.1818 1.81818 14.5115 1.81818 10C1.81818 5.48855 5.48846 1.81818 10 1.81818C14.5115 1.81818 18.1818 5.48855 18.1818 10C18.1818 14.5115 14.5115 18.1818 10 18.1818Z"/>
</mask>
<path d="M10 1C5.0374 1 1 5.0374 1 10C1 14.9626 5.0374 19 10 19C14.9626 19 19 14.9626 19 10C19 5.0374 14.9626 1 10 1ZM10 18.1818C5.48846 18.1818 1.81818 14.5115 1.81818 10C1.81818 5.48855 5.48846 1.81818 10 1.81818C14.5115 1.81818 18.1818 5.48855 18.1818 10C18.1818 14.5115 14.5115 18.1818 10 18.1818Z" fill="#737373"/>
<path d="M10 -1C3.93283 -1 -1 3.93283 -1 10H3C3 6.14197 6.14197 3 10 3V-1ZM-1 10C-1 16.0672 3.93283 21 10 21V17C6.14197 17 3 13.858 3 10H-1ZM10 21C16.0672 21 21 16.0672 21 10H17C17 13.858 13.858 17 10 17V21ZM21 10C21 3.93283 16.0672 -1 10 -1V3C13.858 3 17 6.14197 17 10H21ZM10 16.1818C6.59305 16.1818 3.81818 13.4069 3.81818 10H-0.181818C-0.181818 15.616 4.38388 20.1818 10 20.1818V16.1818ZM3.81818 10C3.81818 6.5931 6.59305 3.81818 10 3.81818V-0.181818C4.38388 -0.181818 -0.181818 4.38399 -0.181818 10H3.81818ZM10 3.81818C13.407 3.81818 16.1818 6.5931 16.1818 10H20.1818C20.1818 4.38399 15.6161 -0.181818 10 -0.181818V3.81818ZM16.1818 10C16.1818 13.4069 13.407 16.1818 10 16.1818V20.1818C15.6161 20.1818 20.1818 15.616 20.1818 10H16.1818Z" fill="#737373" mask="url(#path-1-inside-1)"/>
<path d="M9.45852 11.9531H8.64034V12.8545H7.92443V13.6727H10.1744V12.8545H9.45852V11.9531Z" fill="#737373"/>
<path d="M11.0687 5.72681H7.79721V6.70863H8.64035V9.4803H7.79721V10.4621H8.64035V10.6438H9.45853V10.4621H11.0687C12.3743 10.4621 13.4364 9.40003 13.4364 8.09446C13.4364 6.78889 12.3743 5.72681 11.0687 5.72681ZM11.0687 9.48038H9.45853V6.70863H11.0687C11.8329 6.70863 12.4545 7.33036 12.4545 8.09446C12.4545 8.85856 11.8328 9.48038 11.0687 9.48038Z" fill="#737373"/>
<path d="M12.2145 10.8076H7.79721V11.7894H12.2145V10.8076Z" fill="#737373"/>
</svg>
