<svg width="20" height="20" viewBox="0 0 20 20" fill="none" xmlns="http://www.w3.org/2000/svg">
<mask id="path-1-inside-1" fill="white">
<path d="M10 0C4.486 0 0 4.486 0 10C0 15.514 4.486 20 10 20C15.514 20 20 15.514 20 10C20 4.486 15.514 0 10 0ZM10 19.0909C4.98718 19.0909 0.909091 15.0127 0.909091 10C0.909091 4.98727 4.98718 0.909091 10 0.909091C15.0128 0.909091 19.0909 4.98727 19.0909 10C19.0909 15.0127 15.0128 19.0909 10 19.0909Z"/>
</mask>
<path d="M10 0C4.486 0 0 4.486 0 10C0 15.514 4.486 20 10 20C15.514 20 20 15.514 20 10C20 4.486 15.514 0 10 0ZM10 19.0909C4.98718 19.0909 0.909091 15.0127 0.909091 10C0.909091 4.98727 4.98718 0.909091 10 0.909091C15.0128 0.909091 19.0909 4.98727 19.0909 10C19.0909 15.0127 15.0128 19.0909 10 19.0909Z" fill="#737373"/>
<path d="M10 -1.5C3.65757 -1.5 -1.5 3.65757 -1.5 10H1.5C1.5 5.31443 5.31443 1.5 10 1.5V-1.5ZM-1.5 10C-1.5 16.3424 3.65757 21.5 10 21.5V18.5C5.31443 18.5 1.5 14.6856 1.5 10H-1.5ZM10 21.5C16.3424 21.5 21.5 16.3424 21.5 10H18.5C18.5 14.6856 14.6856 18.5 10 18.5V21.5ZM21.5 10C21.5 3.65757 16.3424 -1.5 10 -1.5V1.5C14.6856 1.5 18.5 5.31443 18.5 10H21.5ZM10 17.5909C5.81562 17.5909 2.40909 14.1843 2.40909 10H-0.590909C-0.590909 15.8411 4.15875 20.5909 10 20.5909V17.5909ZM2.40909 10C2.40909 5.81569 5.81562 2.40909 10 2.40909V-0.590909C4.15875 -0.590909 -0.590909 4.15886 -0.590909 10H2.40909ZM10 2.40909C14.1844 2.40909 17.5909 5.81569 17.5909 10H20.5909C20.5909 4.15886 15.8413 -0.590909 10 -0.590909V2.40909ZM17.5909 10C17.5909 14.1843 14.1844 17.5909 10 17.5909V20.5909C15.8413 20.5909 20.5909 15.8411 20.5909 10H17.5909Z" fill="#737373" mask="url(#path-1-inside-1)"/>
<path d="M9.39835 12.1702H8.48926V13.1717H7.6938V14.0808H10.1938V13.1717H9.39835V12.1702Z" fill="#737373"/>
<path d="M11.1875 5.25201H7.55246V6.34292H8.48928V9.42256H7.55246V10.5135H8.48928V10.7153H9.39837V10.5135H11.1875C12.6381 10.5135 13.8182 9.33338 13.8182 7.88274C13.8182 6.43211 12.6381 5.25201 11.1875 5.25201ZM11.1875 9.42265H9.39837V6.34292H11.1875C12.0365 6.34292 12.7273 7.03374 12.7273 7.88274C12.7273 8.73174 12.0365 9.42265 11.1875 9.42265Z" fill="#737373"/>
<path d="M12.4605 10.8973H7.55246V11.9882H12.4605V10.8973Z" fill="#737373"/>
</svg>
