<svg width="20" height="20" viewBox="0 0 20 20" fill="none" xmlns="http://www.w3.org/2000/svg">
<path fill-rule="evenodd" clip-rule="evenodd" d="M6.80381 2.48875C5.66066 2.79607 4.52493 3.13033 3.39756 3.49125C3.29553 3.52274 3.20446 3.58238 3.13481 3.66331C3.06516 3.74424 3.01975 3.84317 3.00381 3.94875C2.33756 8.82 3.87506 12.375 5.70881 14.7162C6.62881 15.8912 7.62506 16.7612 8.45506 17.3325C8.87131 17.6175 9.23756 17.825 9.52631 17.9575C9.67131 18.0238 9.78881 18.0688 9.87881 18.095C9.91849 18.1078 9.959 18.1178 10.0001 18.125C10.0088 18.1238 10.0476 18.1187 10.1213 18.0963C10.2113 18.0688 10.3288 18.0238 10.4738 17.9575C10.7613 17.825 11.1301 17.6175 11.5451 17.3325C12.5858 16.6023 13.5115 15.7204 14.2913 14.7162C16.1251 12.375 17.6626 8.82 16.9963 3.94875C16.9804 3.84317 16.935 3.74424 16.8653 3.66331C16.7957 3.58238 16.7046 3.52274 16.6026 3.49125C15.8201 3.24125 14.5001 2.83375 13.1963 2.48875C11.8638 2.1375 10.6376 1.875 10.0001 1.875C9.36256 1.875 8.13756 2.1375 6.80381 2.48875ZM6.48381 1.28125C7.78756 0.93625 9.17131 0.625 10.0001 0.625C10.8276 0.625 12.2126 0.93625 13.5163 1.28125C14.6792 1.59347 15.8345 1.93315 16.9813 2.3C17.6413 2.51 18.1388 3.07875 18.2351 3.78C18.9513 9.02625 17.2901 12.9137 15.2763 15.4862C14.4182 16.5903 13.3993 17.5594 12.2538 18.3612C11.8555 18.6403 11.4344 18.8853 10.9951 19.0938C10.6576 19.2487 10.2976 19.375 10.0001 19.375C9.70256 19.375 9.34256 19.2487 9.00506 19.0938C8.5656 18.8855 8.14452 18.6404 7.74631 18.3612C6.60123 17.5593 5.58284 16.5902 4.72506 15.4862C2.70881 12.9137 1.04881 9.02625 1.76506 3.78C1.81295 3.44009 1.95612 3.12069 2.178 2.85877C2.39988 2.59685 2.69139 2.40312 3.01881 2.3C4.16562 1.93316 5.32094 1.59348 6.48381 1.28125Z" fill="#737373"/>
<path d="M11.875 8.125C11.875 8.62228 11.6775 9.09919 11.3258 9.45083C10.9742 9.80246 10.4973 10 10 10C9.50272 10 9.02581 9.80246 8.67417 9.45083C8.32254 9.09919 8.125 8.62228 8.125 8.125C8.125 7.62772 8.32254 7.15081 8.67417 6.79917C9.02581 6.44754 9.50272 6.25 10 6.25C10.4973 6.25 10.9742 6.44754 11.3258 6.79917C11.6775 7.15081 11.875 7.62772 11.875 8.125Z" fill="#737373"/>
<path d="M9.26382 10.0425C9.28835 9.8968 9.36371 9.76449 9.47652 9.66907C9.58934 9.57364 9.73231 9.52127 9.88007 9.52126H10.0751C10.2221 9.52142 10.3643 9.57339 10.4768 9.66803C10.5893 9.76268 10.6648 9.89395 10.6901 10.0388L11.1238 12.5388C11.1393 12.6285 11.135 12.7206 11.1112 12.8085C11.0873 12.8965 11.0445 12.9781 10.9858 13.0478C10.9271 13.1174 10.8539 13.1734 10.7713 13.2118C10.6887 13.2502 10.5987 13.2701 10.5076 13.27H9.46382C9.3731 13.27 9.28347 13.2502 9.20117 13.212C9.11886 13.1738 9.04585 13.1182 8.98721 13.049C8.92857 12.9798 8.88571 12.8986 8.86159 12.8111C8.83748 12.7237 8.83269 12.632 8.84757 12.5425L9.26382 10.0425Z" fill="#737373"/>
</svg>
