<svg width="20" height="20" viewBox="0 0 20 20" fill="none" xmlns="http://www.w3.org/2000/svg">
<path fill-rule="evenodd" clip-rule="evenodd" d="M6.69249 6.39875L9.42249 0.99C9.47493 0.881192 9.55685 0.789292 9.65895 0.724762C9.76105 0.660232 9.87921 0.625667 9.99999 0.625C10.2287 0.625 10.4575 0.74625 10.5812 0.99L13.3112 6.39875L19.4337 7.26875C19.5864 7.29274 19.726 7.36864 19.8292 7.48363C19.9323 7.59863 19.9927 7.74569 20 7.9C20.0085 8.00272 19.9939 8.10604 19.9571 8.20232C19.9203 8.29861 19.8623 8.38539 19.7875 8.45625L15.3837 12.6513L16.4212 18.5637C16.5187 19.1175 15.9712 19.5513 15.4887 19.3037L9.99999 16.4838L4.51374 19.3037C4.45637 19.3336 4.39485 19.3546 4.33124 19.3662C3.90499 19.4412 3.49624 19.0487 3.58124 18.5637L4.61874 12.6513L0.216244 8.45625C0.148028 8.39139 0.093857 8.31321 0.0570891 8.22656C0.0203211 8.13991 0.00173896 8.04663 0.00249405 7.9525C0.00281491 7.8195 0.0390955 7.68906 0.107494 7.575C0.156742 7.49259 0.223868 7.42228 0.303916 7.36928C0.383965 7.31627 0.474894 7.28192 0.569994 7.26875L6.69249 6.39875ZM9.99999 15.0338C10.1 15.0338 10.2 15.0563 10.29 15.1038L14.8975 17.4713L14.03 12.525C14.0096 12.4111 14.0175 12.294 14.053 12.1839C14.0885 12.0738 14.1506 11.9742 14.2337 11.8938L17.8662 8.43125L12.8012 7.71125C12.6964 7.69541 12.5969 7.65439 12.5113 7.59169C12.4258 7.52899 12.3567 7.44649 12.31 7.35125L10.0025 2.77875L9.99999 2.7825V15.0325V15.0338Z" fill="#FFE100"/>
</svg>
