<svg width="18" height="18" viewBox="0 0 18 18" fill="none" xmlns="http://www.w3.org/2000/svg">
<g clip-path="url(#clip0)">
<path fill-rule="evenodd" clip-rule="evenodd" d="M6.02322 5.75887L8.48022 0.891C8.5274 0.793073 8.60114 0.710362 8.69303 0.652286C8.78492 0.594209 8.89127 0.5631 8.99997 0.5625C9.20584 0.5625 9.41172 0.671625 9.52309 0.891L11.9801 5.75887L17.4903 6.54187C17.6277 6.56347 17.7534 6.63177 17.8462 6.73527C17.9391 6.83877 17.9934 6.97112 18 7.11C18.0077 7.20245 17.9945 7.29544 17.9614 7.38209C17.9282 7.46875 17.8761 7.54685 17.8087 7.61062L13.8453 11.3861L14.7791 16.7074C14.8668 17.2057 14.3741 17.5961 13.9398 17.3734L8.99997 14.8354L4.06234 17.3734C4.0107 17.4002 3.95534 17.4192 3.89809 17.4296C3.51447 17.4971 3.14659 17.1439 3.22309 16.7074L4.15684 11.3861L0.194592 7.61062C0.133197 7.55225 0.0844439 7.48189 0.0513527 7.4039C0.0182615 7.32592 0.0015376 7.24196 0.00221718 7.15725C0.00250595 7.03755 0.0351585 6.92016 0.0967172 6.8175C0.141041 6.74333 0.201453 6.68006 0.273497 6.63235C0.345541 6.58465 0.427377 6.55373 0.512967 6.54187L6.02322 5.75887ZM8.99997 13.5304C9.08997 13.5304 9.17997 13.5506 9.26097 13.5934L13.4077 15.7241L12.627 11.2725C12.6086 11.17 12.6157 11.0646 12.6477 10.9655C12.6796 10.8664 12.7355 10.7768 12.8103 10.7044L16.0796 7.58812L11.5211 6.94012C11.4267 6.92587 11.3372 6.88895 11.2602 6.83252C11.1832 6.77609 11.121 6.70184 11.079 6.61613L9.00222 2.50087L8.99997 2.50425V13.5293V13.5304Z" fill="#FFE100"/>
</g>
<defs>
<clipPath id="clip0">
<rect width="18" height="18" fill="white"/>
</clipPath>
</defs>
</svg>
