<svg width="20" height="20" viewBox="0 0 20 20" fill="none" xmlns="http://www.w3.org/2000/svg">
<path fill-rule="evenodd" clip-rule="evenodd" d="M8.57249 14.8225C8.99117 14.5305 9.48952 14.3742 9.99999 14.375C10.5312 14.375 11.0225 14.54 11.4275 14.8225L9.99999 16.25L8.57249 14.8225Z" fill="#4872F2"/>
<path fill-rule="evenodd" clip-rule="evenodd" d="M9.66374 15.03L9.99999 15.3663L10.3362 15.03C10.1139 14.9897 9.88609 14.9897 9.66374 15.03ZM8.21499 14.31C8.73849 13.9447 9.36164 13.7492 9.99999 13.75C10.6625 13.75 11.2787 13.9563 11.785 14.31C11.8598 14.3622 11.9223 14.4302 11.9681 14.5092C12.0138 14.5881 12.0417 14.6762 12.0498 14.7671C12.058 14.858 12.046 14.9495 12.015 15.0354C11.9839 15.1212 11.9344 15.1991 11.87 15.2638L10.4425 16.6925C10.3844 16.7507 10.3155 16.7969 10.2395 16.8284C10.1636 16.8599 10.0822 16.8761 9.99999 16.8761C9.91778 16.8761 9.83638 16.8599 9.76045 16.8284C9.68451 16.7969 9.61555 16.7507 9.55749 16.6925L8.12999 15.2625C8.04278 15.175 7.98346 15.0637 7.95949 14.9425C7.93553 14.8213 7.94801 14.6958 7.99536 14.5817C8.0427 14.4676 8.12279 14.3701 8.22551 14.3015C8.32823 14.2329 8.44897 14.1963 8.57249 14.1963V14.8213L8.21499 14.3088V14.31ZM9.99999 11.875C8.78258 11.873 7.59772 12.268 6.62499 13C6.55933 13.0493 6.48461 13.0851 6.4051 13.1055C6.32559 13.1258 6.24285 13.1303 6.1616 13.1187C5.99751 13.0953 5.84944 13.0076 5.74999 12.875C5.65053 12.7424 5.60783 12.5757 5.63127 12.4116C5.65471 12.2475 5.74238 12.0995 5.87499 12C7.02374 11.1375 8.45249 10.625 9.99999 10.625C11.5475 10.625 12.9762 11.1375 14.125 12C14.1906 12.0493 14.246 12.111 14.2878 12.1816C14.3296 12.2522 14.3571 12.3304 14.3687 12.4116C14.3803 12.4929 14.3758 12.5756 14.3554 12.6551C14.3351 12.7346 14.2992 12.8093 14.25 12.875C14.2007 12.9407 14.139 12.996 14.0684 13.0378C13.9978 13.0796 13.9196 13.1071 13.8384 13.1187C13.7571 13.1303 13.6744 13.1258 13.5949 13.1055C13.5154 13.0851 13.4406 13.0493 13.375 13C12.4023 12.268 11.2174 11.873 9.99999 11.875ZM9.99999 8.12501C7.70874 8.12501 5.61249 8.94626 3.98249 10.31C3.85482 10.4101 3.69325 10.4566 3.53193 10.4397C3.3706 10.4228 3.22216 10.3438 3.11797 10.2195C3.01378 10.0952 2.962 9.93527 2.97357 9.77347C2.98515 9.61168 3.05916 9.46073 3.17999 9.35251C5.09042 7.74894 7.50576 6.87152 9.99999 6.87501C12.595 6.87501 14.975 7.80626 16.82 9.35251C16.886 9.4042 16.9408 9.46863 16.9814 9.54197C17.022 9.6153 17.0474 9.69605 17.0561 9.7794C17.0648 9.86275 17.0567 9.947 17.0322 10.0271C17.0077 10.1073 16.9673 10.1817 16.9135 10.2459C16.8597 10.3102 16.7935 10.3629 16.7188 10.401C16.6442 10.4392 16.5627 10.4619 16.4791 10.4679C16.3955 10.4738 16.3115 10.4629 16.2322 10.4358C16.1529 10.4087 16.0799 10.3659 16.0175 10.31C14.3319 8.89515 12.2007 8.12128 9.99999 8.12501Z" fill="#4872F2"/>
<path fill-rule="evenodd" clip-rule="evenodd" d="M9.99999 4.37501C6.67874 4.37501 3.64749 5.60751 1.33499 7.64126C1.27414 7.69971 1.20209 7.74523 1.12318 7.77508C1.04427 7.80493 0.960128 7.8185 0.875833 7.81496C0.791537 7.81142 0.70883 7.79085 0.632697 7.7545C0.556564 7.71814 0.48858 7.66674 0.432843 7.6034C0.377106 7.54006 0.334769 7.4661 0.308385 7.38596C0.282001 7.30582 0.272115 7.22117 0.279324 7.13711C0.286533 7.05305 0.310686 6.97132 0.350329 6.89684C0.389972 6.82236 0.444284 6.75669 0.50999 6.70376C3.13091 4.39324 6.50603 3.12046 9.99999 3.12501C13.6375 3.12501 16.9587 4.47626 19.49 6.70251C19.5535 6.75613 19.6057 6.82188 19.6435 6.89591C19.6813 6.96995 19.704 7.05078 19.7101 7.13368C19.7163 7.21657 19.7059 7.29987 19.6795 7.37869C19.6531 7.45751 19.6112 7.53027 19.5563 7.59271C19.5015 7.65515 19.4347 7.70602 19.3599 7.74233C19.2851 7.77865 19.2039 7.79968 19.1209 7.8042C19.0379 7.80872 18.9548 7.79664 18.8765 7.76866C18.7982 7.74069 18.7263 7.69737 18.665 7.64126C16.2719 5.53171 13.1901 4.37002 9.99999 4.37501Z" fill="#4872F2"/>
</svg>
