<svg width="24" height="24" viewBox="0 0 24 24" fill="none" xmlns="http://www.w3.org/2000/svg">
<path fill-rule="evenodd" clip-rule="evenodd" d="M12 19.875C14.0886 19.875 16.0916 19.0453 17.5685 17.5685C19.0453 16.0916 19.875 14.0886 19.875 12C19.875 9.91142 19.0453 7.90838 17.5685 6.43153C16.0916 4.95468 14.0886 4.125 12 4.125C9.91142 4.125 7.90838 4.95468 6.43153 6.43153C4.95468 7.90838 4.125 9.91142 4.125 12C4.125 14.0886 4.95468 16.0916 6.43153 17.5685C7.90838 19.0453 9.91142 19.875 12 19.875ZM12 21C14.3869 21 16.6761 20.0518 18.364 18.364C20.0518 16.6761 21 14.3869 21 12C21 9.61305 20.0518 7.32387 18.364 5.63604C16.6761 3.94821 14.3869 3 12 3C9.61305 3 7.32387 3.94821 5.63604 5.63604C3.94821 7.32387 3 9.61305 3 12C3 14.3869 3.94821 16.6761 5.63604 18.364C7.32387 20.0518 9.61305 21 12 21Z" fill="white"/>
<path d="M12 19.875C14.0886 19.875 16.0916 19.0453 17.5685 17.5685C19.0453 16.0916 19.875 14.0886 19.875 12C19.875 9.91142 19.0453 7.90838 17.5685 6.43153C16.0916 4.95468 14.0886 4.125 12 4.125C9.91142 4.125 7.90838 4.95468 6.43153 6.43153C4.95468 7.90838 4.125 9.91142 4.125 12C4.125 14.0886 4.95468 16.0916 6.43153 17.5685C7.90838 19.0453 9.91142 19.875 12 19.875Z" fill="white"/>
<path fill-rule="evenodd" clip-rule="evenodd" d="M12 19.875C14.0886 19.875 16.0916 19.0453 17.5685 17.5685C19.0453 16.0916 19.875 14.0886 19.875 12C19.875 9.91142 19.0453 7.90838 17.5685 6.43153C16.0916 4.95468 14.0886 4.125 12 4.125C9.91142 4.125 7.90838 4.95468 6.43153 6.43153C4.95468 7.90838 4.125 9.91142 4.125 12C4.125 14.0886 4.95468 16.0916 6.43153 17.5685C7.90838 19.0453 9.91142 19.875 12 19.875ZM12 21C14.3869 21 16.6761 20.0518 18.364 18.364C20.0518 16.6761 21 14.3869 21 12C21 9.61305 20.0518 7.32387 18.364 5.63604C16.6761 3.94821 14.3869 3 12 3C9.61305 3 7.32387 3.94821 5.63604 5.63604C3.94821 7.32387 3 9.61305 3 12C3 14.3869 3.94821 16.6761 5.63604 18.364C7.32387 20.0518 9.61305 21 12 21Z" fill="#B9B9B9"/>
<path fill-rule="evenodd" clip-rule="evenodd" d="M16.3355 7.66428C16.3879 7.71653 16.4294 7.7786 16.4578 7.84694C16.4861 7.91528 16.5007 7.98854 16.5007 8.06253C16.5007 8.13652 16.4861 8.20978 16.4578 8.27812C16.4294 8.34646 16.3879 8.40853 16.3355 8.46078L8.46048 16.3358C8.35486 16.4414 8.21161 16.5007 8.06223 16.5007C7.91286 16.5007 7.76961 16.4414 7.66398 16.3358C7.55836 16.2302 7.49902 16.0869 7.49902 15.9375C7.49902 15.7882 7.55836 15.6449 7.66398 15.5393L15.539 7.66428C15.5912 7.6119 15.6533 7.57033 15.7216 7.54198C15.79 7.51362 15.8632 7.49902 15.9372 7.49902C16.0112 7.49902 16.0845 7.51362 16.1528 7.54198C16.2212 7.57033 16.2832 7.6119 16.3355 7.66428Z" fill="#B9B9B9"/>
<path fill-rule="evenodd" clip-rule="evenodd" d="M7.66428 7.66428C7.6119 7.71653 7.57033 7.7786 7.54198 7.84694C7.51362 7.91528 7.49902 7.98854 7.49902 8.06253C7.49902 8.13652 7.51362 8.20978 7.54198 8.27812C7.57033 8.34646 7.6119 8.40853 7.66428 8.46078L15.5393 16.3358C15.6449 16.4414 15.7882 16.5007 15.9375 16.5007C16.0869 16.5007 16.2302 16.4414 16.3358 16.3358C16.4414 16.2302 16.5007 16.0869 16.5007 15.9375C16.5007 15.7882 16.4414 15.6449 16.3358 15.5393L8.46078 7.66428C8.40853 7.6119 8.34646 7.57033 8.27812 7.54198C8.20978 7.51362 8.13652 7.49902 8.06253 7.49902C7.98854 7.49902 7.91528 7.51362 7.84694 7.54198C7.7786 7.57033 7.71653 7.6119 7.66428 7.66428Z" fill="#B9B9B9"/>
</svg>
