<svg width="50" height="50" viewBox="0 0 50 50" fill="none" xmlns="http://www.w3.org/2000/svg">
<path d="M33.0225 0H7.10996C6.38853 0 5.80371 0.584821 5.80371 1.71964V49.1071C5.80371 49.4152 6.38853 50 7.10996 50H42.8903C43.6117 50 44.1966 49.4152 44.1966 49.1071V11.5875C44.1966 10.9661 44.1135 10.7661 43.9671 10.6187L33.5778 0.229464C33.4305 0.0830357 33.2305 0 33.0225 0Z" fill="#E9E9E0"/>
<path d="M33.4824 0.134827V10.7143H44.0619L33.4824 0.134827Z" fill="#D9D7CA"/>
<path d="M42.8903 50H7.10996C6.38853 50 5.80371 49.4152 5.80371 48.6937V34.8214H44.1966V48.6937C44.1966 49.4152 43.6117 50 42.8903 50Z" fill="#91CDA0"/>
<path d="M18.1961 42.9509L20.4792 47.3214H18.7827L17.3542 43.9277H17.2318L15.6934 47.3214H13.997L16.2801 42.9509L13.8506 38.3241H15.5229L17.1095 41.9866H17.2318L18.9533 38.3241H20.6256L18.1961 42.9509Z" fill="white"/>
<path d="M24.1407 38.325V46.2107H28.279V47.3214H22.6514V38.325H24.1407Z" fill="white"/>
<path d="M34.8588 44.8554C34.8588 45.1804 34.7918 45.4964 34.657 45.8018C34.5222 46.1072 34.3338 46.375 34.09 46.6072C33.8463 46.8393 33.5445 47.0241 33.1865 47.1625C32.8284 47.3009 32.4213 47.3697 31.9659 47.3697C31.7704 47.3697 31.5695 47.3589 31.3615 47.3393C31.1534 47.3197 30.9445 47.2839 30.7329 47.2357C30.5213 47.1866 30.3195 47.1197 30.1284 47.0339C29.9374 46.9482 29.7722 46.8447 29.6338 46.7223L29.89 45.6723C30.0034 45.7375 30.1481 45.8009 30.3231 45.8616C30.4981 45.9223 30.6784 45.9795 30.8659 46.0322C31.0525 46.0857 31.24 46.1277 31.4275 46.1607C31.6141 46.1929 31.7891 46.2098 31.9525 46.2098C32.449 46.2098 32.8293 46.0938 33.0936 45.8616C33.3579 45.6295 33.49 45.2857 33.49 44.8304C33.49 44.5536 33.3963 44.3179 33.2097 44.1223C33.0222 43.9268 32.7883 43.75 32.5079 43.5911C32.2275 43.4322 31.924 43.2741 31.5981 43.1152C31.2722 42.9563 30.9668 42.7688 30.6829 42.5536C30.3981 42.3384 30.1624 42.0839 29.9749 41.7911C29.7874 41.4982 29.6945 41.1322 29.6945 40.6929C29.6945 40.2947 29.7677 39.9402 29.9141 39.6313C30.0606 39.3223 30.2579 39.0589 30.5061 38.8438C30.7543 38.6286 31.0436 38.4634 31.3731 38.3491C31.7025 38.2348 32.0508 38.1786 32.4168 38.1786C32.7909 38.1786 33.1695 38.2134 33.5516 38.2822C33.9338 38.3509 34.2427 38.4634 34.4793 38.6179C34.4302 38.7232 34.3731 38.8393 34.3088 38.9661C34.2436 39.0929 34.182 39.2098 34.1258 39.3197C34.0686 39.4295 34.0195 39.5214 33.9793 39.5947C33.9383 39.6679 33.9141 39.7089 33.9061 39.717C33.857 39.6929 33.8025 39.6607 33.7409 39.6197C33.6793 39.5786 33.5918 39.5384 33.4784 39.4973C33.3641 39.4563 33.2141 39.4286 33.0266 39.4116C32.8391 39.3947 32.599 39.3991 32.3061 39.4241C32.1427 39.4411 31.9891 39.4866 31.8418 39.5643C31.6945 39.642 31.565 39.7366 31.4508 39.8509C31.3365 39.9652 31.2472 40.0929 31.182 40.2357C31.1168 40.3777 31.0847 40.5152 31.0847 40.6447C31.0847 40.9697 31.1775 41.2322 31.365 41.4322C31.5516 41.6322 31.7838 41.8063 32.0606 41.9572C32.3374 42.1081 32.6383 42.2545 32.9641 42.3964C33.2891 42.5384 33.5927 42.7125 33.874 42.9152C34.1552 43.1179 34.3883 43.3732 34.5758 43.6777C34.765 43.9831 34.8588 44.375 34.8588 44.8554Z" fill="white"/>
<path d="M20.9819 14.2857V10.7143H10.2676V14.2857V16.0714V17.8572V19.6429V21.4286V23.2143V25V26.7857V30.3572H19.1961H20.9819H39.7319V26.7857V25V23.2143V21.4286V19.6429V17.8572V14.2857H20.9819ZM12.0533 12.5H19.1961V14.2857H12.0533V12.5ZM12.0533 16.0714H19.1961V17.8572H12.0533V16.0714ZM12.0533 19.6429H19.1961V21.4286H12.0533V19.6429ZM12.0533 23.2143H19.1961V25H12.0533V23.2143ZM19.1961 28.5714H12.0533V26.7857H19.1961V28.5714ZM37.9462 28.5714H20.9819V26.7857H37.9462V28.5714ZM37.9462 25H20.9819V23.2143H37.9462V25ZM37.9462 21.4286H20.9819V19.6429H37.9462V21.4286ZM20.9819 17.8572V16.0714H37.9462V17.8572H20.9819Z" fill="#C8BDB8"/>
</svg>
